<svg xmlns="http://www.w3.org/2000/svg" x="0px" y="0px" width="100" height="100" viewBox="0,0,256,256">
<g fill-opacity="1" fill="#fff" fill-rule="nonzero" stroke="none" stroke-width="1" stroke-linecap="butt" stroke-linejoin="miter" stroke-miterlimit="10" stroke-dasharray="" stroke-dashoffset="0" font-family="none" font-weight="none" font-size="none" text-anchor="none" style="mix-blend-mode: normal"><g transform="scale(5.12,5.12)"><path d="M7.41211,2.02539c-0.20488,-0.03241 -0.41171,0.04025 -0.61914,0.06445c-0.06892,0.00008 -0.13764,0.00728 -0.20508,0.02148h-0.00195c-0.11101,0.02437 -0.22217,-0.00879 -0.33203,0.03516c-0.76631,0.30652 -1.25391,1.17496 -1.25391,2.05273v20.70117v21.09961c0,0.70926 0.33486,1.46547 1,1.8125c0.09894,0.05162 0.20948,0.02712 0.3125,0.05859c0.0026,0.00066 0.00521,0.00131 0.00781,0.00195c0.06314,0.01804 0.12791,0.02981 0.19336,0.03516c0.00065,0 0.0013,0 0.00195,0c0.53186,0.09765 1.08343,0.03612 1.57031,-0.23437c0.54621,-0.30345 5.01343,-2.88267 9.45117,-5.44531c4.437,-2.56221 8.76027,-5.06166 8.76172,-5.0625l9.20117,-5.29883c0,-0.00065 0,-0.0013 0,-0.00195c0,0 7.73879,-4.46202 8.81445,-5.10742c0.68075,-0.40845 1.21094,-1.06376 1.21094,-1.8457c0,-0.78194 -0.50832,-1.39265 -1.0957,-1.75977c-0.01473,-0.00951 -0.02971,-0.01862 -0.04492,-0.02734c-0.80104,-0.44502 -8.98242,-5.18945 -8.98242,-5.18945c-0.0013,-0.00065 -0.0026,-0.0013 -0.00391,-0.00195l-9.19531,-5.29883l-0.00391,-0.00195c-0.0037,-0.0022 -4.17358,-2.42319 -8.47266,-4.91016c-2.15049,-1.24404 -4.33299,-2.50367 -6.04102,-3.48437c-1.6731,-0.96065 -2.74096,-1.57604 -3.17188,-1.79492h-0.00195c-0.34415,-0.20616 -0.71692,-0.35744 -1.09961,-0.41797zM7,4.70898l20.33789,20.19141l-20.33789,20.19141v-20.19141zM11.69727,6.55469c1.54048,0.88633 3.23691,1.86269 5.02734,2.89844c4.29901,2.48693 8.47266,4.91211 8.47266,4.91211c0.0013,0.00065 0.0026,0.00131 0.00391,0.00195l8.06445,4.64648l-4.50977,4.47656zM35.0625,20.04688c1.01238,0.58759 7.32131,4.25152 8.30664,4.80078c0.05906,0.03691 0.06337,0.04711 0.08789,0.06836c-0.03414,0.03098 -0.05774,0.05847 -0.17187,0.12695c-0.86124,0.51675 -7.24989,4.20406 -8.18555,4.74414l-4.92383,-4.88672zM28.75586,26.30859l4.54688,4.51367l-8.00195,4.61133c-0.00065,0 -0.0013,0 -0.00195,0c0,0 -4.32446,2.50014 -8.76172,5.0625c-2.32183,1.34078 -3.14204,1.81176 -4.92969,2.8418z"></path></g></g>
</svg>