<?xml version="1.0" standalone="no"?>
<!DOCTYPE svg PUBLIC "-//W3C//DTD SVG 1.1//EN" "http://www.w3.org/Graphics/SVG/1.1/DTD/svg11.dtd" >
<svg xmlns="http://www.w3.org/2000/svg" xmlns:xlink="http://www.w3.org/1999/xlink" version="1.1">
<metadata>
Created by FontForge 20200314 at Fri Jul  5 21:05:46 2019
 By Unknown
Copyright (c) 2019 by www.fontiran.com (Moslem Ebrahimi). All rights reserved.
</metadata>
<defs>
<font id="dana-fanum-regular" horiz-adv-x="0" >
  <font-face 
    font-family="dana-fanum"
    font-weight="400"
    font-stretch="normal"
    units-per-em="1000"
    panose-1="0 0 5 0 0 0 0 0 0 0"
    ascent="800"
    descent="-200"
    x-height="468"
    cap-height="660"
    bbox="-123 -593 1381 1049"
    underline-thickness="19"
    underline-position="-250"
    unicode-range="U+000D-FEFF"
  />
<missing-glyph horiz-adv-x="300" 
d="M262 514v-528h-224v528h224zM238 486h-176v-472h176v472z" />
    <glyph glyph-name="uni06C0" unicode="&#x647;&#x654;" horiz-adv-x="442" 
d="M372 267q21 -42 21 -93q0 -47 -23 -87.5t-62.5 -64t-85.5 -23.5q-47 0 -86.5 23.5t-62.5 64t-23 87.5q0 41 20.5 83t56.5 78l41 40l-34 33l53 61l115 -112q49 -48 70 -90zM291 108q28 27 28 66q0 29 -13.5 55t-54.5 66l-28 27l-40 -39q-31 -31 -45 -57t-14 -52
q0 -38 28.5 -65.5t69.5 -27.5t69 27zM157 558q58 5 87 10t29 16q0 10 -10.5 14.5t-30 9t-28.5 6.5q-45 9 -64.5 21.5t-19.5 36.5q0 16 11 46q16 38 42.5 58t60.5 20q21 0 42 -7l36 -11l-11 -43l-38 11q-17 5 -29 5q-45 0 -66 -50q-6 -12 -6 -19q0 -9 10.5 -14t40.5 -12
q40 -9 59 -15t29.5 -19t10.5 -37q0 -30 -20 -44.5t-56.5 -20t-117.5 -10.5l-3 45z" />
    <glyph glyph-name="uniFBA5" unicode="&#xfeea;&#x654;" horiz-adv-x="518" arabic-form="final" 
d="M523 84v-84h-19q-51 0 -94.5 25t-70.5 67q-70 -10 -111 -18q-6 -1 -17 -1q-49 0 -93 33.5t-60 81.5q-8 27 -8 51q0 53 31 98t81 62l147 49v45h76v-294q0 -48 34.5 -81.5t84.5 -33.5h19zM311 173q-2 18 -2 26v165l-123 -42q-28 -10 -44 -31.5t-16 -47.5q0 -9 4 -25
q8 -28 35 -46.5t57 -13.5q100 17 89 15zM206 566q58 5 87 10t29 16q0 10 -10.5 14.5t-30 9t-28.5 6.5q-45 9 -64.5 21.5t-19.5 36.5q0 16 11 46q16 38 42.5 58t60.5 20q21 0 42 -7l36 -11l-11 -43l-38 11q-17 5 -29 5q-45 0 -66 -50q-6 -12 -6 -19q0 -9 10.5 -14t40.5 -12
q40 -9 59 -15t29.5 -19t10.5 -37q0 -30 -20 -44.5t-56.5 -20t-117.5 -10.5l-3 45z" />
    <glyph glyph-name="uniFEF5" unicode="&#xfedf;&#xfe82;" horiz-adv-x="552" arabic-form="isolated" 
d="M487 87.5q-17 -38.5 -55 -63t-96 -24.5h-242v84h242q54 0 73 24t17 56l-19 494l76 4l19 -494q2 -42 -15 -80.5zM128 140l-78 470l74 15l79 -470zM21 739.5q22 22.5 58 22.5q7 0 21 -2l101 -19q5 -1 14 -1q19 0 29 10t10 27v6l41 3v-17q0 -37 -22 -59.5t-58 -22.5
q-7 0 -21 2l-101 19q-5 1 -14 1q-19 0 -29 -10t-10 -27v-6l-41 -3v17q0 37 22 59.5z" />
    <glyph glyph-name="uniFEF6" unicode="&#xfee0;&#xfe82;" horiz-adv-x="606" arabic-form="final" 
d="M611 84v-84h-20q-36 0 -68 14t-56 41q-21 -25 -54 -40t-77 -15h-242v84h242q54 0 73 24t17 56l-19 494l76 4l19 -494v-7q6 -42 30.5 -59.5t58.5 -17.5h20zM128 140l-78 470l74 15l79 -470zM28 723.5q22 22.5 58 22.5q7 0 21 -2l101 -19q5 -1 14 -1q19 0 29 10t10 27v6
l41 3v-17q0 -37 -22 -59.5t-58 -22.5q-7 0 -21 2l-101 19q-5 1 -14 1q-19 0 -29 -10t-10 -27v-6l-41 -3v17q0 37 22 59.5z" />
    <glyph glyph-name="uniFEF7" unicode="&#xfedf;&#xfe84;" horiz-adv-x="552" arabic-form="isolated" 
d="M487 87.5q-17 -38.5 -55 -63t-96 -24.5h-242v84h242q54 0 73 24t17 56l-19 494l76 4l19 -494q2 -42 -15 -80.5zM128 140l-78 470l74 15l79 -470zM161 697h-2l-160 -38l-9 43l83 20q-21 21 -27 50q-3 12 -3 24q0 40 28.5 68t70.5 28q27 0 75 -10l-8 -43q-46 9 -71 9
q-24 0 -39.5 -16t-15.5 -38q0 -24 16.5 -39.5t39.5 -15.5q5 0 13 2l101 24l10 -44z" />
    <glyph glyph-name="uniFEF8" unicode="&#xfee0;&#xfe84;" horiz-adv-x="606" arabic-form="final" 
d="M611 84v-84h-20q-36 0 -68 14t-56 41q-21 -25 -54 -40t-77 -15h-242v84h242q54 0 73 24t17 56l-19 494l76 4l19 -494v-7q6 -42 30.5 -59.5t58.5 -17.5h20zM128 140l-78 470l74 15l79 -470zM161 697h-2l-160 -38l-9 43l83 20q-21 21 -27 50q-3 12 -3 24q0 40 28.5 68
t70.5 28q27 0 75 -10l-8 -43q-46 9 -71 9q-24 0 -39.5 -16t-15.5 -38q0 -24 16.5 -39.5t39.5 -15.5q5 0 13 2l101 24l10 -44z" />
    <glyph glyph-name="uniFEF9" unicode="&#xfedf;&#xfe88;" horiz-adv-x="552" arabic-form="isolated" 
d="M487 87.5q-17 -38.5 -55 -63t-96 -24.5h-242v84h242q54 0 73 24t17 56l-19 494l76 4l19 -494q2 -42 -15 -80.5zM128 140l-78 470l74 15l79 -470zM201 -226h-2l-160 -38l-9 43l83 20q-21 21 -27 50q-3 12 -3 24q0 40 28.5 68t70.5 28q27 0 75 -10l-8 -43q-46 9 -71 9
q-24 0 -39.5 -16t-15.5 -38q0 -24 16.5 -39.5t39.5 -15.5q5 0 13 2l101 24l10 -44z" />
    <glyph glyph-name="uniFEFA" unicode="&#xfee0;&#xfe88;" horiz-adv-x="606" arabic-form="final" 
d="M611 84v-84h-20q-36 0 -68 14t-56 41q-21 -25 -54 -40t-77 -15h-242v84h242q54 0 73 24t17 56l-19 494l76 4l19 -494v-7q6 -42 30.5 -59.5t58.5 -17.5h20zM128 140l-78 470l74 15l79 -470zM211 -226h-2l-160 -38l-9 43l83 20q-21 21 -27 50q-3 12 -3 24q0 40 28.5 68
t70.5 28q27 0 75 -10l-8 -43q-46 9 -71 9q-24 0 -39.5 -16t-15.5 -38q0 -24 16.5 -39.5t39.5 -15.5q5 0 13 2l101 24l10 -44z" />
    <glyph glyph-name="uniFEFB" unicode="&#xfedf;&#xfe8e;" horiz-adv-x="552" arabic-form="isolated" 
d="M487 87.5q-17 -38.5 -55 -63t-96 -24.5h-242v84h242q54 0 73 24t17 56l-19 494l76 4l19 -494q2 -42 -15 -80.5zM128 140l-78 470l74 15l79 -470z" />
    <glyph glyph-name="uniFEFC" unicode="&#xfee0;&#xfe8e;" horiz-adv-x="606" arabic-form="final" 
d="M611 84v-84h-20q-36 0 -68 14t-56 41q-21 -25 -54 -40t-77 -15h-242v84h242q54 0 73 24t17 56l-19 494l76 4l19 -494v-7q6 -42 30.5 -59.5t58.5 -17.5h20zM128 140l-78 470l74 15l79 -470z" />
    <glyph glyph-name="uni06440671" unicode="&#xfedf;&#xfb51;" horiz-adv-x="552" 
d="M487 87.5q-17 -38.5 -55 -63t-96 -24.5h-242v84h242q54 0 73 24t17 56l-19 494l76 4l19 -494q2 -42 -15 -80.5zM128 140l-78 470l74 15l79 -470zM273 835.5q25 -27.5 25 -67.5q0 -34 -26.5 -60.5t-61.5 -26.5h-140q-16 0 -25.5 -7t-26.5 -30l-34 26q21 29 37 41.5
t37 14.5l35 47q33 46 57.5 68t59.5 22q38 0 63 -27.5zM244 739q15 13 15 31q0 21 -14 35t-35 14t-38 -14.5t-42 -49.5l-22 -29h102q19 0 34 13z" />
    <glyph glyph-name="uni06440671.fina" unicode="&#xfee0;&#xfb51;" horiz-adv-x="606" 
d="M611 84v-84h-20q-36 0 -68 14t-56 41q-21 -25 -54 -40t-77 -15h-242v84h242q54 0 73 24t17 56l-19 494l76 4l19 -494v-7q6 -42 30.5 -59.5t58.5 -17.5h20zM128 140l-78 470l74 15l79 -470zM273 835.5q25 -27.5 25 -67.5q0 -34 -26.5 -60.5t-61.5 -26.5h-140
q-16 0 -25.5 -7t-26.5 -30l-34 26q21 29 37 41.5t37 14.5l35 47q33 46 57.5 68t59.5 22q38 0 63 -27.5zM244 739q15 13 15 31q0 21 -14 35t-35 14t-38 -14.5t-42 -49.5l-22 -29h102q19 0 34 13z" />
    <glyph glyph-name="uniFDF2.001" unicode="&#xfedf;&#xfee0;&#xfeea;" horiz-adv-x="1060" 
d="M663 886h-39v163h39v-163zM534 729.5q-21 20.5 -21 51.5q0 11 3 23l12 49l35 -10l-10 -46q-2 -8 -2 -12q0 -14 9.5 -22t28.5 -8q18 0 27 8t9 20l1 60h34l2 -60q0 -12 9 -20t27 -8q19 0 29 8t10 22q0 3 -2 11l-16 66l35 10l19 -68q3 -12 3 -23q0 -31 -21.5 -51.5
t-56.5 -20.5q-37 0 -54 25q-20 -25 -55 -25q-34 0 -55 20.5zM975 87.5q-17 -38.5 -55 -63t-96 -24.5h-33q-36 0 -68.5 14t-55.5 42q-44 -56 -131 -56h-32q-51 0 -94.5 25t-70.5 67q-70 -10 -111 -18q-6 -1 -17 -1q-49 0 -93 33.5t-60 81.5q-8 27 -8 51q0 53 31 98t81 62
l147 49v45h76v-294q0 -48 34.5 -81.5t84.5 -33.5h32q54 0 73 24t17 56l-19 494l76 4l19 -494v-8q6 -41 30.5 -58.5t58.5 -17.5h33q54 0 73 24t17 56l-19 494l76 4l19 -494q2 -42 -15 -80.5zM311 173q-2 18 -2 26v165l-123 -42q-28 -10 -44 -31.5t-16 -47.5q0 -9 4 -25
q8 -28 35 -46.5t57 -13.5q100 17 89 15z" />
    <glyph glyph-name="uni0621" unicode="&#x621;" horiz-adv-x="478" arabic-form="isolated" 
d="M291 30l-5 -1l-223 -42l-13 75l103 19q-25 31 -32 71q-3 15 -3 29q0 54 34 95.5t87 51.5q5 1 17 1q41 0 116 -18l-18 -73q-75 19 -102 16q-30 -4 -48.5 -25t-18.5 -49q0 -32 22.5 -54t54.5 -22q6 0 18 2l135 25l13 -75z" />
    <glyph glyph-name="uni0622" unicode="&#x622;" horiz-adv-x="295" arabic-form="isolated" 
d="M184 560l21 -559l-76 -4l-21 559zM22 660.5q22 22.5 58 22.5q7 0 21 -2l101 -19q5 -1 14 -1q19 0 29 10t10 27v6l41 3v-17q0 -37 -22 -59.5t-58 -22.5q-7 0 -21 2l-101 19q-5 1 -14 1q-19 0 -29 -10t-10 -27v-6l-41 -3v17q0 37 22 59.5z" />
    <glyph glyph-name="uni0623" unicode="&#x623;" horiz-adv-x="295" arabic-form="isolated" 
d="M184 560l21 -559l-76 -4l-21 559zM174 636h-2l-160 -38l-9 43l83 20q-21 21 -27 50q-3 12 -3 24q0 40 28.5 68t70.5 28q27 0 75 -10l-8 -43q-46 9 -71 9q-24 0 -39.5 -16t-15.5 -38q0 -24 16.5 -39.5t39.5 -15.5q5 0 13 2l101 24l10 -44z" />
    <glyph glyph-name="uni0624" unicode="&#x624;" horiz-adv-x="491" arabic-form="isolated" 
d="M441 -31q0 -71 -34 -111.5t-101.5 -64.5t-195.5 -50l-15 83q120 25 170.5 39.5t74.5 38.5t24 69q0 15 -1 24l-1 15q-64 -12 -131 -12q-48 0 -86 22.5t-59.5 62t-21.5 90.5t22 96t61.5 72.5t91.5 27.5q73 0 123 -56.5t60 -147.5l17 -162q2 -26 2 -36zM353 96l-6 60
q-7 62 -36 96.5t-73 34.5q-46 0 -71.5 -32.5t-25.5 -78.5q0 -42 24 -67t66 -25q68 0 122 12zM279 448h-2l-160 -38l-9 43l83 20q-21 21 -27 50q-3 12 -3 24q0 40 28.5 68t70.5 28q27 0 75 -10l-8 -43q-46 9 -71 9q-24 0 -39.5 -16t-15.5 -38q0 -24 16.5 -39.5t39.5 -15.5
q5 0 13 2l101 24l10 -44z" />
    <glyph glyph-name="uni0625" unicode="&#x625;" horiz-adv-x="252" arabic-form="isolated" 
d="M157 662l25 -661l-75 -4l-26 661zM167 -247h-2l-160 -38l-9 43l83 20q-21 21 -27 50q-3 12 -3 24q0 40 28.5 68t70.5 28q27 0 75 -10l-8 -43q-46 9 -71 9q-24 0 -39.5 -16t-15.5 -38q0 -24 16.5 -39.5t39.5 -15.5q5 0 13 2l101 24l10 -44z" />
    <glyph glyph-name="uni0626" unicode="&#x626;" horiz-adv-x="697" arabic-form="isolated" 
d="M294 -246q-75 0 -130 33.5t-84.5 95t-29.5 144.5q0 94 38 201l72 -29q-34 -98 -34 -175q0 -88 43.5 -137t122.5 -49q32 0 71 9q87 20 138.5 46t51.5 46q0 11 -17.5 18.5t-71.5 24.5l-35 10q-65 21 -97.5 49t-32.5 81q0 30 12 70q12 41 40 82t71 69.5t97 28.5q27 0 54 -7
l65 -18l-19 -82l-65 18q-16 5 -37 5q-41 0 -69.5 -23t-44 -51t-19.5 -45q-6 -21 -6 -35q0 -27 19 -39t67 -26q69 -21 97.5 -31.5t45.5 -28t22 -48.5q1 -5 1 -16q0 -59 -66 -106.5t-184 -74.5q-44 -10 -86 -10zM282 354h-2l-160 -38l-9 43l83 20q-21 21 -27 50q-3 12 -3 24
q0 40 28.5 68t70.5 28q27 0 75 -10l-8 -43q-46 9 -71 9q-24 0 -39.5 -16t-15.5 -38q0 -24 16.5 -39.5t39.5 -15.5q5 0 13 2l101 24l10 -44z" />
    <glyph glyph-name="uni0627" unicode="&#x627;" horiz-adv-x="252" arabic-form="isolated" 
d="M157 662l25 -661l-75 -4l-26 661z" />
    <glyph glyph-name="uni0628" unicode="&#x628;" horiz-adv-x="918" arabic-form="isolated" 
d="M628.5 86.5q56.5 2.5 77.5 6t39 11.5q24 11 36 27t12 40t-8 51l-38 139l74 21l38 -139q10 -36 10 -70q0 -51 -24 -89t-70 -57q-25 -12 -53 -17t-86 -7.5t-176 -2.5v84q112 0 168.5 2.5zM283.5 2.5q-58.5 2.5 -86.5 7.5t-54 17q-46 20 -69.5 58t-23.5 89q0 31 9 65l37 141
l73 -22l-37 -144q-6 -24 -6 -42q0 -24 11.5 -40.5t35.5 -27.5q18 -7 40 -11t79 -6.5t167 -2.5v-84q-117 0 -175.5 2.5zM389 -141l69 70l70 -70l-70 -69z" />
    <glyph glyph-name="uni0629" unicode="&#x629;" horiz-adv-x="443" arabic-form="isolated" 
d="M372 267q21 -42 21 -93q0 -47 -23 -87.5t-62.5 -64t-85.5 -23.5q-47 0 -86.5 23.5t-62.5 64t-23 87.5q0 41 20.5 83t56.5 78l41 40l-34 33l53 61l115 -112q49 -48 70 -90zM291 108q28 27 28 66q0 29 -13.5 55t-54.5 66l-28 27l-40 -39q-31 -31 -45 -57t-14 -52
q0 -38 28.5 -65.5t69.5 -27.5t69 27zM66 547l62 62l62 -62l-62 -62zM240 547l62 62l62 -62l-62 -62z" />
    <glyph glyph-name="uni062A" unicode="&#x62a;" horiz-adv-x="918" arabic-form="isolated" 
d="M628.5 86.5q56.5 2.5 77.5 6t39 11.5q24 11 36 27t12 40t-8 51l-38 139l74 21l38 -139q10 -36 10 -70q0 -51 -24 -89t-70 -57q-25 -12 -53 -17t-86 -7.5t-176 -2.5v84q112 0 168.5 2.5zM283.5 2.5q-58.5 2.5 -86.5 7.5t-54 17q-46 20 -69.5 58t-23.5 89q0 31 9 65l37 141
l73 -22l-37 -144q-6 -24 -6 -42q0 -24 11.5 -40.5t35.5 -27.5q18 -7 40 -11t79 -6.5t167 -2.5v-84q-117 0 -175.5 2.5zM310 389l62 62l62 -62l-62 -62zM484 389l62 62l62 -62l-62 -62z" />
    <glyph glyph-name="uni062B" unicode="&#x62b;" horiz-adv-x="918" arabic-form="isolated" 
d="M628.5 86.5q56.5 2.5 77.5 6t39 11.5q24 11 36 27t12 40t-8 51l-38 139l74 21l38 -139q10 -36 10 -70q0 -51 -24 -89t-70 -57q-25 -12 -53 -17t-86 -7.5t-176 -2.5v84q112 0 168.5 2.5zM283.5 2.5q-58.5 2.5 -86.5 7.5t-54 17q-46 20 -69.5 58t-23.5 89q0 31 9 65l37 141
l73 -22l-37 -144q-6 -24 -6 -42q0 -24 11.5 -40.5t35.5 -27.5q18 -7 40 -11t79 -6.5t167 -2.5v-84q-117 0 -175.5 2.5zM404 510l54 53l53 -53l-53 -54zM309 388l62 62l62 -62l-62 -62zM482 388l62 62l62 -62l-62 -62z" />
    <glyph glyph-name="uni062C" unicode="&#x62c;" horiz-adv-x="704" arabic-form="isolated" 
d="M624 -193l19 -82l-257 -71q-38 -9 -73 -9q-90 0 -160 52t-94 140q-9 33 -9 69q0 87 56.5 161t176.5 106l273 72l-221 117q-29 16 -60 16q-32 0 -60 -17t-46 -47l-18 -31l-66 41l19 34q30 51 74 78t95 27q49 0 99 -27l277 -154l-11 -98l-336 -93q-95 -25 -135.5 -75.5
t-40.5 -109.5q0 -17 6 -45q16 -59 66 -95t115 -36q29 0 56 7zM310 -75l69 70l70 -70l-70 -69z" />
    <glyph glyph-name="uni062D" unicode="&#x62d;" horiz-adv-x="704" arabic-form="isolated" 
d="M624 -193l19 -82l-257 -71q-38 -9 -73 -9q-90 0 -160 52t-94 140q-9 33 -9 69q0 87 56.5 161t176.5 106l273 72l-221 117q-29 16 -60 16q-32 0 -60 -17t-46 -47l-18 -31l-66 41l19 34q30 51 74 78t95 27q49 0 99 -27l277 -154l-11 -98l-336 -93q-95 -25 -135.5 -75.5
t-40.5 -109.5q0 -17 6 -45q16 -59 66 -95t115 -36q29 0 56 7z" />
    <glyph glyph-name="uni062E" unicode="&#x62e;" horiz-adv-x="704" arabic-form="isolated" 
d="M624 -193l19 -82l-257 -71q-38 -9 -73 -9q-90 0 -160 52t-94 140q-9 33 -9 69q0 87 56.5 161t176.5 106l273 72l-221 117q-29 16 -60 16q-32 0 -60 -17t-46 -47l-18 -31l-66 41l19 34q30 51 74 78t95 27q49 0 99 -27l277 -154l-11 -98l-336 -93q-95 -25 -135.5 -75.5
t-40.5 -109.5q0 -17 6 -45q16 -59 66 -95t115 -36q29 0 56 7zM203 591l69 70l70 -70l-70 -69z" />
    <glyph glyph-name="uni062F" unicode="&#x62f;" horiz-adv-x="521" arabic-form="isolated" 
d="M117.5 29.5q-43.5 29.5 -48.5 77.5q-5 21 -5 66h70q0 -31 4 -50q4 -21 24.5 -30t60.5 -9h68q104 0 104 62q0 15 -4 28q-16 52 -60 128t-97 151l61 50q59 -81 107 -165.5t63 -144.5q6 -24 6 -48q0 -64 -47.5 -104.5t-142.5 -40.5h-46q-74 0 -117.5 29.5z" />
    <glyph glyph-name="uni0630" unicode="&#x630;" horiz-adv-x="521" arabic-form="isolated" 
d="M117.5 29.5q-43.5 29.5 -48.5 77.5q-5 21 -5 66h70q0 -31 4 -50q4 -21 24.5 -30t60.5 -9h68q104 0 104 62q0 15 -4 28q-16 52 -60 128t-97 151l61 50q59 -81 107 -165.5t63 -144.5q6 -24 6 -48q0 -64 -47.5 -104.5t-142.5 -40.5h-46q-74 0 -117.5 29.5zM183 617l69 70
l70 -70l-70 -69z" />
    <glyph glyph-name="uni0631" unicode="&#x631;" horiz-adv-x="334" arabic-form="isolated" 
d="M24 -169q69 18 104.5 32t57.5 39.5t22 68.5q0 8 -2 26l-40 287l75 12l40 -289q3 -23 3 -41q0 -67 -33.5 -109t-88 -66t-142.5 -48l-20 82z" />
    <glyph glyph-name="uni0632" unicode="&#x632;" horiz-adv-x="334" arabic-form="isolated" 
d="M24 -169q69 18 104.5 32t57.5 39.5t22 68.5q0 8 -2 26l-40 287l75 12l40 -289q3 -23 3 -41q0 -67 -33.5 -109t-88 -66t-142.5 -48l-20 82zM121 458l69 70l70 -70l-70 -69z" />
    <glyph glyph-name="uni0633" unicode="&#x633;" horiz-adv-x="1178" arabic-form="isolated" 
d="M1128 163q0 -51 -23 -88t-60.5 -56t-82.5 -19q-40 0 -71 14.5t-51 40.5q-43 -55 -125 -55q-57 0 -97 28l1 -6q3 -24 3 -45q0 -66 -31 -107.5t-82 -64t-129 -41.5q-49 -11 -87 -11q-113 0 -177.5 74t-64.5 199q0 94 37 202l72 -29q-34 -98 -34 -176q0 -88 43 -136.5
t123 -48.5q32 0 71 9q72 17 105.5 28.5t55.5 36t22 68.5q0 19 -2 30l-40 274l75 13l18 -119q13 -52 40 -73t78 -21q90 0 90 81v124h71v-124q0 -81 86 -81q39 0 64.5 18.5t25.5 60.5q0 23 -7 48l-40 149l73 21l40 -149q10 -36 10 -69z" />
    <glyph glyph-name="uni0634" unicode="&#x634;" horiz-adv-x="1178" arabic-form="isolated" 
d="M1128 163q0 -51 -23 -88t-60.5 -56t-82.5 -19q-40 0 -71 14.5t-51 40.5q-43 -55 -125 -55q-57 0 -97 28l1 -6q3 -24 3 -45q0 -66 -31 -107.5t-82 -64t-129 -41.5q-49 -11 -87 -11q-113 0 -177.5 74t-64.5 199q0 94 37 202l72 -29q-34 -98 -34 -176q0 -88 43 -136.5
t123 -48.5q32 0 71 9q72 17 105.5 28.5t55.5 36t22 68.5q0 19 -2 30l-40 274l75 13l18 -119q13 -52 40 -73t78 -21q90 0 90 81v124h71v-124q0 -81 86 -81q39 0 64.5 18.5t25.5 60.5q0 23 -7 48l-40 149l73 21l40 -149q10 -36 10 -69zM782 578l54 53l53 -53l-53 -54zM687 456
l62 62l62 -62l-62 -62zM860 456l62 62l62 -62l-62 -62z" />
    <glyph glyph-name="uni0635" unicode="&#x635;" horiz-adv-x="1241" arabic-form="isolated" 
d="M1102.5 345.5q41.5 -25.5 65 -69.5t23.5 -98q0 -47 -25 -88t-66.5 -65.5t-89.5 -24.5h-308h-21q-34 0 -61 15q2 -14 2 -38q0 -66 -31 -107t-82 -64t-129 -42q-49 -11 -87 -11q-113 0 -177.5 74t-64.5 199q0 94 37 202l72 -29q-34 -98 -34 -176q0 -88 43 -136.5t123 -48.5
q32 0 71 9q72 17 105.5 28.5t55.5 36t22 68.5q0 19 -2 30q-12 87 -26 177l-12 84l-2 13l75 13l10 -71q9 -56 19.5 -86t27 -43t43.5 -13h23h2l73 99q49 70 80.5 107t68.5 59t84 22q51 0 92.5 -25.5zM1061 97.5q24 13.5 39 35.5t15 45q0 47 -29.5 78t-75.5 31q-31 0 -56 -16
t-49 -45.5t-66 -89.5l-38 -52h209q27 0 51 13.5z" />
    <glyph glyph-name="uni0636" unicode="&#x636;" horiz-adv-x="1241" arabic-form="isolated" 
d="M1102.5 345.5q41.5 -25.5 65 -69.5t23.5 -98q0 -47 -25 -88t-66.5 -65.5t-89.5 -24.5h-308h-21q-34 0 -61 15q2 -14 2 -38q0 -66 -31 -107t-82 -64t-129 -42q-49 -11 -87 -11q-113 0 -177.5 74t-64.5 199q0 94 37 202l72 -29q-34 -98 -34 -176q0 -88 43 -136.5t123 -48.5
q32 0 71 9q72 17 105.5 28.5t55.5 36t22 68.5q0 19 -2 30q-12 87 -26 177l-12 84l-2 13l75 13l10 -71q9 -56 19.5 -86t27 -43t43.5 -13h23h2l73 99q49 70 80.5 107t68.5 59t84 22q51 0 92.5 -25.5zM1061 97.5q24 13.5 39 35.5t15 45q0 47 -29.5 78t-75.5 31q-31 0 -56 -16
t-49 -45.5t-66 -89.5l-38 -52h209q27 0 51 13.5zM933 523l69 70l70 -70l-70 -69z" />
    <glyph glyph-name="uni0637" unicode="&#x637;" horiz-adv-x="681" arabic-form="isolated" 
d="M542.5 345.5q41.5 -25.5 65 -69.5t23.5 -98q0 -47 -25 -88t-66.5 -65.5t-89.5 -24.5h-400v84h94l32 43l-21 531l76 4l17 -436q55 76 99 110.5t103 34.5q51 0 92.5 -25.5zM501 97.5q24 13.5 39 35.5t15 45q0 47 -29.5 78t-75.5 31q-31 0 -56 -16t-49 -45.5t-66 -89.5
l-38 -52h209q27 0 51 13.5z" />
    <glyph glyph-name="uni0638" unicode="&#x638;" horiz-adv-x="681" arabic-form="isolated" 
d="M542.5 345.5q41.5 -25.5 65 -69.5t23.5 -98q0 -47 -25 -88t-66.5 -65.5t-89.5 -24.5h-400v84h94l32 43l-21 531l76 4l17 -436q55 76 99 110.5t103 34.5q51 0 92.5 -25.5zM501 97.5q24 13.5 39 35.5t15 45q0 47 -29.5 78t-75.5 31q-31 0 -56 -16t-49 -45.5t-66 -89.5
l-38 -52h209q27 0 51 13.5zM388 550l69 70l70 -70l-70 -69z" />
    <glyph glyph-name="uni0639" unicode="&#x639;" horiz-adv-x="616" arabic-form="isolated" 
d="M566 -245l-268 -27q-8 -1 -23 -1q-60 0 -112 30t-82.5 82.5t-30.5 116.5q0 70 40.5 128t108.5 85q-38 39 -48 96q-3 18 -3 35q0 66 41.5 117t106.5 62q14 2 25 2q54 0 140 -23l-20 -81q-96 25 -131 19q-39 -7 -63 -34t-24 -62q0 -43 30.5 -72t73.5 -29q7 0 19 2l170 31
l14 -83l-267 -49q-61 -11 -99 -51t-38 -92q0 -43 22.5 -78t60.5 -53t81 -14l269 28z" />
    <glyph glyph-name="uni063A" unicode="&#x63a;" horiz-adv-x="616" arabic-form="isolated" 
d="M566 -245l-268 -27q-8 -1 -23 -1q-60 0 -112 30t-82.5 82.5t-30.5 116.5q0 70 40.5 128t108.5 85q-38 39 -48 96q-3 18 -3 35q0 66 41.5 117t106.5 62q14 2 25 2q54 0 140 -23l-20 -81q-96 25 -131 19q-39 -7 -63 -34t-24 -62q0 -43 30.5 -72t73.5 -29q7 0 19 2l170 31
l14 -83l-267 -49q-61 -11 -99 -51t-38 -92q0 -43 22.5 -78t60.5 -53t81 -14l269 28zM243 613l69 70l70 -70l-70 -69z" />
    <glyph glyph-name="uni0641" unicode="&#x641;" horiz-adv-x="922" arabic-form="isolated" 
d="M871 141q0 -52 -19 -82t-65.5 -44.5t-130.5 -14.5h-202q-115 0 -172.5 2.5t-85 7.5t-53.5 17q-46 20 -69.5 58t-23.5 89q0 31 9 65l37 141l73 -22l-37 -144q-6 -24 -6 -42q0 -24 11.5 -40.5t35.5 -27.5q18 -7 40 -11t79 -6.5t167 -2.5h199q59 0 88.5 5t40.5 18t11 39
q0 14 -1 22q-58 -9 -126 -9q-74 0 -117 43.5t-43 118.5q0 51 19.5 95.5t57.5 71.5t92 27q72 0 121 -54t56 -144l12 -137q2 -28 2 -39zM604.5 261.5q24.5 -24.5 66.5 -24.5q59 0 119 10l-6 63q-7 61 -35.5 94.5t-71.5 33.5q-45 0 -71 -33t-26 -78q0 -41 24.5 -65.5zM615 658
l69 70l70 -70l-70 -69z" />
    <glyph glyph-name="uni0642" unicode="&#x642;" horiz-adv-x="689" arabic-form="isolated" 
d="M293 -247q-113 0 -177.5 74t-64.5 199q0 94 37 202l72 -29q-34 -98 -34 -176q0 -88 43 -136.5t123 -48.5q32 0 71 9q75 16 117.5 32t63 41t17.5 65l-4 34q-63 -12 -128 -12q-48 0 -86 22.5t-59.5 63t-21.5 91.5q0 50 22 94.5t61.5 72t90.5 27.5q74 0 123.5 -56.5
t59.5 -148.5l17 -161q2 -14 2 -39q0 -62 -27 -101t-81.5 -63t-149.5 -45q-49 -11 -87 -11zM551 104l-6 58q-7 62 -36.5 97t-73.5 35q-45 0 -71 -34t-26 -79q0 -41 24.5 -65.5t66.5 -24.5q60 0 122 13zM277 505l62 62l62 -62l-62 -62zM451 505l62 62l62 -62l-62 -62z" />
    <glyph glyph-name="uni0643" unicode="&#x643;" horiz-adv-x="925" arabic-form="isolated" 
d="M775 236q31 -49 31 -98q0 -59 -40 -96q-39 -42 -105 -42h-206q-115 0 -172.5 2.5t-85.5 7.5t-54 17q-46 20 -69.5 58t-23.5 89q0 31 9 65l37 141l73 -22l-37 -144q-6 -24 -6 -42q0 -24 11.5 -40.5t35.5 -27.5q18 -7 40 -11t79 -6.5t167 -2.5h203q24 0 39 12q13 9 20.5 23
t7.5 29q0 18 -11 37l-223 315l17 64l362 133l26 -79l-310 -114z" />
    <glyph glyph-name="uni0644" unicode="&#x644;" horiz-adv-x="669" arabic-form="isolated" 
d="M290 -248q-74 0 -128 34t-83 96t-29 144q0 92 37 200l73 -28q-34 -98 -34 -175q0 -88 42.5 -138t120.5 -50q36 0 73 10l20 5q62 15 94 29t51 45.5t17 89.5l-25 644l75 4l25 -644q3 -86 -27 -136t-81 -74.5t-132 -44.5q-44 -11 -89 -11z" />
    <glyph glyph-name="uni0645" unicode="&#x645;" horiz-adv-x="533" arabic-form="isolated" 
d="M461.5 281q22.5 -43 22.5 -97q0 -65 -33 -128q-15 -28 -41 -44.5t-56 -16.5q-25 0 -49 12l-179 93l17 -397l-75 -3l-18 468l52 35l49 -26l55 107q19 37 53 58t73 21q34 0 66 -17q41 -22 63.5 -65zM416 186q0 64 -45 87q-16 9 -34 9q-23 0 -43.5 -14t-33.5 -39l-44 -86
l129 -67q9 -4 18 -4q18 0 28 18q25 49 25 96z" />
    <glyph glyph-name="uni0646" unicode="&#x646;" horiz-adv-x="672" arabic-form="isolated" 
d="M293 -247q-113 0 -177.5 74t-64.5 199q0 94 37 202l72 -29q-34 -98 -34 -176q0 -88 43 -136.5t123 -48.5q32 0 71 9q72 17 105.5 28.5t55.5 36t22 68.5q0 19 -2 30l-40 274l75 13l40 -275q3 -24 3 -45q0 -66 -31 -107.5t-82 -64t-129 -41.5q-49 -11 -87 -11zM257 285
l69 70l70 -70l-70 -69z" />
    <glyph glyph-name="uni0647" unicode="&#x647;" horiz-adv-x="443" arabic-form="isolated" 
d="M372 267q21 -42 21 -93q0 -47 -23 -87.5t-62.5 -64t-85.5 -23.5q-47 0 -86.5 23.5t-62.5 64t-23 87.5q0 41 20.5 83t56.5 78l41 40l-34 33l53 61l115 -112q49 -48 70 -90zM291 108q28 27 28 66q0 29 -13.5 55t-54.5 66l-28 27l-40 -39q-31 -31 -45 -57t-14 -52
q0 -38 28.5 -65.5t69.5 -27.5t69 27z" />
    <glyph glyph-name="uni0648" unicode="&#x648;" horiz-adv-x="491" arabic-form="isolated" 
d="M441 -31q0 -71 -34 -111.5t-101.5 -64.5t-195.5 -50l-15 83q120 25 170.5 39.5t74.5 38.5t24 69q0 15 -1 24l-1 15q-64 -12 -131 -12q-48 0 -86 22.5t-59.5 62t-21.5 90.5t22 96t61.5 72.5t91.5 27.5q73 0 123 -56.5t60 -147.5l17 -162q2 -26 2 -36zM353 96l-6 60
q-7 62 -36 96.5t-73 34.5q-46 0 -71.5 -32.5t-25.5 -78.5q0 -42 24 -67t66 -25q68 0 122 12z" />
    <glyph glyph-name="uni0649" unicode="&#x649;" horiz-adv-x="697" arabic-form="isolated" 
d="M294 -246q-75 0 -130 33.5t-84.5 95t-29.5 144.5q0 94 38 201l72 -29q-34 -98 -34 -175q0 -88 43.5 -137t122.5 -49q32 0 71 9q87 20 138.5 46t51.5 46q0 11 -17.5 18.5t-71.5 24.5l-35 10q-65 21 -97.5 49t-32.5 81q0 30 12 70q12 41 40 82t71 69.5t97 28.5q27 0 54 -7
l65 -18l-19 -82l-65 18q-16 5 -37 5q-41 0 -69.5 -23t-44 -51t-19.5 -45q-6 -21 -6 -35q0 -27 19 -39t67 -26q69 -21 97.5 -31.5t45.5 -28t22 -48.5q1 -5 1 -16q0 -59 -66 -106.5t-184 -74.5q-44 -10 -86 -10z" />
    <glyph glyph-name="uni064A" unicode="&#x64a;" horiz-adv-x="697" arabic-form="isolated" 
d="M294 -246q-75 0 -130 33.5t-84.5 95t-29.5 144.5q0 94 38 201l72 -29q-34 -98 -34 -175q0 -88 43.5 -137t122.5 -49q32 0 71 9q87 20 138.5 46t51.5 46q0 11 -17.5 18.5t-71.5 24.5l-35 10q-65 21 -97.5 49t-32.5 81q0 30 12 70q12 41 40 82t71 69.5t97 28.5q27 0 54 -7
l65 -18l-19 -82l-65 18q-16 5 -37 5q-41 0 -69.5 -23t-44 -51t-19.5 -45q-6 -21 -6 -35q0 -27 19 -39t67 -26q69 -21 97.5 -31.5t45.5 -28t22 -48.5q1 -5 1 -16q0 -59 -66 -106.5t-184 -74.5q-44 -10 -86 -10z" />
    <glyph glyph-name="uni066E.init" unicode="&#x66e;" horiz-adv-x="309" 
d="M74 84q109 0 109 82q0 22 -7 46l-40 149l74 21l40 -149q9 -37 9 -68q0 -79 -53 -122t-132 -43h-79v84h79z" />
    <glyph glyph-name="uni066E.medi" unicode="&#x66e;" horiz-adv-x="309" 
d="M248 103q20 -19 66 -19v-84q-84 0 -126 49q-46 -49 -130 -49h-63v84h63q96 0 90 75v3l-11 123l76 7l11 -123v-2q4 -45 24 -64z" />
    <glyph glyph-name="uni066E.fina" unicode="&#x66e;" horiz-adv-x="951" 
d="M890 103q20 -19 66 -19v-84q-84 0 -126 49q-22 -24 -55.5 -36.5t-74.5 -12.5h-241v84h241q96 0 90 75v3l-11 123l76 7l11 -123v-2q4 -45 24 -64zM283.5 2.5q-58.5 2.5 -86.5 7.5t-54 17q-46 20 -69.5 58t-23.5 89q0 31 9 65l37 141l73 -22l-37 -144q-6 -24 -6 -42
q0 -24 11.5 -40.5t35.5 -27.5q18 -7 40 -11t79 -6.5t167 -2.5v-84q-117 0 -175.5 2.5z" />
    <glyph glyph-name="uni066F.fina" unicode="&#x66f;" horiz-adv-x="684" 
d="M293 -247q-113 0 -177.5 74t-64.5 199q0 94 37 202l72 -29q-34 -98 -34 -176q0 -88 43 -136.5t123 -48.5q32 0 71 9q70 15 112.5 30.5t65 40t19.5 62.5l-2 20h-129q-77 0 -122.5 47t-45.5 128q0 51 22 96t61.5 72.5t91.5 27.5q74 0 123 -56.5t60 -148.5l8 -82h62v-84h-53
l1 -24q1 -64 -25.5 -103.5t-81 -63.5t-150.5 -45q-49 -11 -87 -11zM543 157q-7 61 -35 95.5t-72 34.5q-46 0 -72 -32.5t-26 -78.5q0 -92 91 -92h122z" />
    <glyph glyph-name="uni0671" unicode="&#x671;" horiz-adv-x="295" arabic-form="isolated" 
d="M184 560l21 -559l-76 -4l-21 559zM281 755.5q25 -27.5 25 -67.5q0 -34 -26.5 -60.5t-61.5 -26.5h-140q-16 0 -25.5 -7t-26.5 -30l-34 26q21 29 37 41.5t37 14.5l35 47q33 46 57.5 68t59.5 22q38 0 63 -27.5zM252 659q15 13 15 31q0 21 -14 35t-35 14t-38 -14.5t-42 -49.5
l-22 -29h102q19 0 34 13z" />
    <glyph glyph-name="uni067E" unicode="&#x67e;" horiz-adv-x="918" arabic-form="isolated" 
d="M628.5 86.5q56.5 2.5 77.5 6t39 11.5q24 11 36 27t12 40t-8 51l-38 139l74 21l38 -139q10 -36 10 -70q0 -51 -24 -89t-70 -57q-25 -12 -53 -17t-86 -7.5t-176 -2.5v84q112 0 168.5 2.5zM283.5 2.5q-58.5 2.5 -86.5 7.5t-54 17q-46 20 -69.5 58t-23.5 89q0 31 9 65l37 141
l73 -22l-37 -144q-6 -24 -6 -42q0 -24 11.5 -40.5t35.5 -27.5q18 -7 40 -11t79 -6.5t167 -2.5v-84q-117 0 -175.5 2.5zM410 -262l54 53l53 -53l-53 -54zM315 -141l62 62l62 -62l-62 -62zM488 -141l62 62l62 -62l-62 -62z" />
    <glyph glyph-name="uni0686" unicode="&#x686;" horiz-adv-x="704" arabic-form="isolated" 
d="M624 -193l19 -82l-257 -71q-38 -9 -73 -9q-90 0 -160 52t-94 140q-9 33 -9 69q0 87 56.5 161t176.5 106l273 72l-221 117q-29 16 -60 16q-32 0 -60 -17t-46 -47l-18 -31l-66 41l19 34q30 51 74 78t95 27q49 0 99 -27l277 -154l-11 -98l-336 -93q-95 -25 -135.5 -75.5
t-40.5 -109.5q0 -17 6 -45q16 -59 66 -95t115 -36q29 0 56 7zM459 -60l-67 36l36 66l66 -35zM278 -4l67 -35l-35 -67l-68 36zM412 -172l-67 36l36 66l66 -35z" />
    <glyph glyph-name="uni0698" unicode="&#x698;" horiz-adv-x="341" arabic-form="isolated" 
d="M24 -169q69 18 104.5 32t57.5 39.5t22 68.5q0 8 -2 26l-40 287l75 12l40 -289q3 -23 3 -41q0 -67 -33.5 -109t-88 -66t-142.5 -48l-20 82zM138 561l54 53l53 -53l-53 -54zM43 439l62 62l62 -62l-62 -62zM216 439l62 62l62 -62l-62 -62z" />
    <glyph glyph-name="uni06A1.init" unicode="&#x6a1;" horiz-adv-x="463" 
d="M412 141q0 -52 -19 -82t-65.5 -44.5t-130.5 -14.5h-202v84h204q59 0 88.5 5t40.5 18t11 39q0 14 -1 22q-58 -9 -126 -9q-74 0 -117 43.5t-43 118.5q0 51 19.5 95.5t57.5 71.5t92 27q72 0 121 -54t56 -144l12 -137q2 -28 2 -39zM145.5 261.5q24.5 -24.5 66.5 -24.5
q59 0 119 10l-6 63q-7 61 -35.5 94.5t-71.5 33.5q-45 0 -71 -33t-26 -78q0 -41 24.5 -65.5z" />
    <glyph glyph-name="uni06A1.medi" unicode="&#x6a1;" horiz-adv-x="490" 
d="M495 84v-84h-58q-92 0 -189 38q-107 -38 -201 -38h-52v84h52q39 0 97 10q-33 25 -51 51t-16 49l6 58q7 67 56.5 110.5t115.5 43.5q52 0 91 -28t59 -72t17 -91l-3 -43q-3 -41 -64 -82q38 -6 82 -6h58zM181.5 157q24.5 -20 63.5 -36q88 31 98 60l4 35q3 25 -8 49.5
t-33.5 40.5t-53.5 16q-36 0 -63.5 -23.5t-31.5 -60.5l-4 -47q4 -14 28.5 -34z" />
    <glyph glyph-name="uni06A1.fina" unicode="&#x6a1;" horiz-adv-x="949" 
d="M954 84v-84h-58q-92 0 -188 38q-50 -18 -103 -28t-99 -10h-52q-115 0 -172.5 2.5t-85 7.5t-53.5 17q-46 20 -69.5 58t-23.5 89q0 31 9 65l37 141l73 -22l-37 -144q-6 -24 -6 -42q0 -24 11.5 -40.5t35.5 -27.5q18 -7 40 -11t79 -6.5t167 -2.5h47q39 0 97 10q-33 25 -51 51
t-16 49l6 58q8 67 57 110.5t115 43.5q52 0 91 -28t59 -72t17 -91l-3 -43q-3 -41 -64 -82q38 -6 82 -6h58zM642 156.5q25 -19.5 63 -35.5q89 31 97 60l4 35q3 25 -8 49.5t-33.5 40.5t-53.5 16q-36 0 -63.5 -23.5t-31.5 -60.5l-4 -47q5 -15 30 -34.5z" />
    <glyph glyph-name="uni06A4" unicode="&#x6a4;" horiz-adv-x="922" arabic-form="isolated" 
d="M871 141q0 -52 -19 -82t-65.5 -44.5t-130.5 -14.5h-202q-115 0 -172.5 2.5t-85 7.5t-53.5 17q-46 20 -69.5 58t-23.5 89q0 31 9 65l37 141l73 -22l-37 -144q-6 -24 -6 -42q0 -24 11.5 -40.5t35.5 -27.5q18 -7 40 -11t79 -6.5t167 -2.5h199q59 0 88.5 5t40.5 18t11 39
q0 14 -1 22q-58 -9 -126 -9q-74 0 -117 43.5t-43 118.5q0 51 19.5 95.5t57.5 71.5t92 27q72 0 121 -54t56 -144l12 -137q2 -28 2 -39zM604.5 261.5q24.5 -24.5 66.5 -24.5q59 0 119 10l-6 63q-7 61 -35.5 94.5t-71.5 33.5q-45 0 -71 -33t-26 -78q0 -41 24.5 -65.5zM628 748
l54 53l53 -53l-53 -54zM533 626l62 62l62 -62l-62 -62zM706 626l62 62l62 -62l-62 -62z" />
    <glyph glyph-name="uni06A9" unicode="&#x6a9;" horiz-adv-x="925" arabic-form="isolated" 
d="M775 236q31 -49 31 -98q0 -59 -40 -96q-39 -42 -105 -42h-206q-115 0 -172.5 2.5t-85.5 7.5t-54 17q-46 20 -69.5 58t-23.5 89q0 31 9 65l37 141l73 -22l-37 -144q-6 -24 -6 -42q0 -24 11.5 -40.5t35.5 -27.5q18 -7 40 -11t79 -6.5t167 -2.5h203q24 0 39 12q13 9 20.5 23
t7.5 29q0 18 -11 37l-223 315l17 64l362 133l26 -79l-310 -114z" />
    <glyph glyph-name="uni06AF" unicode="&#x6af;" horiz-adv-x="925" arabic-form="isolated" 
d="M775 236q31 -49 31 -98q0 -59 -40 -96q-39 -42 -105 -42h-206q-115 0 -172.5 2.5t-85.5 7.5t-54 17q-46 20 -69.5 58t-23.5 89q0 31 9 65l37 141l73 -22l-37 -144q-6 -24 -6 -42q0 -24 11.5 -40.5t35.5 -27.5q18 -7 40 -11t79 -6.5t167 -2.5h203q24 0 39 12q13 9 20.5 23
t7.5 29q0 18 -11 37l-223 315l17 64l362 133l26 -79l-310 -114zM766 799l19 -54l-243 -88l-20 54z" />
    <glyph glyph-name="uni06CC" unicode="&#x6cc;" horiz-adv-x="697" arabic-form="isolated" 
d="M294 -246q-75 0 -130 33.5t-84.5 95t-29.5 144.5q0 94 38 201l72 -29q-34 -98 -34 -175q0 -88 43.5 -137t122.5 -49q32 0 71 9q87 20 138.5 46t51.5 46q0 11 -17.5 18.5t-71.5 24.5l-35 10q-65 21 -97.5 49t-32.5 81q0 30 12 70q12 41 40 82t71 69.5t97 28.5q27 0 54 -7
l65 -18l-19 -82l-65 18q-16 5 -37 5q-41 0 -69.5 -23t-44 -51t-19.5 -45q-6 -21 -6 -35q0 -27 19 -39t67 -26q69 -21 97.5 -31.5t45.5 -28t22 -48.5q1 -5 1 -16q0 -59 -66 -106.5t-184 -74.5q-44 -10 -86 -10z" />
    <glyph glyph-name="uniFB51" unicode="&#x671;" horiz-adv-x="280" arabic-form="final" 
d="M173 19q-37 19 -54 61.5t-20 117.5l-14 358l76 4l14 -362q2 -51 9.5 -74t27.5 -31.5t63 -8.5h10v-84h-10q-65 0 -102 19zM285 765.5q25 -27.5 25 -67.5q0 -34 -26.5 -60.5t-61.5 -26.5h-140q-16 0 -25.5 -7t-26.5 -30l-34 26q21 29 37 41.5t37 14.5l35 47q33 46 57.5 68
t59.5 22q38 0 63 -27.5zM256 669q15 13 15 31q0 21 -14 35t-35 14t-38 -14.5t-42 -49.5l-22 -29h102q19 0 34 13z" />
    <glyph glyph-name="uniFB57" unicode="&#x67e;" horiz-adv-x="951" arabic-form="final" 
d="M890 103q20 -19 66 -19v-84q-84 0 -126 49q-22 -24 -55.5 -36.5t-74.5 -12.5h-241v84h241q96 0 90 75v3l-11 123l76 7l11 -123v-2q4 -45 24 -64zM283.5 2.5q-58.5 2.5 -86.5 7.5t-54 17q-46 20 -69.5 58t-23.5 89q0 31 9 65l37 141l73 -22l-37 -144q-6 -24 -6 -42
q0 -24 11.5 -40.5t35.5 -27.5q18 -7 40 -11t79 -6.5t167 -2.5v-84q-117 0 -175.5 2.5zM413 -264l54 53l53 -53l-53 -54zM318 -143l62 62l62 -62l-62 -62zM491 -143l62 62l62 -62l-62 -62z" />
    <glyph glyph-name="uniFB58" unicode="&#x67e;" horiz-adv-x="376" arabic-form="initial" 
d="M141 84q108 0 108 81q0 22 -7 47l-39 149l73 21l41 -153q9 -36 9 -65q0 -78 -53.5 -121t-131.5 -43h-146v84h146zM49 -262l54 53l53 -53l-53 -54zM-46 -141l62 62l62 -62l-62 -62zM127 -141l62 62l62 -62l-62 -62z" />
    <glyph glyph-name="uniFB59" unicode="&#x67e;" horiz-adv-x="399" arabic-form="medial" 
d="M338.5 101.5q19.5 -17.5 65.5 -17.5v-84q-83 0 -126 49q-22 -24 -55.5 -36.5t-74.5 -12.5h-153v84h153q96 0 90 75v3l-11 123l76 7l11 -123v-6q5 -44 24.5 -61.5zM107 -261l54 53l53 -53l-53 -54zM12 -140l62 62l62 -62l-62 -62zM185 -140l62 62l62 -62l-62 -62z" />
    <glyph glyph-name="uniFB6B" unicode="&#x6a4;" horiz-adv-x="949" arabic-form="final" 
d="M954 84v-84h-58q-92 0 -188 38q-50 -18 -103 -28t-99 -10h-52q-115 0 -172.5 2.5t-85 7.5t-53.5 17q-46 20 -69.5 58t-23.5 89q0 31 9 65l37 141l73 -22l-37 -144q-6 -24 -6 -42q0 -24 11.5 -40.5t35.5 -27.5q18 -7 40 -11t79 -6.5t167 -2.5h47q39 0 97 10q-33 25 -51 51
t-16 49l6 58q8 67 57 110.5t115 43.5q52 0 91 -28t59 -72t17 -91l-3 -43q-3 -41 -64 -82q38 -6 82 -6h58zM642 156.5q25 -19.5 63 -35.5q89 31 97 60l4 35q3 25 -8 49.5t-33.5 40.5t-53.5 16q-36 0 -63.5 -23.5t-31.5 -60.5l-4 -47q5 -15 30 -34.5zM660 644l54 53l53 -53
l-53 -54zM565 522l62 62l62 -62l-62 -62zM738 522l62 62l62 -62l-62 -62z" />
    <glyph glyph-name="uniFB6C" unicode="&#x6a4;" horiz-adv-x="463" arabic-form="initial" 
d="M218 687l-53 54l53 52l53 -52zM131 557l-61 62l61 62l62 -62zM243 619l61 62l62 -62l-62 -62zM412 141q0 -52 -19 -82t-65.5 -44.5t-130.5 -14.5h-202v84h204q59 0 88.5 5t40.5 18t11 39q0 14 -1 22q-58 -9 -126 -9q-74 0 -117 43.5t-43 118.5q0 51 19.5 95.5t57.5 71.5
t92 27q72 0 121 -54t56 -144l12 -137q2 -28 2 -39zM145.5 261.5q24.5 -24.5 66.5 -24.5q59 0 119 10l-6 63q-7 61 -35.5 94.5t-71.5 33.5q-45 0 -71 -33t-26 -78q0 -41 24.5 -65.5z" />
    <glyph glyph-name="uniFB6D" unicode="&#x6a4;" horiz-adv-x="490" arabic-form="medial" 
d="M251 582l-53 55l53 52l53 -52zM164 453l-61 61l61 62l62 -62zM276 514l62 62l62 -62l-62 -61zM495 84v-84h-58q-92 0 -189 38q-107 -38 -201 -38h-52v84h52q39 0 97 10q-33 25 -51 51t-16 49l6 58q7 67 56.5 110.5t115.5 43.5q52 0 91 -28t59 -72t17 -91l-3 -43
q-3 -41 -64 -82q38 -6 82 -6h58zM181.5 157q24.5 -20 63.5 -36q88 31 98 60l4 35q3 25 -8 49.5t-33.5 40.5t-53.5 16q-36 0 -63.5 -23.5t-31.5 -60.5l-4 -47q4 -14 28.5 -34z" />
    <glyph glyph-name="uniFB7B" unicode="&#x686;" horiz-adv-x="730" arabic-form="final" 
d="M735 84v-84h-37q-68 0 -119 41.5t-69 107.5l-208 -58q-95 -25 -135.5 -75.5t-40.5 -109.5q0 -17 6 -45q16 -59 66 -95t115 -36q29 0 56 7l255 70l19 -82l-257 -71q-38 -9 -73 -9q-90 0 -160 52t-94 140q-9 33 -9 69q0 87 56.5 161t176.5 106l273 72l-221 117
q-29 16 -60 16q-32 0 -60 -17t-46 -47l-18 -31l-66 41l19 34q30 51 74 78t95 27q49 0 99 -27l277 -154l-11 -98l-54 -15q11 -38 41.5 -61.5t72.5 -23.5h37zM437 -61l-67 37l36 66l66 -35zM256 -4l66 -35l-35 -67l-67 36zM390 -172l-68 36l36 66l67 -35z" />
    <glyph glyph-name="uniFB7C" unicode="&#x686;" horiz-adv-x="646" arabic-form="initial" 
d="M596 210l-12 -98l-293 -83q-70 -19 -135 -24t-156 -5h-5v84h5q89 0 149 4.5t123 22.5l235 63l-203 116q-27 17 -60 17q-31 0 -59.5 -17t-46.5 -48l-17 -31l-66 41l19 34q29 51 73.5 79t94.5 28q49 0 99 -29zM256 -260l54 53l53 -53l-53 -54zM161 -139l62 62l62 -62
l-62 -62zM334 -139l62 62l62 -62l-62 -62z" />
    <glyph glyph-name="uniFB7D" unicode="&#x686;" horiz-adv-x="674" arabic-form="medial" 
d="M679 84v-84h-65q-49 0 -89 28t-58 73l-177 -56q-145 -45 -290 -45h-5v84h5q134 2 268 42l240 70l-207 107q-31 17 -61 17q-31 0 -58.5 -17t-45.5 -48l-18 -32l-66 41l19 34q30 51 74 78t94 27q52 0 98 -26l258 -143l-12 -96l-41 -13q11 -18 30 -29.5t42 -11.5h65z
M259 -257l54 53l53 -53l-53 -54zM164 -136l62 62l62 -62l-62 -62zM337 -136l62 62l62 -62l-62 -62z" />
    <glyph glyph-name="uniFB8B" unicode="&#x698;" horiz-adv-x="398" arabic-form="final" 
d="M203 506l-54 55l54 52l53 -52zM116 377l-61 61l61 62l62 -62zM228 438l61 62l62 -62l-62 -61zM403 0h-72q-29 0 -50 6q3 -21 3 -41q0 -67 -33.5 -108.5t-88 -65.5t-142.5 -48l-20 82l24 6q69 18 104.5 32t57.5 39.5t22 68.5q0 8 -2 26l-40 287l75 12l5 -36v0v-3l7 -50
q8 -54 16.5 -79.5t22 -34.5t39.5 -9h72v-84z" />
    <glyph glyph-name="uniFB8F" unicode="&#x6a9;" horiz-adv-x="963" arabic-form="final" 
d="M968 84v-84h-14q-45 0 -83.5 21t-75.5 64q-11 -26 -30 -43q-37 -42 -105 -42h-206q-115 0 -172.5 2.5t-85 7.5t-53.5 17q-46 20 -69.5 58t-23.5 89q0 31 9 65l37 141l73 -22l-37 -144q-6 -24 -6 -42q0 -24 11.5 -40.5t35.5 -27.5q18 -7 40 -11t79 -6.5t167 -2.5h202
q24 0 40 12q27 18 27 52q0 21 -11 37l-223 315l17 64l362 133l27 -79l-311 -114l185 -268l6 -9v0q53 -82 90.5 -112.5t83.5 -30.5h14z" />
    <glyph glyph-name="uniFB90" unicode="&#x6a9;" horiz-adv-x="465" arabic-form="initial" 
d="M315 236q31 -49 31 -98q0 -59 -40 -96q-39 -42 -105 -42h-206v84h207q24 0 39 12q13 9 20.5 23t7.5 29q0 18 -11 37l-223 315l17 64l362 133l26 -79l-310 -114z" />
    <glyph glyph-name="uniFB91" unicode="&#x6a9;" horiz-adv-x="503" arabic-form="medial" 
d="M508 84v-84h-14q-45 0 -83.5 21t-74.5 64q-11 -26 -30 -43q-39 -42 -105 -42h-206v84h207q24 0 39 12q13 9 20.5 23t7.5 29q0 18 -11 37l-223 315l17 64l362 133l26 -79l-310 -114l185 -268l8 -13q52 -80 89 -109.5t82 -29.5h14z" />
    <glyph glyph-name="uniFB93" unicode="&#x6af;" horiz-adv-x="963" arabic-form="final" 
d="M968 84v-84h-14q-45 0 -83.5 21t-75.5 64q-11 -26 -30 -43q-37 -42 -105 -42h-206q-115 0 -172.5 2.5t-85 7.5t-53.5 17q-46 20 -69.5 58t-23.5 89q0 31 9 65l37 141l73 -22l-37 -144q-6 -24 -6 -42q0 -24 11.5 -40.5t35.5 -27.5q18 -7 40 -11t79 -6.5t167 -2.5h202
q24 0 40 12q27 18 27 52q0 21 -11 37l-223 315l17 64l362 133l27 -79l-311 -114l185 -268l6 -9v0q53 -82 90.5 -112.5t83.5 -30.5h14zM765 798l19 -54l-243 -88l-20 54z" />
    <glyph glyph-name="uniFB94" unicode="&#x6af;" horiz-adv-x="465" arabic-form="initial" 
d="M315 236q31 -49 31 -98q0 -59 -40 -96q-39 -42 -105 -42h-206v84h207q24 0 39 12q13 9 20.5 23t7.5 29q0 18 -11 37l-223 315l17 64l362 133l26 -79l-310 -114zM311 796l19 -54l-243 -88l-20 54z" />
    <glyph glyph-name="uniFB95" unicode="&#x6af;" horiz-adv-x="503" arabic-form="medial" 
d="M508 84v-84h-14q-45 0 -83.5 21t-74.5 64q-11 -26 -30 -43q-39 -42 -105 -42h-206v84h207q24 0 39 12q13 9 20.5 23t7.5 29q0 18 -11 37l-223 315l17 64l362 133l26 -79l-310 -114l185 -268l8 -13q52 -80 89 -109.5t82 -29.5h14zM311 796l19 -54l-243 -88l-20 54z" />
    <glyph glyph-name="uniFB9F" unicode="&#x6ba;" horiz-adv-x="703" arabic-form="final" 
d="M708 84v-84h-27q-34 0 -61 15q2 -14 2 -38q0 -66 -31 -107t-82 -64t-129 -42q-49 -11 -87 -11q-113 0 -177.5 74t-64.5 199q0 94 37 202l72 -29q-34 -98 -34 -176q0 -88 43 -136.5t123 -48.5q32 0 71 9q72 17 105.5 28.5t55.5 36t22 68.5q0 19 -2 30q-12 87 -26 177
l-12 84l-2 13l75 13l10 -71q9 -56 19.5 -86t27 -43t43.5 -13h29z" />
    <glyph glyph-name="uniFBFD" unicode="&#x6cc;" horiz-adv-x="679" arabic-form="final" 
d="M684 0q-37 0 -79 5q7 -13 8 -25q2 -20 2 -29q0 -77 -60 -118.5t-175 -68.5q-49 -11 -87 -11q-113 0 -177.5 74t-64.5 199q0 94 37 202l72 -29q-34 -98 -34 -175q0 -88 43.5 -137t123.5 -49q33 0 70 9q65 14 100 26t55.5 31.5t20.5 51.5q0 6 -2 22q-7 33 -114 73l-51 16
l24 81q15 -5 35 -10q96 -29 149 -41.5t104 -12.5v-84z" />
    <glyph glyph-name="uniFBFE" unicode="&#x6cc;" horiz-adv-x="376" arabic-form="initial" 
d="M141 84q108 0 108 81q0 22 -7 47l-39 149l73 21l41 -153q9 -36 9 -65q0 -78 -53.5 -121t-131.5 -43h-146v84h146zM-50 -144l62 62l62 -62l-62 -62zM124 -144l62 62l62 -62l-62 -62z" />
    <glyph glyph-name="uniFBFF" unicode="&#x6cc;" horiz-adv-x="399" arabic-form="medial" 
d="M338.5 101.5q19.5 -17.5 65.5 -17.5v-84q-83 0 -126 49q-22 -24 -55.5 -36.5t-74.5 -12.5h-153v84h153q96 0 90 75v3l-11 123l76 7l11 -123v-6q5 -44 24.5 -61.5zM16 -145l62 62l62 -62l-62 -62zM190 -145l62 62l62 -62l-62 -62z" />
    <glyph glyph-name="uniFDF2" unicode="&#xfdf2;" horiz-adv-x="1292" arabic-form="isolated" 
d="M665 881h-39v163h39v-163zM536 724.5q-21 20.5 -21 50.5q0 12 3 24l12 49l35 -10l-11 -45q-2 -8 -2 -12q0 -14 9.5 -22.5t28.5 -8.5q18 0 27 8.5t9 20.5l2 59h34l1 -59q0 -12 9.5 -20.5t27.5 -8.5q19 0 28.5 8t9.5 21q0 4 -2 12l-16 66l36 10l18 -68q4 -16 4 -24
q0 -30 -22 -50.5t-56 -20.5q-37 0 -55 25q-18 -25 -55 -25q-33 0 -54 20.5zM990 168q2 -42 -15 -80.5t-55 -63t-96 -24.5h-34q-36 0 -68 14t-56 41q-21 -25 -54 -40t-77 -15h-31q-51 0 -94.5 25t-70.5 67q-70 -10 -111 -18q-6 -1 -17 -1q-49 0 -93 33.5t-60 81.5
q-8 27 -8 51q0 53 31 98t81 62l147 49v45h76v-294q0 -48 34.5 -81.5t84.5 -33.5h31q54 0 73 24t17 56l-19 494l76 4l19 -494v-7q6 -42 30.5 -59.5t58.5 -17.5h34q54 0 73 24t17 56l-19 494l76 4zM1222 1l-75 -4l-26 661l76 4zM311 173q-2 18 -2 26v165l-123 -42
q-28 -10 -44 -31.5t-16 -47.5q0 -9 4 -25q8 -28 35 -46.5t57 -13.5q100 17 89 15z" />
    <glyph glyph-name="uniFDFC" unicode="&#xfdfc;" horiz-adv-x="1430" arabic-form="isolated" 
d="M619 18q3 -86 -27 -136t-81 -74.5t-132 -44.5q-44 -11 -89 -11q-74 0 -128 34t-83 96t-29 144q0 92 37 200l73 -28q-34 -98 -34 -175q0 -88 42.5 -138t120.5 -50q36 0 73 10l20 5q62 15 94 29t51 45.5t17 89.5l-25 644l75 4zM810 -22q-36 19 -53 61t-20 117l-18 460l76 4
l18 -464q2 -51 9.5 -74t27.5 -31.5t63 -8.5h75q109 0 109 81q0 22 -7 46l-40 149l73 22l40 -149q10 -36 10 -69q0 -78 -53 -121t-132 -43h-79q-63 1 -99 20zM1381 -33q0 -68 -33.5 -110t-88 -66t-143.5 -48l-19 82l24 6q69 18 104.5 32t57.5 39.5t22 68.5q0 8 -2 26l-40 287
l75 12l40 -289q3 -21 3 -40zM797 -141l62 -62l-62 -61l-61 61zM971 -141l62 -62l-62 -61l-62 61z" />
    <glyph glyph-name="uniFE82" unicode="&#x622;" horiz-adv-x="280" arabic-form="final" 
d="M173 19q-37 19 -54 61.5t-20 117.5l-14 358l76 4l14 -362q2 -51 9.5 -74t27.5 -31.5t63 -8.5h10v-84h-10q-65 0 -102 19zM22 659.5q22 22.5 58 22.5q7 0 21 -2l101 -19q5 -1 14 -1q19 0 29 10t10 27v6l41 3v-17q0 -37 -22 -59.5t-58 -22.5q-7 0 -21 2l-101 19q-5 1 -14 1
q-19 0 -29 -10t-10 -27v-6l-41 -3v17q0 37 22 59.5z" />
    <glyph glyph-name="uniFE84" unicode="&#x623;" horiz-adv-x="280" arabic-form="final" 
d="M173 19q-37 19 -54 61.5t-20 117.5l-14 358l76 4l14 -362q2 -51 9.5 -74t27.5 -31.5t63 -8.5h10v-84h-10q-65 0 -102 19zM178 644h-2l-160 -38l-9 43l83 20q-21 21 -27 50q-3 12 -3 24q0 40 28.5 68t70.5 28q27 0 75 -10l-8 -43q-46 9 -71 9q-24 0 -39.5 -16t-15.5 -38
q0 -24 16.5 -39.5t39.5 -15.5q5 0 13 2l101 24l10 -44z" />
    <glyph glyph-name="uniFE86" unicode="&#x624;" horiz-adv-x="487" arabic-form="final" 
d="M492 0h-52q1 -11 1 -32q0 -71 -34 -111t-101 -63.5t-196 -50.5l-15 83q120 25 171 39.5t75 38t24 66.5q0 7 -2 27v3h-131q-77 0 -122.5 47t-45.5 128q0 51 22 96t61.5 72.5t91.5 27.5q74 0 123.5 -56.5t59.5 -148.5l9 -82h61v-84zM354 84l-8 73q-7 61 -35 95.5t-72 34.5
q-46 0 -72 -32.5t-26 -78.5q0 -92 91 -92h122zM283 448h-2l-160 -38l-9 43l83 20q-21 21 -27 50q-3 12 -3 24q0 40 28.5 68t70.5 28q27 0 75 -10l-8 -43q-46 9 -71 9q-24 0 -39.5 -16t-15.5 -38q0 -24 16.5 -39.5t39.5 -15.5q5 0 13 2l101 24l10 -44z" />
    <glyph glyph-name="uniFE88" unicode="&#x625;" horiz-adv-x="271" arabic-form="final" 
d="M164 19q-37 19 -54 61.5t-20 117.5l-18 460l76 4l18 -464q2 -51 9.5 -74t27.5 -31.5t63 -8.5h10v-84h-10q-65 0 -102 19zM173 -235h-2l-160 -38l-9 43l83 20q-21 21 -27 50q-3 12 -3 24q0 40 28.5 68t70.5 28q27 0 75 -10l-8 -43q-46 9 -71 9q-24 0 -39.5 -16t-15.5 -38
q0 -24 16.5 -39.5t39.5 -15.5q5 0 13 2l101 24l10 -44z" />
    <glyph glyph-name="uniFE8A" unicode="&#x626;" horiz-adv-x="679" arabic-form="final" 
d="M684 0q-37 0 -79 5q7 -13 8 -25q2 -20 2 -29q0 -77 -60 -118.5t-175 -68.5q-49 -11 -87 -11q-113 0 -177.5 74t-64.5 199q0 94 37 202l72 -29q-34 -98 -34 -175q0 -88 43.5 -137t123.5 -49q33 0 70 9q65 14 100 26t55.5 31.5t20.5 51.5q0 6 -2 22q-7 33 -114 73l-51 16
l24 81q15 -5 35 -10q96 -29 149 -41.5t104 -12.5v-84zM383 251h-2l-160 -38l-9 43l83 20q-21 21 -27 50q-3 12 -3 24q0 40 28.5 68t70.5 28q27 0 75 -10l-8 -43q-46 9 -71 9q-24 0 -39.5 -16t-15.5 -38q0 -24 16.5 -39.5t39.5 -15.5q5 0 13 2l101 24l10 -44z" />
    <glyph glyph-name="uniFE8B" unicode="&#x626;" horiz-adv-x="309" arabic-form="initial" 
d="M74 84q109 0 109 82q0 22 -7 46l-40 149l74 21l40 -149q9 -37 9 -68q0 -79 -53 -122t-132 -43h-79v84h79zM183 467h-2l-160 -38l-9 43l83 20q-21 21 -27 50q-3 12 -3 24q0 40 28.5 68t70.5 28q27 0 75 -10l-8 -43q-46 9 -71 9q-24 0 -39.5 -16t-15.5 -38
q0 -24 16.5 -39.5t39.5 -15.5q5 0 13 2l101 24l10 -44z" />
    <glyph glyph-name="uniFE8C" unicode="&#x626;" horiz-adv-x="309" arabic-form="medial" 
d="M248 103q20 -19 66 -19v-84q-84 0 -126 49q-46 -49 -130 -49h-63v84h63q96 0 90 75v3l-11 123l76 7l11 -123v-2q4 -45 24 -64zM184 398h-2l-160 -38l-9 43l83 20q-21 21 -27 50q-3 12 -3 24q0 40 28.5 68t70.5 28q27 0 75 -10l-8 -43q-46 9 -71 9q-24 0 -39.5 -16
t-15.5 -38q0 -24 16.5 -39.5t39.5 -15.5q5 0 13 2l101 24l10 -44z" />
    <glyph glyph-name="uniFE8E" unicode="&#x627;" horiz-adv-x="271" arabic-form="final" 
d="M164 19q-37 19 -54 61.5t-20 117.5l-18 460l76 4l18 -464q2 -51 9.5 -74t27.5 -31.5t63 -8.5h10v-84h-10q-65 0 -102 19z" />
    <glyph glyph-name="uniFE90" unicode="&#x628;" horiz-adv-x="951" arabic-form="final" 
d="M890 103q20 -19 66 -19v-84q-84 0 -126 49q-22 -24 -55.5 -36.5t-74.5 -12.5h-241v84h241q96 0 90 75v3l-11 123l76 7l11 -123v-2q4 -45 24 -64zM283.5 2.5q-58.5 2.5 -86.5 7.5t-54 17q-46 20 -69.5 58t-23.5 89q0 31 9 65l37 141l73 -22l-37 -144q-6 -24 -6 -42
q0 -24 11.5 -40.5t35.5 -27.5q18 -7 40 -11t79 -6.5t167 -2.5v-84q-117 0 -175.5 2.5zM397 -141l69 70l70 -70l-70 -69z" />
    <glyph glyph-name="uniFE91" unicode="&#x628;" horiz-adv-x="309" arabic-form="initial" 
d="M74 84q109 0 109 82q0 22 -7 46l-40 149l74 21l40 -149q9 -37 9 -68q0 -79 -53 -122t-132 -43h-79v84h79zM-4 -142l69 70l70 -70l-70 -69z" />
    <glyph glyph-name="uniFE92" unicode="&#x628;" horiz-adv-x="309" arabic-form="medial" 
d="M248 103q20 -19 66 -19v-84q-84 0 -126 49q-46 -49 -130 -49h-63v84h63q96 0 90 75v3l-11 123l76 7l11 -123v-2q4 -45 24 -64zM50 -141l69 70l70 -70l-70 -69z" />
    <glyph glyph-name="uniFE94" unicode="&#x629;" horiz-adv-x="518" arabic-form="final" 
d="M523 84v-84h-19q-51 0 -94.5 25t-70.5 67q-70 -10 -111 -18q-6 -1 -17 -1q-49 0 -93 33.5t-60 81.5q-8 27 -8 51q0 53 31 98t81 62l147 49v45h76v-294q0 -48 34.5 -81.5t84.5 -33.5h19zM311 173q-2 18 -2 26v165l-123 -42q-28 -10 -44 -31.5t-16 -47.5q0 -9 4 -25
q8 -28 35 -46.5t57 -13.5q100 17 89 15zM103 590l62 62l62 -62l-62 -62zM277 590l62 62l62 -62l-62 -62z" />
    <glyph glyph-name="uniFE96" unicode="&#x62a;" horiz-adv-x="951" arabic-form="final" 
d="M890 103q20 -19 66 -19v-84q-84 0 -126 49q-22 -24 -55.5 -36.5t-74.5 -12.5h-241v84h241q96 0 90 75v3l-11 123l76 7l11 -123v-2q4 -45 24 -64zM283.5 2.5q-58.5 2.5 -86.5 7.5t-54 17q-46 20 -69.5 58t-23.5 89q0 31 9 65l37 141l73 -22l-37 -144q-6 -24 -6 -42
q0 -24 11.5 -40.5t35.5 -27.5q18 -7 40 -11t79 -6.5t167 -2.5v-84q-117 0 -175.5 2.5zM315 389l62 62l62 -62l-62 -62zM489 389l62 62l62 -62l-62 -62z" />
    <glyph glyph-name="uniFE97" unicode="&#x62a;" horiz-adv-x="376" arabic-form="initial" 
d="M141 84q108 0 108 81q0 22 -7 47l-39 149l73 21l41 -153q9 -36 9 -65q0 -78 -53.5 -121t-131.5 -43h-146v84h146zM62 520l62 62l62 -62l-62 -62zM236 520l62 62l62 -62l-62 -62z" />
    <glyph glyph-name="uniFE98" unicode="&#x62a;" horiz-adv-x="399" arabic-form="medial" 
d="M338.5 101.5q19.5 -17.5 65.5 -17.5v-84q-83 0 -126 49q-22 -24 -55.5 -36.5t-74.5 -12.5h-153v84h153q96 0 90 75v3l-11 123l76 7l11 -123v-6q5 -44 24.5 -61.5zM45 445l62 62l62 -62l-62 -62zM219 445l62 62l62 -62l-62 -62z" />
    <glyph glyph-name="uniFE9A" unicode="&#x62b;" horiz-adv-x="951" arabic-form="final" 
d="M890 103q20 -19 66 -19v-84q-84 0 -126 49q-22 -24 -55.5 -36.5t-74.5 -12.5h-241v84h241q96 0 90 75v3l-11 123l76 7l11 -123v-2q4 -45 24 -64zM283.5 2.5q-58.5 2.5 -86.5 7.5t-54 17q-46 20 -69.5 58t-23.5 89q0 31 9 65l37 141l73 -22l-37 -144q-6 -24 -6 -42
q0 -24 11.5 -40.5t35.5 -27.5q18 -7 40 -11t79 -6.5t167 -2.5v-84q-117 0 -175.5 2.5zM410 484l54 53l53 -53l-53 -54zM315 362l62 62l62 -62l-62 -62zM488 362l62 62l62 -62l-62 -62z" />
    <glyph glyph-name="uniFE9B" unicode="&#x62b;" horiz-adv-x="376" arabic-form="initial" 
d="M141 84q108 0 108 81q0 22 -7 47l-39 149l73 21l41 -153q9 -36 9 -65q0 -78 -53.5 -121t-131.5 -43h-146v84h146zM126 641l54 53l53 -53l-53 -54zM31 519l62 62l62 -62l-62 -62zM204 519l62 62l62 -62l-62 -62z" />
    <glyph glyph-name="uniFE9C" unicode="&#x62b;" horiz-adv-x="399" arabic-form="medial" 
d="M338.5 101.5q19.5 -17.5 65.5 -17.5v-84q-83 0 -126 49q-22 -24 -55.5 -36.5t-74.5 -12.5h-153v84h153q96 0 90 75v3l-11 123l76 7l11 -123v-6q5 -44 24.5 -61.5zM125 567l54 53l53 -53l-53 -54zM30 445l62 62l62 -62l-62 -62zM203 445l62 62l62 -62l-62 -62z" />
    <glyph glyph-name="uniFE9E" unicode="&#x62c;" horiz-adv-x="730" arabic-form="final" 
d="M735 84v-84h-37q-68 0 -119 41.5t-69 107.5l-208 -58q-95 -25 -135.5 -75.5t-40.5 -109.5q0 -17 6 -45q16 -59 66 -95t115 -36q29 0 56 7l255 70l19 -82l-257 -71q-38 -9 -73 -9q-90 0 -160 52t-94 140q-9 33 -9 69q0 87 56.5 161t176.5 106l273 72l-221 117
q-29 16 -60 16q-32 0 -60 -17t-46 -47l-18 -31l-66 41l19 34q30 51 74 78t95 27q49 0 99 -27l277 -154l-11 -98l-54 -15q11 -38 41.5 -61.5t72.5 -23.5h37zM304 -77l69 70l70 -70l-70 -69z" />
    <glyph glyph-name="uniFE9F" unicode="&#x62c;" horiz-adv-x="646" arabic-form="initial" 
d="M596 210l-12 -98l-293 -83q-70 -19 -135 -24t-156 -5h-5v84h5q89 0 149 4.5t123 22.5l235 63l-203 116q-27 17 -60 17q-31 0 -59.5 -17t-46.5 -48l-17 -31l-66 41l19 34q29 51 73.5 79t94.5 28q49 0 99 -29zM236 -135l69 70l70 -70l-70 -69z" />
    <glyph glyph-name="uniFEA0" unicode="&#x62c;" horiz-adv-x="674" arabic-form="medial" 
d="M679 84v-84h-65q-49 0 -89 28t-58 73l-177 -56q-145 -45 -290 -45h-5v84h5q134 2 268 42l240 70l-207 107q-31 17 -61 17q-31 0 -58.5 -17t-45.5 -48l-18 -32l-66 41l19 34q30 51 74 78t94 27q52 0 98 -26l258 -143l-12 -96l-41 -13q11 -18 30 -29.5t42 -11.5h65z
M236 -135l69 70l70 -70l-70 -69z" />
    <glyph glyph-name="uniFEA2" unicode="&#x62d;" horiz-adv-x="730" arabic-form="final" 
d="M735 84v-84h-37q-68 0 -119 41.5t-69 107.5l-208 -58q-95 -25 -135.5 -75.5t-40.5 -109.5q0 -17 6 -45q16 -59 66 -95t115 -36q29 0 56 7l255 70l19 -82l-257 -71q-38 -9 -73 -9q-90 0 -160 52t-94 140q-9 33 -9 69q0 87 56.5 161t176.5 106l273 72l-221 117
q-29 16 -60 16q-32 0 -60 -17t-46 -47l-18 -31l-66 41l19 34q30 51 74 78t95 27q49 0 99 -27l277 -154l-11 -98l-54 -15q11 -38 41.5 -61.5t72.5 -23.5h37z" />
    <glyph glyph-name="uniFEA3" unicode="&#x62d;" horiz-adv-x="646" arabic-form="initial" 
d="M596 210l-12 -98l-293 -83q-70 -19 -135 -24t-156 -5h-5v84h5q89 0 149 4.5t123 22.5l235 63l-203 116q-27 17 -60 17q-31 0 -59.5 -17t-46.5 -48l-17 -31l-66 41l19 34q29 51 73.5 79t94.5 28q49 0 99 -29z" />
    <glyph glyph-name="uniFEA4" unicode="&#x62d;" horiz-adv-x="674" arabic-form="medial" 
d="M679 84v-84h-65q-49 0 -89 28t-58 73l-177 -56q-145 -45 -290 -45h-5v84h5q134 2 268 42l240 70l-207 107q-31 17 -61 17q-31 0 -58.5 -17t-45.5 -48l-18 -32l-66 41l19 34q30 51 74 78t94 27q52 0 98 -26l258 -143l-12 -96l-41 -13q11 -18 30 -29.5t42 -11.5h65z" />
    <glyph glyph-name="uniFEA6" unicode="&#x62e;" horiz-adv-x="730" arabic-form="final" 
d="M735 84v-84h-37q-68 0 -119 41.5t-69 107.5l-208 -58q-95 -25 -135.5 -75.5t-40.5 -109.5q0 -17 6 -45q16 -59 66 -95t115 -36q29 0 56 7l255 70l19 -82l-257 -71q-38 -9 -73 -9q-90 0 -160 52t-94 140q-9 33 -9 69q0 87 56.5 161t176.5 106l273 72l-221 117
q-29 16 -60 16q-32 0 -60 -17t-46 -47l-18 -31l-66 41l19 34q30 51 74 78t95 27q49 0 99 -27l277 -154l-11 -98l-54 -15q11 -38 41.5 -61.5t72.5 -23.5h37zM203 591l69 70l70 -70l-70 -69z" />
    <glyph glyph-name="uniFEA7" unicode="&#x62e;" horiz-adv-x="646" arabic-form="initial" 
d="M596 210l-12 -98l-293 -83q-70 -19 -135 -24t-156 -5h-5v84h5q89 0 149 4.5t123 22.5l235 63l-203 116q-27 17 -60 17q-31 0 -59.5 -17t-46.5 -48l-17 -31l-66 41l19 34q29 51 73.5 79t94.5 28q49 0 99 -29zM172 540l69 70l70 -70l-70 -69z" />
    <glyph glyph-name="uniFEA8" unicode="&#x62e;" horiz-adv-x="674" arabic-form="medial" 
d="M679 84v-84h-65q-49 0 -89 28t-58 73l-177 -56q-145 -45 -290 -45h-5v84h5q134 2 268 42l240 70l-207 107q-31 17 -61 17q-31 0 -58.5 -17t-45.5 -48l-18 -32l-66 41l19 34q30 51 74 78t94 27q52 0 98 -26l258 -143l-12 -96l-41 -13q11 -18 30 -29.5t42 -11.5h65z
M171 540l69 70l70 -70l-70 -69z" />
    <glyph glyph-name="uniFEAA" unicode="&#x62f;" horiz-adv-x="585" arabic-form="final" 
d="M590 84v-84h-49q-67 0 -108 56q-48 -56 -159 -56h-39q-74 0 -117.5 29.5t-48.5 77.5q-5 21 -5 66h70q0 -31 4 -50q4 -21 24.5 -30t60.5 -9h61q105 0 105 63q0 8 -4 26v1l-75 294l74 20l75 -295q10 -39 18.5 -60.5t23.5 -35t40 -13.5h49z" />
    <glyph glyph-name="uniFEAC" unicode="&#x630;" horiz-adv-x="585" arabic-form="final" 
d="M590 84v-84h-49q-67 0 -108 56q-48 -56 -159 -56h-39q-74 0 -117.5 29.5t-48.5 77.5q-5 21 -5 66h70q0 -31 4 -50q4 -21 24.5 -30t60.5 -9h61q105 0 105 63q0 8 -4 26v1l-75 294l74 20l75 -295q10 -39 18.5 -60.5t23.5 -35t40 -13.5h49zM263 613l69 70l70 -70l-70 -69z
" />
    <glyph glyph-name="uniFEAE" unicode="&#x631;" horiz-adv-x="333" arabic-form="final" 
d="M338 84v-84h-7q-29 0 -50 6q3 -21 3 -41q0 -67 -33.5 -108.5t-88 -65.5t-142.5 -48l-20 82l24 6q69 18 104.5 32t57.5 39.5t22 68.5q0 8 -2 26l-40 287l75 12l5 -36v0v-3l7 -50q8 -54 16.5 -79.5t22 -34.5t39.5 -9h7z" />
    <glyph glyph-name="uniFEB0" unicode="&#x632;" horiz-adv-x="333" arabic-form="final" 
d="M338 84v-84h-7q-29 0 -50 6q3 -21 3 -41q0 -67 -33.5 -108.5t-88 -65.5t-142.5 -48l-20 82l24 6q69 18 104.5 32t57.5 39.5t22 68.5q0 8 -2 26l-40 287l75 12l5 -36v0v-3l7 -50q8 -54 16.5 -79.5t22 -34.5t39.5 -9h7zM121 458l69 70l70 -70l-70 -69z" />
    <glyph glyph-name="uniFEB2" unicode="&#x633;" horiz-adv-x="1245" arabic-form="final" 
d="M1170 112q35 -28 80 -28v-84q-43 0 -80 18t-64 50q-20 -31 -55.5 -49.5t-82.5 -18.5q-43 0 -75 15.5t-51 42.5q-46 -58 -124 -58q-58 0 -101 35l2 -13q3 -24 3 -45q0 -66 -31 -107.5t-82 -64t-129 -41.5q-49 -11 -87 -11q-113 0 -177.5 74t-64.5 199q0 94 37 202l72 -29
q-34 -98 -34 -176q0 -88 43 -136.5t123 -48.5q32 0 71 9q72 17 105.5 28.5t55.5 36t22 68.5q0 19 -2 30l-40 274l75 13l17 -112q11 -54 39.5 -77t79.5 -23q91 0 91 80v124h71v-124q0 -29 16.5 -54t69.5 -25q48 0 70.5 17.5t22.5 45.5q0 11 -3 21l-33 123l69 20l33 -123l1 -5
q12 -45 47 -73z" />
    <glyph glyph-name="uniFEB3" unicode="&#x633;" horiz-adv-x="752" arabic-form="initial" 
d="M702 163q0 -51 -23 -88t-61 -56t-83 -19q-38 0 -69 14.5t-52 40.5q-43 -55 -125 -55q-38 0 -69 15t-52 41q-44 -56 -126 -56h-47v84h47q90 0 90 81v124h71v-124v-6q0 -34 22.5 -54.5t63.5 -20.5q86 0 90 73v8v124h71v-124v-8q1 -34 23 -53.5t62 -19.5t65.5 18.5
t25.5 61.5q0 23 -7 48l-40 149l73 21l40 -149q10 -36 10 -70z" />
    <glyph glyph-name="uniFEB4" unicode="&#x633;" horiz-adv-x="794" arabic-form="medial" 
d="M719 112q35 -28 80 -28v-84q-43 0 -80 18t-64 50q-20 -31 -55.5 -49.5t-82.5 -18.5q-77 0 -123 61q-44 -61 -130 -61q-76 0 -119 61q-45 -61 -128 -61h-22v84h22q91 0 91 81v124h71v-124q3 -28 18 -54.5t67 -26.5q54 0 72.5 23.5t18.5 57.5v124h71v-124q0 -21 16.5 -50
t69.5 -29q48 0 70.5 17.5t22.5 45.5q0 11 -3 21l-33 123l69 20l33 -123l1 -5q12 -45 47 -73z" />
    <glyph glyph-name="uniFEB6" unicode="&#x634;" horiz-adv-x="1245" arabic-form="final" 
d="M1170 112q35 -28 80 -28v-84q-43 0 -80 18t-64 50q-20 -31 -55.5 -49.5t-82.5 -18.5q-43 0 -75 15.5t-51 42.5q-46 -58 -124 -58q-58 0 -101 35l2 -13q3 -24 3 -45q0 -66 -31 -107.5t-82 -64t-129 -41.5q-49 -11 -87 -11q-113 0 -177.5 74t-64.5 199q0 94 37 202l72 -29
q-34 -98 -34 -176q0 -88 43 -136.5t123 -48.5q32 0 71 9q72 17 105.5 28.5t55.5 36t22 68.5q0 19 -2 30l-40 274l75 13l17 -112q11 -54 39.5 -77t79.5 -23q91 0 91 80v124h71v-124q0 -29 16.5 -54t69.5 -25q48 0 70.5 17.5t22.5 45.5q0 11 -3 21l-33 123l69 20l33 -123l1 -5
q12 -45 47 -73zM788 575l54 53l53 -53l-53 -54zM693 453l62 62l62 -62l-62 -62zM866 453l62 62l62 -62l-62 -62z" />
    <glyph glyph-name="uniFEB7" unicode="&#x634;" horiz-adv-x="752" arabic-form="initial" 
d="M702 163q0 -51 -23 -88t-61 -56t-83 -19q-38 0 -69 14.5t-52 40.5q-43 -55 -125 -55q-38 0 -69 15t-52 41q-44 -56 -126 -56h-47v84h47q90 0 90 81v124h71v-124v-6q0 -34 22.5 -54.5t63.5 -20.5q86 0 90 73v8v124h71v-124v-8q1 -34 23 -53.5t62 -19.5t65.5 18.5
t25.5 61.5q0 23 -7 48l-40 149l73 21l40 -149q10 -36 10 -70zM360 576l54 53l53 -53l-53 -54zM265 454l62 62l62 -62l-62 -62zM438 454l62 62l62 -62l-62 -62z" />
    <glyph glyph-name="uniFEB8" unicode="&#x634;" horiz-adv-x="794" arabic-form="medial" 
d="M719 112q35 -28 80 -28v-84q-43 0 -80 18t-64 50q-20 -31 -55.5 -49.5t-82.5 -18.5q-77 0 -123 61q-44 -61 -130 -61q-76 0 -119 61q-45 -61 -128 -61h-22v84h22q91 0 91 81v124h71v-124q3 -28 18 -54.5t67 -26.5q54 0 72.5 23.5t18.5 57.5v124h71v-124q0 -21 16.5 -50
t69.5 -29q48 0 70.5 17.5t22.5 45.5q0 11 -3 21l-33 123l69 20l33 -123l1 -5q12 -45 47 -73zM341 562l54 53l53 -53l-53 -54zM246 440l62 62l62 -62l-62 -62zM419 440l62 62l62 -62l-62 -62z" />
    <glyph glyph-name="uniFEBA" unicode="&#x635;" horiz-adv-x="1263" arabic-form="final" 
d="M1268 84v-84h-14q-40 0 -72 14.5t-53 31.5q-24 -22 -55 -34t-64 -12h-308h-21q-34 0 -61 15q2 -14 2 -38q0 -66 -31 -107t-82 -64t-129 -42q-49 -11 -87 -11q-113 0 -177.5 74t-64.5 199q0 94 37 202l72 -29q-34 -98 -34 -176q0 -88 43 -136.5t123 -48.5q32 0 71 9
q72 17 105.5 28.5t55.5 36t22 68.5q0 19 -2 30q-12 87 -26 177l-12 84l-2 13l75 13l10 -71q9 -56 19.5 -86t27 -43t43.5 -13h23h3l72 99q49 69 81 106.5t69 59.5t83 22q51 0 92.5 -25.5t65 -69.5t23.5 -98q0 -35 -14 -68q12 -10 31.5 -18t45.5 -8h14zM1061.5 97.5
q24.5 13.5 39.5 35.5t15 45q0 47 -30 78t-76 31q-30 0 -55.5 -16t-50 -46t-64.5 -89l-38 -52h208q27 0 51.5 13.5z" />
    <glyph glyph-name="uniFEBB" unicode="&#x635;" horiz-adv-x="772" arabic-form="initial" 
d="M633.5 345.5q41.5 -25.5 65 -69.5t23.5 -98q0 -47 -25 -88t-66.5 -65.5t-89.5 -24.5h-308q-31 0 -56.5 13t-42.5 36q-47 -47 -134 -49h-5v84h5q48 1 74.5 20.5t30.5 63.5l11 124l76 -7l-11 -123v-3q-3 -36 11 -55.5t41 -19.5h2l73 99q49 70 80.5 107t68.5 59t84 22
q51 0 92.5 -25.5zM592 97.5q24 13.5 39 35.5t15 45q0 47 -29.5 78t-75.5 31q-31 0 -56 -16t-49 -45.5t-66 -89.5l-38 -52h209q27 0 51 13.5z" />
    <glyph glyph-name="uniFEBC" unicode="&#x635;" horiz-adv-x="793" arabic-form="medial" 
d="M798 84v-84h-14q-39 0 -71.5 14t-53.5 31q-24 -21 -54.5 -33t-63.5 -12h-308q-31 0 -56.5 13t-42.5 36q-47 -47 -134 -49h-5v84h5q48 1 74.5 20.5t30.5 63.5l11 124l76 -7l-11 -123v-3q-3 -36 11 -55.5t41 -19.5h2l73 99q49 70 80.5 107t68.5 59t84 22q51 0 92.5 -25.5
t65 -69.5t23.5 -98q0 -36 -15 -68q12 -10 32 -18t45 -8h14zM592 97.5q24 13.5 39 35.5t15 45q0 47 -29.5 78t-75.5 31q-31 0 -56 -16t-49 -45.5t-66 -89.5l-38 -52h209q27 0 51 13.5z" />
    <glyph glyph-name="uniFEBE" unicode="&#x636;" horiz-adv-x="1263" arabic-form="final" 
d="M1268 84v-84h-14q-40 0 -72 14.5t-53 31.5q-24 -22 -55 -34t-64 -12h-308h-21q-34 0 -61 15q2 -14 2 -38q0 -66 -31 -107t-82 -64t-129 -42q-49 -11 -87 -11q-113 0 -177.5 74t-64.5 199q0 94 37 202l72 -29q-34 -98 -34 -176q0 -88 43 -136.5t123 -48.5q32 0 71 9
q72 17 105.5 28.5t55.5 36t22 68.5q0 19 -2 30q-12 87 -26 177l-12 84l-2 13l75 13l10 -71q9 -56 19.5 -86t27 -43t43.5 -13h23h3l72 99q49 69 81 106.5t69 59.5t83 22q51 0 92.5 -25.5t65 -69.5t23.5 -98q0 -35 -14 -68q12 -10 31.5 -18t45.5 -8h14zM1061.5 97.5
q24.5 13.5 39.5 35.5t15 45q0 47 -30 78t-76 31q-30 0 -55.5 -16t-50 -46t-64.5 -89l-38 -52h208q27 0 51.5 13.5zM924 524l69 70l70 -70l-70 -69z" />
    <glyph glyph-name="uniFEBF" unicode="&#x636;" horiz-adv-x="772" arabic-form="initial" 
d="M633.5 345.5q41.5 -25.5 65 -69.5t23.5 -98q0 -47 -25 -88t-66.5 -65.5t-89.5 -24.5h-308q-31 0 -56.5 13t-42.5 36q-47 -47 -134 -49h-5v84h5q48 1 74.5 20.5t30.5 63.5l11 124l76 -7l-11 -123v-3q-3 -36 11 -55.5t41 -19.5h2l73 99q49 70 80.5 107t68.5 59t84 22
q51 0 92.5 -25.5zM592 97.5q24 13.5 39 35.5t15 45q0 47 -29.5 78t-75.5 31q-31 0 -56 -16t-49 -45.5t-66 -89.5l-38 -52h209q27 0 51 13.5zM457 505l69 70l70 -70l-70 -69z" />
    <glyph glyph-name="uniFEC0" unicode="&#x636;" horiz-adv-x="793" arabic-form="medial" 
d="M798 84v-84h-14q-39 0 -71.5 14t-53.5 31q-24 -21 -54.5 -33t-63.5 -12h-308q-31 0 -56.5 13t-42.5 36q-47 -47 -134 -49h-5v84h5q48 1 74.5 20.5t30.5 63.5l11 124l76 -7l-11 -123v-3q-3 -36 11 -55.5t41 -19.5h2l73 99q49 70 80.5 107t68.5 59t84 22q51 0 92.5 -25.5
t65 -69.5t23.5 -98q0 -36 -15 -68q12 -10 32 -18t45 -8h14zM592 97.5q24 13.5 39 35.5t15 45q0 47 -29.5 78t-75.5 31q-31 0 -56 -16t-49 -45.5t-66 -89.5l-38 -52h209q27 0 51 13.5zM447 511l69 70l70 -70l-70 -69z" />
    <glyph glyph-name="uniFEC2" unicode="&#x637;" horiz-adv-x="683" arabic-form="final" 
d="M688 84v-84h-14q-60 0 -115 38q-49 -38 -109 -38h-400v84h94l32 43l-21 531l76 4l17 -436q55 76 99 110.5t103 34.5q51 0 92.5 -25.5t65 -69.5t23.5 -98q0 -41 -20 -78q30 -16 63 -16h14zM501 97.5q24 13.5 39 35.5t15 45q0 47 -29.5 78t-75.5 31q-31 0 -56 -16
t-49 -45.5t-66 -89.5l-38 -52h209q27 0 51 13.5z" />
    <glyph glyph-name="uniFEC3" unicode="&#x637;" horiz-adv-x="626" arabic-form="initial" 
d="M487.5 345.5q41.5 -25.5 65 -69.5t23.5 -98q0 -47 -25 -88t-66.5 -65.5t-89.5 -24.5h-400v84h94l32 43l-21 531l76 4l17 -436q55 76 99 110.5t103 34.5q51 0 92.5 -25.5zM446 97.5q24 13.5 39 35.5t15 45q0 47 -29.5 78t-75.5 31q-31 0 -56 -16t-49 -45.5t-66 -89.5
l-38 -52h209q27 0 51 13.5z" />
    <glyph glyph-name="uniFEC4" unicode="&#x637;" horiz-adv-x="647" arabic-form="medial" 
d="M652 84v-84h-14q-39 0 -71.5 14t-53.5 31q-24 -21 -54.5 -33t-63.5 -12h-400v84h94l32 43l-21 531l76 4l17 -436q55 76 99 110.5t103 34.5q51 0 92.5 -25.5t65 -69.5t23.5 -98q0 -36 -15 -68q12 -10 32 -18t45 -8h14zM446 97.5q24 13.5 39 35.5t15 45q0 47 -29.5 78
t-75.5 31q-31 0 -56 -16t-49 -45.5t-66 -89.5l-38 -52h209q27 0 51 13.5z" />
    <glyph glyph-name="uniFEC6" unicode="&#x638;" horiz-adv-x="683" arabic-form="final" 
d="M688 84v-84h-14q-60 0 -115 38q-49 -38 -109 -38h-400v84h94l32 43l-21 531l76 4l17 -436q55 76 99 110.5t103 34.5q51 0 92.5 -25.5t65 -69.5t23.5 -98q0 -41 -20 -78q30 -16 63 -16h14zM501 97.5q24 13.5 39 35.5t15 45q0 47 -29.5 78t-75.5 31q-31 0 -56 -16
t-49 -45.5t-66 -89.5l-38 -52h209q27 0 51 13.5zM388 550l69 70l70 -70l-70 -69z" />
    <glyph glyph-name="uniFEC7" unicode="&#x638;" horiz-adv-x="626" arabic-form="initial" 
d="M487.5 345.5q41.5 -25.5 65 -69.5t23.5 -98q0 -47 -25 -88t-66.5 -65.5t-89.5 -24.5h-400v84h94l32 43l-21 531l76 4l17 -436q55 76 99 110.5t103 34.5q51 0 92.5 -25.5zM446 97.5q24 13.5 39 35.5t15 45q0 47 -29.5 78t-75.5 31q-31 0 -56 -16t-49 -45.5t-66 -89.5
l-38 -52h209q27 0 51 13.5zM322 550l69 70l70 -70l-70 -69z" />
    <glyph glyph-name="uniFEC8" unicode="&#x638;" horiz-adv-x="647" arabic-form="medial" 
d="M652 84v-84h-14q-39 0 -71.5 14t-53.5 31q-24 -21 -54.5 -33t-63.5 -12h-400v84h94l32 43l-21 531l76 4l17 -436q55 76 99 110.5t103 34.5q51 0 92.5 -25.5t65 -69.5t23.5 -98q0 -36 -15 -68q12 -10 32 -18t45 -8h14zM446 97.5q24 13.5 39 35.5t15 45q0 47 -29.5 78
t-75.5 31q-31 0 -56 -16t-49 -45.5t-66 -89.5l-38 -52h209q27 0 51 13.5zM319 550l69 70l70 -70l-70 -69z" />
    <glyph glyph-name="uniFECA" unicode="&#x639;" horiz-adv-x="596" arabic-form="final" 
d="M167.5 36q-40.5 -38 -40.5 -92q0 -38 20 -70t53.5 -49.5t72.5 -14.5l293 25l6 -84l-294 -25l-16 -1q-57 0 -106 30t-77.5 81.5t-28.5 112.5q0 75 48.5 125.5t137.5 85.5l-127 168l20 67l243 36q6 1 17 1q35 0 64 -19t45.5 -49.5t16.5 -64.5q0 -31 -15 -58
q-39 -78 -140 -113l13 -17q13 -18 59.5 -22.5t168.5 -4.5v-84h-30q-88 0 -132 3t-75 16t-52 41l-31 42q-73 -28 -113.5 -66zM315 186l4 1q105 31 124 104q4 9 4 21q0 21 -15 33.5t-36 9.5q-53 -6 -141 -18l-51 -7z" />
    <glyph glyph-name="uniFECB" unicode="&#x639;" horiz-adv-x="530" arabic-form="initial" 
d="M309 12l-25 -3q-77 -7 -278 -9h-11v84h11l124 3q-22 33 -29 72q-3 18 -3 35q0 67 41 118t106 62q14 2 24 2q54 0 141 -23l-20 -82q-91 25 -127 20q-40 -5 -65 -32.5t-25 -64.5q0 -30 16 -54t42 -36t55 -9l9 1l171 32l14 -83z" />
    <glyph glyph-name="uniFECC" unicode="&#x639;" horiz-adv-x="511" arabic-form="medial" 
d="M516 0q-122 0 -180.5 6.5t-97.5 33.5q-56 -19 -115.5 -29.5t-109.5 -10.5h-18v84h18q93 0 170 16l-127 169l21 66l243 35q6 1 18 1q35 0 63.5 -18t45 -48t16.5 -64q0 -27 -10 -51q-23 -57 -104 -102q39 -4 167 -4v-84zM264 122q51 18 84 46t44 64q4 8 4 19
q0 20 -15.5 33.5t-36.5 10.5l-193 -25z" />
    <glyph glyph-name="uniFECE" unicode="&#x63a;" horiz-adv-x="596" arabic-form="final" 
d="M167.5 36q-40.5 -38 -40.5 -92q0 -38 20 -70t53.5 -49.5t72.5 -14.5l293 25l6 -84l-294 -25l-16 -1q-57 0 -106 30t-77.5 81.5t-28.5 112.5q0 75 48.5 125.5t137.5 85.5l-127 168l20 67l243 36q6 1 17 1q35 0 64 -19t45.5 -49.5t16.5 -64.5q0 -31 -15 -58
q-39 -78 -140 -113l13 -17q13 -18 59.5 -22.5t168.5 -4.5v-84h-30q-88 0 -132 3t-75 16t-52 41l-31 42q-73 -28 -113.5 -66zM315 186l4 1q105 31 124 104q4 9 4 21q0 21 -15 33.5t-36 9.5q-53 -6 -141 -18l-51 -7zM244 553l69 70l70 -70l-70 -69z" />
    <glyph glyph-name="uniFECF" unicode="&#x63a;" horiz-adv-x="530" arabic-form="initial" 
d="M309 12l-25 -3q-77 -7 -278 -9h-11v84h11l124 3q-22 33 -29 72q-3 18 -3 35q0 67 41 118t106 62q14 2 24 2q54 0 141 -23l-20 -82q-91 25 -127 20q-40 -5 -65 -32.5t-25 -64.5q0 -30 16 -54t42 -36t55 -9l9 1l171 32l14 -83zM186 506l69 70l70 -70l-70 -69z" />
    <glyph glyph-name="uniFED0" unicode="&#x63a;" horiz-adv-x="511" arabic-form="medial" 
d="M516 0q-122 0 -180.5 6.5t-97.5 33.5q-56 -19 -115.5 -29.5t-109.5 -10.5h-18v84h18q93 0 170 16l-127 169l21 66l243 35q6 1 18 1q35 0 63.5 -18t45 -48t16.5 -64q0 -27 -10 -51q-23 -57 -104 -102q39 -4 167 -4v-84zM264 122q51 18 84 46t44 64q4 8 4 19
q0 20 -15.5 33.5t-36.5 10.5l-193 -25zM197 515l69 70l70 -70l-70 -69z" />
    <glyph glyph-name="uniFED2" unicode="&#x641;" horiz-adv-x="949" arabic-form="final" 
d="M954 84v-84h-58q-92 0 -188 38q-50 -18 -103 -28t-99 -10h-52q-115 0 -172.5 2.5t-85 7.5t-53.5 17q-46 20 -69.5 58t-23.5 89q0 31 9 65l37 141l73 -22l-37 -144q-6 -24 -6 -42q0 -24 11.5 -40.5t35.5 -27.5q18 -7 40 -11t79 -6.5t167 -2.5h47q39 0 97 10q-33 25 -51 51
t-16 49l6 58q8 67 57 110.5t115 43.5q52 0 91 -28t59 -72t17 -91l-3 -43q-3 -41 -64 -82q38 -6 82 -6h58zM642 156.5q25 -19.5 63 -35.5q89 31 97 60l4 35q3 25 -8 49.5t-33.5 40.5t-53.5 16q-36 0 -63.5 -23.5t-31.5 -60.5l-4 -47q5 -15 30 -34.5zM658 524l69 70l70 -70
l-70 -69z" />
    <glyph glyph-name="uniFED3" unicode="&#x641;" horiz-adv-x="463" arabic-form="initial" 
d="M218 594l-69 69l69 70l70 -70zM412 141q0 -52 -19 -82t-65.5 -44.5t-130.5 -14.5h-202v84h204q59 0 88.5 5t40.5 18t11 39q0 14 -1 22q-58 -9 -126 -9q-74 0 -117 43.5t-43 118.5q0 51 19.5 95.5t57.5 71.5t92 27q72 0 121 -54t56 -144l12 -137q2 -28 2 -39zM145.5 261.5
q24.5 -24.5 66.5 -24.5q59 0 119 10l-6 63q-7 61 -35.5 94.5t-71.5 33.5q-45 0 -71 -33t-26 -78q0 -41 24.5 -65.5z" />
    <glyph glyph-name="uniFED4" unicode="&#x641;" horiz-adv-x="490" arabic-form="medial" 
d="M259 481l-69 69l69 70l69 -70zM495 84v-84h-58q-92 0 -189 38q-107 -38 -201 -38h-52v84h52q39 0 97 10q-33 25 -51 51t-16 49l6 58q7 67 56.5 110.5t115.5 43.5q52 0 91 -28t59 -72t17 -91l-3 -43q-3 -41 -64 -82q38 -6 82 -6h58zM181.5 157q24.5 -20 63.5 -36
q88 31 98 60l4 35q3 25 -8 49.5t-33.5 40.5t-53.5 16q-36 0 -63.5 -23.5t-31.5 -60.5l-4 -47q4 -14 28.5 -34z" />
    <glyph glyph-name="uniFED6" unicode="&#x642;" horiz-adv-x="684" arabic-form="final" 
d="M293 -247q-113 0 -177.5 74t-64.5 199q0 94 37 202l72 -29q-34 -98 -34 -176q0 -88 43 -136.5t123 -48.5q32 0 71 9q70 15 112.5 30.5t65 40t19.5 62.5l-2 20h-129q-77 0 -122.5 47t-45.5 128q0 51 22 96t61.5 72.5t91.5 27.5q74 0 123 -56.5t60 -148.5l8 -82h62v-84h-53
l1 -24q1 -64 -25.5 -103.5t-81 -63.5t-150.5 -45q-49 -11 -87 -11zM543 157q-7 61 -35 95.5t-72 34.5q-46 0 -72 -32.5t-26 -78.5q0 -92 91 -92h122zM279 487l62 62l62 -62l-62 -62zM453 487l62 62l62 -62l-62 -62z" />
    <glyph glyph-name="uniFED7" unicode="&#x642;" horiz-adv-x="463" arabic-form="initial" 
d="M130 579l-62 62l62 62l62 -62zM303 579l-61 62l61 62l62 -62zM412 141q0 -52 -19 -82t-65.5 -44.5t-130.5 -14.5h-202v84h204q59 0 88.5 5t40.5 18t11 39q0 14 -1 22q-58 -9 -126 -9q-74 0 -117 43.5t-43 118.5q0 51 19.5 95.5t57.5 71.5t92 27q72 0 121 -54t56 -144
l12 -137q2 -28 2 -39zM145.5 261.5q24.5 -24.5 66.5 -24.5q59 0 119 10l-6 63q-7 61 -35.5 94.5t-71.5 33.5q-45 0 -71 -33t-26 -78q0 -41 24.5 -65.5z" />
    <glyph glyph-name="uniFED8" unicode="&#x642;" horiz-adv-x="490" arabic-form="medial" 
d="M174 492l-62 61l62 62l62 -62zM347 492l-61 61l61 62l62 -62zM495 84v-84h-58q-92 0 -189 38q-107 -38 -201 -38h-52v84h52q39 0 97 10q-33 25 -51 51t-16 49l6 58q7 67 56.5 110.5t115.5 43.5q52 0 91 -28t59 -72t17 -91l-3 -43q-3 -41 -64 -82q38 -6 82 -6h58z
M181.5 157q24.5 -20 63.5 -36q88 31 98 60l4 35q3 25 -8 49.5t-33.5 40.5t-53.5 16q-36 0 -63.5 -23.5t-31.5 -60.5l-4 -47q4 -14 28.5 -34z" />
    <glyph glyph-name="uniFEDA" unicode="&#x643;" horiz-adv-x="963" arabic-form="final" 
d="M968 84v-84h-14q-45 0 -83.5 21t-75.5 64q-11 -26 -30 -43q-37 -42 -105 -42h-206q-115 0 -172.5 2.5t-85 7.5t-53.5 17q-46 20 -69.5 58t-23.5 89q0 31 9 65l37 141l73 -22l-37 -144q-6 -24 -6 -42q0 -24 11.5 -40.5t35.5 -27.5q18 -7 40 -11t79 -6.5t167 -2.5h202
q24 0 40 12q27 18 27 52q0 21 -11 37l-223 315l17 64l362 133l27 -79l-311 -114l185 -268l6 -9v0q53 -82 90.5 -112.5t83.5 -30.5h14z" />
    <glyph glyph-name="uniFEDB" unicode="&#x643;" horiz-adv-x="465" arabic-form="initial" 
d="M315 236q31 -49 31 -98q0 -59 -40 -96q-39 -42 -105 -42h-206v84h207q24 0 39 12q13 9 20.5 23t7.5 29q0 18 -11 37l-223 315l17 64l362 133l26 -79l-310 -114z" />
    <glyph glyph-name="uniFEDC" unicode="&#x643;" horiz-adv-x="503" arabic-form="medial" 
d="M508 84v-84h-14q-45 0 -83.5 21t-74.5 64q-11 -26 -30 -43q-39 -42 -105 -42h-206v84h207q24 0 39 12q13 9 20.5 23t7.5 29q0 18 -11 37l-223 315l17 64l362 133l26 -79l-310 -114l185 -268l8 -13q52 -80 89 -109.5t82 -29.5h14z" />
    <glyph glyph-name="uniFEDE" unicode="&#x644;" horiz-adv-x="718" arabic-form="final" 
d="M723 84v-84h-20q-47 0 -84 22v-4q3 -86 -27 -136t-81 -74.5t-132 -44.5q-44 -11 -89 -11q-74 0 -128 34t-83 96t-29 144q0 92 37 200l73 -28q-34 -98 -34 -175q0 -88 42.5 -138t120.5 -50q36 0 73 10l20 5q62 15 94 29t51 45.5t17 89.5l-25 644l75 4l19 -488
q3 -49 28 -69.5t62 -20.5h20z" />
    <glyph glyph-name="uniFEDF" unicode="&#x644;" horiz-adv-x="234" arabic-form="initial" 
d="M169 87.5q-17 -38.5 -55 -63t-96 -24.5h-25v84h25q54 0 73 24t17 56l-19 494l76 4l19 -494q2 -42 -15 -80.5z" />
    <glyph glyph-name="uniFEE0" unicode="&#x644;" horiz-adv-x="288" arabic-form="medial" 
d="M293 84v-84h-20q-36 0 -68 14t-56 41q-21 -25 -54 -40t-77 -15h-25v84h25q54 0 73 24t17 56l-19 494l76 4l19 -494v-7q6 -42 30.5 -59.5t58.5 -17.5h20z" />
    <glyph glyph-name="uniFEE2" unicode="&#x645;" horiz-adv-x="578" arabic-form="final" 
d="M512.5 108q26.5 -24 70.5 -24v-84q-42 0 -75 16t-54 46l-3 -6q-15 -28 -41 -44.5t-56 -16.5q-25 0 -49 12l-179 93l17 -397l-75 -3l-18 468l52 35l49 -26l55 107q19 37 53 58t73 21q34 0 66 -17q44 -24 66 -70t19 -103q3 -41 29.5 -65zM416 186q0 64 -45 87q-16 9 -34 9
q-23 0 -43.5 -14t-33.5 -39l-44 -86l129 -67q9 -4 18 -4q18 0 28 18q25 49 25 96z" />
    <glyph glyph-name="uniFEE3" unicode="&#x645;" horiz-adv-x="506" arabic-form="initial" 
d="M434 280q22 -43 22 -96q0 -64 -33 -129q-14 -27 -40.5 -43.5t-56.5 -16.5q-25 0 -49 12l-128 66q-56 -73 -143 -73h-11v84h11q33 0 58.5 15t39.5 42l74 141q19 38 53 59.5t73 21.5q34 0 67 -18q41 -22 63 -65zM388 187q0 29 -11 51t-33 34q-18 9 -36 9q-22 0 -42 -14
t-33 -39l-45 -86l130 -66q8 -4 17 -4q17 0 28 18q25 49 25 97z" />
    <glyph glyph-name="uniFEE4" unicode="&#x645;" horiz-adv-x="550" arabic-form="medial" 
d="M482 110.5q26 -26.5 73 -26.5v-84q-42 0 -75 16t-54 45l-3 -6q-14 -27 -40.5 -43.5t-56.5 -16.5q-25 0 -49 12l-128 66q-56 -73 -143 -73h-11v84h11q33 0 58.5 15t39.5 42l74 141q19 38 53 59.5t73 21.5q34 0 67 -18q41 -22 63 -65t22 -96q0 -47 26 -73.5zM388 187
q0 29 -11 51t-33 34q-18 9 -36 9q-22 0 -42 -14t-33 -39l-45 -86l130 -66q8 -4 17 -4q17 0 28 18q25 49 25 97z" />
    <glyph glyph-name="uniFEE6" unicode="&#x646;" horiz-adv-x="703" arabic-form="final" 
d="M708 84v-84h-27q-34 0 -61 15q2 -14 2 -38q0 -66 -31 -107t-82 -64t-129 -42q-49 -11 -87 -11q-113 0 -177.5 74t-64.5 199q0 94 37 202l72 -29q-34 -98 -34 -176q0 -88 43 -136.5t123 -48.5q32 0 71 9q72 17 105.5 28.5t55.5 36t22 68.5q0 19 -2 30q-12 87 -26 177
l-12 84l-2 13l75 13l10 -71q9 -56 19.5 -86t27 -43t43.5 -13h29zM258 282l69 70l70 -70l-70 -69z" />
    <glyph glyph-name="uniFEE7" unicode="&#x646;" horiz-adv-x="309" arabic-form="initial" 
d="M74 84q109 0 109 82q0 22 -7 46l-40 149l74 21l40 -149q9 -37 9 -68q0 -79 -53 -122t-132 -43h-79v84h79zM63 520l69 70l70 -70l-70 -69z" />
    <glyph glyph-name="uniFEE8" unicode="&#x646;" horiz-adv-x="309" arabic-form="medial" 
d="M248 103q20 -19 66 -19v-84q-84 0 -126 49q-46 -49 -130 -49h-63v84h63q96 0 90 75v3l-11 123l76 7l11 -123v-2q4 -45 24 -64zM60 446l69 70l70 -70l-70 -69z" />
    <glyph glyph-name="uniFEEA" unicode="&#x647;" horiz-adv-x="518" arabic-form="final" 
d="M523 84v-84h-19q-51 0 -94.5 25t-70.5 67q-70 -10 -111 -18q-6 -1 -17 -1q-49 0 -93 33.5t-60 81.5q-8 27 -8 51q0 53 31 98t81 62l147 49v45h76v-294q0 -48 34.5 -81.5t84.5 -33.5h19zM311 173q-2 18 -2 26v165l-123 -42q-28 -10 -44 -31.5t-16 -47.5q0 -9 4 -25
q8 -28 35 -46.5t57 -13.5q100 17 89 15z" />
    <glyph glyph-name="uniFEEB" unicode="&#x647;" horiz-adv-x="637" arabic-form="initial" 
d="M562.5 225.5q24.5 -41.5 24.5 -87.5q0 -36 -15 -69q-21 -44 -59.5 -69t-84.5 -25q-34 0 -67 15l-119 54q-86 -44 -198 -44h-49v84h49q46 0 93 7q-42 22 -66.5 62t-24.5 87q0 39 18 76q21 46 65 73l-21 11l35 75l353 -186q42 -22 66.5 -63.5zM243 132q38 27 56 69
q9 18 9 38q0 26 -13.5 48t-37.5 34q-20 10 -42 10q-25 0 -46.5 -13t-32.5 -35q-10 -20 -10 -42q0 -25 13.5 -46t38.5 -32zM513 137q0 24 -13.5 44.5t-37.5 33.5l-80 42q1 -6 1 -17q0 -39 -16 -74q-16 -37 -49 -69l74 -35q19 -8 37 -8q24 0 45 12.5t31 35.5q8 18 8 35z" />
    <glyph glyph-name="uniFEEC" unicode="&#x647;" horiz-adv-x="478" arabic-form="medial" 
d="M483 84v-84h-50q-30 0 -50.5 -20t-20.5 -48v-134l-37 -38q-58 -1 -111.5 28.5t-90 84t-45.5 127.5h-14h-69v84h69h19q22 98 100 314l45 23l74 -21q45 -13 72 -58t27 -100q0 -40 -15 -76q-26 -59 -87.5 -100.5t-144.5 -57.5q8 -67 45.5 -111t89.5 -55v90q0 42 19 76.5
t52 55t73 20.5h50zM161 92q62 12 102.5 39.5t57.5 68.5q8 16 8 39q0 28 -13.5 50.5t-34.5 28.5l-42 12q-57 -154 -78 -238z" />
    <glyph glyph-name="uniFEEE" unicode="&#x648;" horiz-adv-x="487" arabic-form="final" 
d="M492 0h-52q1 -11 1 -32q0 -71 -34 -111t-101 -63.5t-196 -50.5l-15 83q120 25 171 39.5t75 38t24 66.5q0 7 -2 27v3h-131q-77 0 -122.5 47t-45.5 128q0 51 22 96t61.5 72.5t91.5 27.5q74 0 123.5 -56.5t59.5 -148.5l9 -82h61v-84zM354 84l-8 73q-7 61 -35 95.5t-72 34.5
q-46 0 -72 -32.5t-26 -78.5q0 -92 91 -92h122z" />
    <glyph glyph-name="uniFEF0" unicode="&#x649;" horiz-adv-x="679" arabic-form="final" 
d="M684 0q-37 0 -79 5q7 -13 8 -25q2 -20 2 -29q0 -77 -60 -118.5t-175 -68.5q-49 -11 -87 -11q-113 0 -177.5 74t-64.5 199q0 94 37 202l72 -29q-34 -98 -34 -175q0 -88 43.5 -137t123.5 -49q33 0 70 9q65 14 100 26t55.5 31.5t20.5 51.5q0 6 -2 22q-7 33 -114 73l-51 16
l24 81q15 -5 35 -10q96 -29 149 -41.5t104 -12.5v-84z" />
    <glyph glyph-name="uniFEF2" unicode="&#x64a;" horiz-adv-x="679" arabic-form="final" 
d="M684 0q-37 0 -79 5q7 -13 8 -25q2 -20 2 -29q0 -77 -60 -118.5t-175 -68.5q-49 -11 -87 -11q-113 0 -177.5 74t-64.5 199q0 94 37 202l72 -29q-34 -98 -34 -175q0 -88 43.5 -137t123.5 -49q33 0 70 9q65 14 100 26t55.5 31.5t20.5 51.5q0 6 -2 22q-7 33 -114 73l-51 16
l24 81q15 -5 35 -10q96 -29 149 -41.5t104 -12.5v-84z" />
    <glyph glyph-name="uniFEF3" unicode="&#x64a;" horiz-adv-x="376" arabic-form="initial" 
d="M141 84q108 0 108 81q0 22 -7 47l-39 149l73 21l41 -153q9 -36 9 -65q0 -78 -53.5 -121t-131.5 -43h-146v84h146zM-50 -144l62 62l62 -62l-62 -62zM124 -144l62 62l62 -62l-62 -62z" />
    <glyph glyph-name="uniFEF4" unicode="&#x64a;" horiz-adv-x="399" arabic-form="medial" 
d="M338.5 101.5q19.5 -17.5 65.5 -17.5v-84q-83 0 -126 49q-22 -24 -55.5 -36.5t-74.5 -12.5h-153v84h153q96 0 90 75v3l-11 123l76 7l11 -123v-6q5 -44 24.5 -61.5zM16 -145l62 62l62 -62l-62 -62zM190 -145l62 62l62 -62l-62 -62z" />
    <glyph glyph-name=".notdef" horiz-adv-x="300" 
d="M262 514v-528h-224v528h224zM238 486h-176v-472h176v472z" />
    <glyph glyph-name=".null" 
 />
    <glyph glyph-name="nonmarkingreturn" unicode="&#xd;" horiz-adv-x="300" 
 />
    <glyph glyph-name="space" unicode=" " horiz-adv-x="256" 
 />
    <glyph glyph-name="exclam" unicode="!" horiz-adv-x="278" 
d="M184 656l-9 -481h-71l-9 481h89zM92 -9q-19 19 -19 47q0 27 19 46t47 19q27 0 46 -19t19 -46q0 -28 -19 -47t-46 -19q-28 0 -47 19z" />
    <glyph glyph-name="quotedbl" unicode="&#x22;" horiz-adv-x="293" 
d="M262 698l-9 -212h-72l-8 212h89zM119 698l-9 -212h-72l-8 212h89z" />
    <glyph glyph-name="numbersign" unicode="#" horiz-adv-x="638" 
d="M488 399l-22 -141h74v-76h-85l-25 -160l-89 1l25 159h-141l-25 -160l-89 1l25 159h-72v76h83l22 141h-71v77h83l25 159l89 -1l-25 -158h141l25 159l88 -1l-24 -158h74v-77h-86zM399 399h-140l-22 -141h140z" />
    <glyph glyph-name="dollar" unicode="$" horiz-adv-x="559" 
d="M466 42q-54 -47 -147 -52v-69h-78v72q-82 12 -128.5 59.5t-46.5 119.5v33h85v-28q0 -37 24 -64.5t66 -38.5l1 238q-55 23 -89 44.5t-55.5 54.5t-21.5 82q0 70 44 114.5t121 55.5v84h78v-82q90 -8 143 -57.5t53 -128.5v-26h-86v21q0 43 -29.5 73.5t-81.5 38.5l-1 -219
l3 -1q65 -26 105.5 -49t67.5 -59.5t27 -89.5q0 -79 -54 -126zM180.5 440q18.5 -22 61.5 -42l-1 187q-38 -8 -58.5 -30.5t-20.5 -59.5q0 -33 18.5 -55zM404 96q29 26 29 69q0 36 -26.5 60.5t-88.5 53.5l1 -213q56 4 85 30z" />
    <glyph glyph-name="percent" unicode="%" horiz-adv-x="776" 
d="M136 436.5q-33 19.5 -52 52.5t-19 73q0 39 19 72t52 52.5t72 19.5q38 0 70.5 -19.5t51.5 -52.5t19 -72q0 -40 -19 -73t-51.5 -52.5t-70.5 -19.5q-39 0 -72 19.5zM606 703l-374 -706h-65l375 706h64zM273 492.5q27 28.5 27 69.5q0 40 -27 68.5t-65 28.5q-39 0 -66.5 -28.5
t-27.5 -68.5q0 -41 27 -69.5t67 -28.5q38 0 65 28.5zM497 13.5q-33 19.5 -52 52.5t-19 73q0 39 19 72t52 52.5t72 19.5q38 0 70.5 -19.5t51.5 -52.5t19 -72t-19 -72.5t-51.5 -53t-70.5 -19.5q-39 0 -72 19.5zM634 69.5q27 28.5 27 69.5q0 40 -27 68.5t-65 28.5
q-39 0 -66.5 -28.5t-27.5 -68.5q0 -41 27 -69.5t67 -28.5q38 0 65 28.5z" />
    <glyph glyph-name="ampersand" unicode="&#x26;" horiz-adv-x="655" 
d="M504 0l-55 63q-88 -71 -195 -71q-85 0 -138.5 40t-53.5 116q0 66 36.5 111t101.5 86q-54 65 -71 99.5t-17 71.5q0 42 21 75.5t60 53t89 19.5q78 0 127 -42.5t49 -110.5q0 -60 -36.5 -103t-99.5 -83l28 -34q60 -72 104 -121q34 37 75 94l62 -36q-45 -67 -87 -114l21 -24
q17 -21 47 -53q25 -26 33 -37h-101zM221.5 565.5q-22.5 -23.5 -22.5 -58.5q0 -19 13.5 -42t57.5 -77q50 33 75.5 60t25.5 61q0 35 -24 57.5t-65 22.5q-38 0 -60.5 -23.5zM399 120q-26 31 -38.5 44.5t-18.5 20.5l-16 18l-72 80q-51 -33 -78 -63.5t-27 -70.5q0 -39 29.5 -63
t77.5 -24q71 0 143 58z" />
    <glyph glyph-name="quotesingle" unicode="'" horiz-adv-x="149" 
d="M119 698l-9 -212h-72l-8 212h89z" />
    <glyph glyph-name="parenleft" unicode="(" horiz-adv-x="346" 
d="M99 -6.5q-49 120.5 -49 250.5q0 132 50 253.5t142 213.5l54 -60q-83 -82 -126.5 -186.5t-43.5 -220.5q0 -114 42.5 -217.5t122.5 -184.5l-54 -60q-89 91 -138 211.5z" />
    <glyph glyph-name="parenright" unicode=")" horiz-adv-x="346" 
d="M177.5 26.5q42.5 103.5 42.5 217.5q0 116 -43.5 220.5t-126.5 186.5l54 60q92 -92 142 -213.5t50 -253.5q0 -130 -49 -250.5t-138 -211.5l-54 60q80 81 122.5 184.5z" />
    <glyph glyph-name="asterisk" unicode="*" horiz-adv-x="502" 
d="M313 394l86 -119l-62 -44l-86 118l-86 -118l-62 44l86 119l-139 45l24 72l139 -45v147h76v-147l139 45l24 -72z" />
    <glyph glyph-name="plus" unicode="+" horiz-adv-x="424" 
d="M390 270h-145v-146h-67v146h-145v66h145v146h67v-146h145v-66z" />
    <glyph glyph-name="comma" unicode="," horiz-adv-x="181" 
d="M144 141l-48 -224h-59l28 224h79z" />
    <glyph glyph-name="hyphen" unicode="-" horiz-adv-x="317" 
d="M287 344v-77h-257v77h257z" />
    <glyph glyph-name="period" unicode="." horiz-adv-x="313" 
d="M109.5 11.5q-18.5 19.5 -18.5 47.5q0 27 18.5 45.5t46.5 18.5q27 0 46 -18.5t19 -45.5q0 -28 -19 -47.5t-46 -19.5q-28 0 -46.5 19.5z" />
    <glyph glyph-name="slash" unicode="/" horiz-adv-x="346" 
d="M298 659l-190 -657h-89l190 657h89z" />
    <glyph glyph-name="zero" unicode="0" horiz-adv-x="516" 
d="M413.5 145q-22.5 -40 -61 -63.5t-84.5 -23.5t-84.5 23.5t-61 63.5t-22.5 86q0 47 22.5 86.5t61 63t84.5 23.5t84.5 -23.5t61 -63t22.5 -86.5q0 -46 -22.5 -86zM336.5 297.5q-28.5 27.5 -68.5 27.5q-39 0 -68 -27.5t-29 -66.5t29 -66t68 -27q40 0 68.5 27t28.5 66
t-28.5 66.5z" />
    <glyph glyph-name="one" unicode="1" horiz-adv-x="310" 
d="M176 659l64 -655l-76 -8l-64 655z" />
    <glyph glyph-name="two" unicode="2" horiz-adv-x="559" 
d="M479 480q0 -40 -21.5 -75t-58 -56t-79.5 -21h-34q-40 0 -79 21l33 -343l-76 -8l-64 656l76 8l17 -179q7 -35 28 -53t54 -18h45q37 0 61 22t21 53l-17 166l76 9l17 -168z" />
    <glyph glyph-name="three" unicode="3" horiz-adv-x="790" 
d="M691.5 408.5q-21.5 -37.5 -59 -60t-81.5 -22.5h-10q-35 0 -65.5 15t-52.5 42q-22 -27 -54 -42t-68 -15h-23q-39 0 -71 18l33 -340l-76 -8l-64 655l76 8l17 -171q5 -35 27 -56.5t55 -21.5h26q35 0 60 22.5t22 54.5l-14 141l76 8l14 -145q3 -37 25.5 -59t56.5 -22h10
q35 0 60 22.5t22 54.5l-16 164l76 8l16 -169q4 -44 -17.5 -81.5z" />
    <glyph glyph-name="four" unicode="4" horiz-adv-x="707" 
d="M625 326h-351q-35 0 -67 16l32 -338l-76 -8l-46 479l-1 9l-16 168l76 8l17 -175q5 -37 26 -56t55 -19h26q-28 46 -28 99q0 51 24.5 93t66 66t91.5 24q47 0 101.5 -25t55.5 -25l-33 -76q-6 2 -52.5 21t-71.5 21q-44 4 -75 -26t-31 -73q0 -42 27.5 -70.5t67.5 -28.5h182
v-84z" />
    <glyph glyph-name="five" unicode="5" horiz-adv-x="744" 
d="M570.5 425.5q59.5 -74.5 76.5 -125.5t17 -142q0 -43 -20.5 -79.5t-55.5 -57.5t-78 -21h-11q-35 0 -64.5 14.5t-51.5 40.5q-22 -26 -52.5 -40.5t-65.5 -14.5h-11q-43 0 -78 21t-55.5 57.5t-20.5 79.5q0 85 12 131.5t57 107t159 187.5l-43 48l56 56q170 -188 229.5 -262.5z
M565.5 105.5q22.5 21.5 22.5 52.5q0 68 -11 105.5t-50.5 90.5t-144.5 171q-107 -119 -146.5 -170t-49.5 -88t-10 -109q0 -31 22 -52.5t56 -21.5h11q33 0 56 22t23 52v61h76v-57q3 -35 24.5 -56.5t54.5 -21.5h11q33 0 55.5 21.5z" />
    <glyph glyph-name="six" unicode="6" horiz-adv-x="609" 
d="M428 365l-263 -389l-62 48l180 266q-52 2 -97 32q-40 25 -61 65.5t-21 85.5q0 58 32 105q13 19 49.5 47t80.5 56l38 -72q-37 -22 -67 -43.5t-39 -35.5q-19 -28 -19 -57q0 -23 11.5 -43.5t33.5 -35.5q26 -19 61 -19q24 0 45.5 10.5t36.5 29.5l100 148l62 -48l-97 -144z
" />
    <glyph glyph-name="seven" unicode="7" horiz-adv-x="685" 
d="M378 -4h-72l-226 634l71 29l191 -537l192 537l71 -29z" />
    <glyph glyph-name="eight" unicode="8" horiz-adv-x="685" 
d="M307 658h72l226 -636l-71 -29l-191 538l-192 -538l-71 29z" />
    <glyph glyph-name="nine" unicode="9" horiz-adv-x="594" 
d="M438 -4l-31 303h-125q-50 0 -92 24.5t-66 66.5t-24 92t24 92.5t66 67t92 24.5q47 0 86.5 -23t65 -64t30.5 -92l50 -483zM398 381l-10 97q-5 46 -34.5 75.5t-71.5 29.5q-45 0 -75.5 -29.5t-30.5 -71.5t30.5 -71.5t75.5 -29.5h116z" />
    <glyph glyph-name="colon" unicode=":" horiz-adv-x="313" 
d="M109.5 287.5q-18.5 19.5 -18.5 47.5q0 27 18.5 45.5t46.5 18.5q27 0 46 -18.5t19 -45.5q0 -28 -19 -47.5t-46 -19.5q-28 0 -46.5 19.5zM109.5 11.5q-18.5 19.5 -18.5 47.5q0 27 18.5 45.5t46.5 18.5q27 0 46 -18.5t19 -45.5q0 -28 -19 -47.5t-46 -19.5q-28 0 -46.5 19.5z
" />
    <glyph glyph-name="semicolon" unicode=";" horiz-adv-x="323" 
d="M207 141l-48 -224h-59l28 224h79zM119.5 287.5q-18.5 19.5 -18.5 47.5q0 27 18.5 45.5t46.5 18.5q27 0 46 -18.5t19 -45.5q0 -28 -19 -47.5t-46 -19.5q-28 0 -46.5 19.5z" />
    <glyph glyph-name="equal" unicode="=" horiz-adv-x="406" 
d="M377 186h-349v75h349v-75zM377 354h-349v75h349v-75z" />
    <glyph glyph-name="question" unicode="?" horiz-adv-x="459" 
d="M197.5 288q11.5 25 26.5 40t42 39q5 4 27 23t33 42t11 50q0 43 -28 71.5t-71 28.5q-44 0 -73 -30t-29 -74v-31l-88 4v27q0 52 25 94.5t69 66.5t98 24t96 -23t66 -63.5t24 -90.5q0 -39 -12 -67.5t-27.5 -45.5t-41.5 -41q-5 -4 -27 -23t-33.5 -40t-11.5 -45v-40h-87v45
q0 34 11.5 59zM185 11.5q-19 19.5 -19 47.5q0 27 19 45.5t47 18.5q27 0 46 -18.5t19 -45.5q0 -28 -19 -47.5t-46 -19.5q-28 0 -47 19.5z" />
    <glyph glyph-name="at" unicode="@" horiz-adv-x="798" 
d="M603 583.5q68 -38.5 105 -105.5t37 -150q0 -22 -3 -46q-11 -85 -57 -135.5t-116 -50.5q-36 0 -62 13.5t-40 38.5q-17 -26 -46 -39t-65 -13q-46 0 -75 24t-35 64q-2 18 -2 28q0 21 5 53q7 52 17 81q15 43 49.5 67t76.5 24q26 0 49 -9t37 -26l5 33h60l-26 -197
q-1 -6 -1 -16q0 -32 15 -51.5t42 -19.5q36 0 60.5 33t33.5 93q4 34 4 50q0 104 -63.5 164t-168.5 60q-81 0 -151.5 -37t-114 -110t-43.5 -175q0 -112 62.5 -174t169.5 -62q49 0 91 11.5t62 28.5l39 -57q-30 -26 -85.5 -41t-112.5 -15q-85 0 -154 38.5t-108.5 109
t-39.5 162.5q0 21 1 31q7 110 62 192t142 125.5t188 43.5q88 0 156 -38.5zM416 162q20 15 29 40q5 11 8 23t6 42q4 45 3 64q-2 24 -19 39t-43 15q-25 0 -45 -12.5t-30 -33.5q-10 -22 -17 -75q-5 -42 -5 -50q0 -31 18.5 -49t49.5 -18q25 0 45 15z" />
    <glyph glyph-name="A" unicode="A" horiz-adv-x="582" 
d="M417 155h-253l-48 -155h-95l213 660h113l214 -660h-95zM396 223l-106 336l-105 -336h211z" />
    <glyph glyph-name="B" unicode="B" horiz-adv-x="589" 
d="M524 182q0 -87 -57 -133.5t-150 -46.5h-242v658h235q98 0 152 -44.5t54 -130.5q0 -106 -101 -143q109 -42 109 -160zM164 375h147q54 0 86 27.5t32 74.5q0 48 -32.5 77t-86.5 29h-146v-208zM403 109.5q32 29.5 32 81.5q0 51 -32.5 80.5t-87.5 29.5h-151v-221h153
q54 0 86 29.5z" />
    <glyph glyph-name="C" unicode="C" horiz-adv-x="600" 
d="M182.5 15.5q-53.5 27.5 -83.5 73t-30 98.5v278q0 53 30 99t83.5 73.5t121.5 27.5q70 0 123.5 -27.5t82.5 -73.5t29 -99v-18l-91 -5v32q-1 28 -18 54.5t-49.5 43.5t-76.5 17q-42 0 -75 -17t-51 -44t-18 -54v-291q0 -27 18 -55t51 -46t75 -18q44 0 76.5 16.5t49.5 42.5
t18 53l1 30l90 -2v-17q0 -54 -27.5 -99.5t-80.5 -72.5t-127 -27q-68 0 -121.5 27.5z" />
    <glyph glyph-name="D" unicode="D" horiz-adv-x="590" 
d="M311 660q98 0 156.5 -51t58.5 -137v-285q0 -85 -58.5 -136t-156.5 -51h-236v660h236zM403 110.5q33 33.5 34 90.5v257q0 58 -33.5 91.5t-89.5 33.5h-150v-506h151q55 0 88 33.5z" />
    <glyph glyph-name="E" unicode="E" horiz-adv-x="569" 
d="M164 583v-213h241v-76h-241v-217h346v-77h-435v660h435v-77h-346z" />
    <glyph glyph-name="F" unicode="F" horiz-adv-x="518" 
d="M164 583v-211h241v-77h-241v-295h-89v660h421v-77h-332z" />
    <glyph glyph-name="G" unicode="G" horiz-adv-x="590" 
d="M179 13.5q-52 25.5 -81 70t-29 100.5v265q0 64 28.5 113t80.5 76t120 27q67 0 118.5 -22.5t80.5 -62t29 -89.5v-47h-89v39q0 47 -38.5 76t-100.5 29q-63 0 -101.5 -37.5t-38.5 -98.5v-252q0 -60 40 -97.5t103 -37.5q70 0 104 25.5t34 83.5v90h-141v72h228v-152
q0 -90 -61 -143t-167 -53q-67 0 -119 25.5z" />
    <glyph glyph-name="H" unicode="H" horiz-adv-x="624" 
d="M555 660v-660h-89v290h-297v-290h-90v660h90v-293h297v293h89z" />
    <glyph glyph-name="I" unicode="I" horiz-adv-x="238" 
d="M164 660v-660h-89v660h89z" />
    <glyph glyph-name="J" unicode="J" horiz-adv-x="568" 
d="M159 11.5q-50 25.5 -77.5 71.5t-27.5 106v74h89v-75q0 -57 36 -91t96 -34q59 0 96 34.5t37 90.5v472h89v-471q0 -61 -28 -107t-78 -71t-116 -25t-116 25.5z" />
    <glyph glyph-name="K" unicode="K" horiz-adv-x="585" 
d="M164 660v-320l279 320h101l-234 -279l249 -379h-101l-209 318l-85 -96v-222h-89v658h89z" />
    <glyph glyph-name="L" unicode="L" horiz-adv-x="524" 
d="M164 660v-583h338v-77h-427v660h89z" />
    <glyph glyph-name="M" unicode="M" horiz-adv-x="667" 
d="M593 660v-660h-89v544l-144 -263h-51l-145 259v-540h-89v660h88l171 -276l171 276h88z" />
    <glyph glyph-name="N" unicode="N" horiz-adv-x="627" 
d="M552 660v-658h-85l-304 497l1 -497h-89v658h86l303 -499l-1 499h89z" />
    <glyph glyph-name="O" unicode="O" horiz-adv-x="608" 
d="M182.5 15.5q-53.5 27.5 -83.5 73t-30 98.5v278q0 53 30 99t83.5 73.5t121.5 27.5q70 0 123.5 -27.5t82.5 -73.5t29 -99v-278q0 -53 -29 -98.5t-82.5 -73t-123.5 -27.5q-68 0 -121.5 27.5zM380 82q32 18 49 45.5t17 55.5v291q0 28 -17 54.5t-49 43.5t-76 17
q-42 0 -74.5 -17t-50 -44t-17.5 -54v-291q0 -27 17.5 -55t50 -46t74.5 -18q44 0 76 18z" />
    <glyph glyph-name="P" unicode="P" horiz-adv-x="552" 
d="M477.5 607.5q52.5 -52.5 52.5 -138.5q0 -85 -53.5 -136t-142.5 -51h-170v-282h-89v660h263q87 0 139.5 -52.5zM409.5 384.5q32.5 31.5 32.5 82.5q0 52 -32 84t-85 32h-161v-230h161q52 0 84.5 31.5z" />
    <glyph glyph-name="Q" unicode="Q" horiz-adv-x="608" 
d="M539 187q0 -34 -12 -65t-35 -57l46 -37l-52 -55l-55 44q-58 -29 -127 -29q-68 0 -121.5 27.5t-83.5 73t-30 98.5v278q0 53 30 99t83.5 73.5t121.5 27.5q70 0 123.5 -27.5t82.5 -73.5t29 -99v-278zM423 119q23 31 23 64v291q0 28 -17 54.5t-49 43.5t-76 17
q-42 0 -74.5 -17t-50 -44t-17.5 -54v-291q0 -27 17.5 -55t50 -46t74.5 -18q32 0 56 9l-61 49l52 55z" />
    <glyph glyph-name="R" unicode="R" horiz-adv-x="562" 
d="M491 349q-39 -48 -107 -62l137 -287h-95l-129 282h-133v-282h-89v660h263q87 0 139.5 -52.5t52.5 -138.5q0 -72 -39 -120zM164 353h161q52 0 84.5 31.5t32.5 82.5q0 52 -32 84t-85 32h-161v-230z" />
    <glyph glyph-name="S" unicode="S" horiz-adv-x="579" 
d="M121.5 38.5q-63.5 49.5 -63.5 133.5v33h87v-28q0 -50 42 -80.5t114 -30.5q64 0 97.5 27t33.5 72q0 29 -17 50t-49.5 39t-94.5 44q-74 31 -111.5 51t-64 55t-26.5 89q0 80 58 126.5t156 46.5q105 0 168.5 -50.5t63.5 -136.5v-26h-87v21q0 51 -40 83t-109 32
q-59 0 -91 -24.5t-32 -69.5q0 -31 16.5 -52t48.5 -37t96 -40q66 -26 107.5 -49t69 -59.5t27.5 -89.5q0 -83 -61.5 -131t-165.5 -48q-109 0 -172.5 49.5z" />
    <glyph glyph-name="T" unicode="T" horiz-adv-x="525" 
d="M503 583h-189v-583h-89v583h-203v77h481v-77z" />
    <glyph glyph-name="U" unicode="U" horiz-adv-x="614" 
d="M185 15.5q-54 27.5 -83.5 73t-29.5 98.5v473h93v-477q0 -27 17.5 -55t50 -46t74.5 -18q44 0 76 18t49 45.5t17 55.5v477h93v-473q0 -53 -29 -98.5t-82.5 -73t-123.5 -27.5q-68 0 -122 27.5z" />
    <glyph glyph-name="V" unicode="V" horiz-adv-x="550" 
d="M529 660l-208 -660h-93l-207 660h95l161 -543l160 543h92z" />
    <glyph glyph-name="W" unicode="W" horiz-adv-x="966" 
d="M945 660l-208 -660h-93l-161 514l-162 -514h-93l-207 660h95l161 -543l160 543h95l161 -543l160 543h92z" />
    <glyph glyph-name="X" unicode="X" horiz-adv-x="556" 
d="M27 660h96l155 -263l155 263h97l-196 -331l196 -329h-96l-155 261l-156 -261h-96l197 330z" />
    <glyph glyph-name="Y" unicode="Y" horiz-adv-x="535" 
d="M21 660h96l150 -290l151 290h96l-203 -382v-275h-89v275z" />
    <glyph glyph-name="Z" unicode="Z" horiz-adv-x="498" 
d="M369 583h-337v77h435v-83l-338 -500h338v-77h-435v82z" />
    <glyph glyph-name="bracketleft" unicode="[" horiz-adv-x="264" 
d="M208 733v-77h-92v-707h93v-76h-182v860h181z" />
    <glyph glyph-name="backslash" unicode="\" horiz-adv-x="346" 
d="M238 2l-190 657h89l190 -657h-89z" />
    <glyph glyph-name="bracketright" unicode="]" horiz-adv-x="236" 
d="M28 -51h92v707h-93v77h182v-861h-181v77z" />
    <glyph glyph-name="underscore" unicode="_" horiz-adv-x="389" 
d="M369 71v-69h-349v69h349z" />
    <glyph glyph-name="a" unicode="a" horiz-adv-x="528" 
d="M402 441q52 -43 52 -115v-326h-89v77q-32 -84 -147 -84q-69 0 -113 32.5t-44 98.5q0 68 50.5 106t142.5 38h111v45q0 45 -26 69.5t-75 24.5q-42 0 -68.5 -17.5t-30.5 -46.5l-89 11q5 57 57 93.5t131 36.5q86 0 138 -43zM329.5 80.5q35.5 24.5 35.5 70.5v70h-93
q-57 0 -89 -23t-32 -64q0 -36 24 -57t68 -21q51 0 86.5 24.5z" />
    <glyph glyph-name="b" unicode="b" horiz-adv-x="524" 
d="M408 446q43 -40 43 -110v-192q0 -71 -43 -111.5t-121 -40.5q-39 0 -71 13.5t-52 39.5v-45h-89v660h89v-227q20 26 51.5 39.5t70.5 13.5q79 0 122 -40zM365 336q0 40 -28 63t-73 23t-72.5 -23t-27.5 -63v-192q0 -42 27.5 -64.5t73.5 -22.5q44 0 72 23t28 64v192z" />
    <glyph glyph-name="c" unicode="c" horiz-adv-x="524" 
d="M148 30q-51 36 -71 98q-14 45 -14 114q0 62 14 113q19 61 70.5 96t121.5 35q69 0 122 -35.5t69 -89.5q5 -14 6.5 -24.5t1.5 -12.5l-88 -14q-3 19 -4 23q-8 34 -38 55t-70 21t-68.5 -21t-37.5 -58q-9 -28 -9 -89q0 -62 8 -89q10 -38 38 -59.5t69 -21.5t70.5 20t37.5 56
l2 16l88 -13q0 -13 -6 -30q-16 -58 -69 -92t-122 -34q-70 0 -121 36z" />
    <glyph glyph-name="d" unicode="d" horiz-adv-x="531" 
d="M456 660v-660h-89v54q-20 -29 -53.5 -45.5t-75.5 -16.5q-79 0 -121.5 40t-42.5 111v192q0 70 43 110.5t120 40.5q43 0 76.5 -16t53.5 -46v236h89zM360 335q0 42 -27.5 64.5t-73.5 22.5q-44 0 -72 -23t-28 -64v-192q0 -40 28 -63.5t73 -23.5q44 0 72 23.5t28 63.5v192z
" />
    <glyph glyph-name="e" unicode="e" horiz-adv-x="533" 
d="M153 204v-33q0 -45 33.5 -74t80.5 -29q41 0 73 21t39 54l78 -16q-11 -58 -64 -95.5t-126 -37.5q-50 0 -94 20t-71.5 59.5t-27.5 94.5v143q0 51 25.5 91.5t69.5 63t97 22.5q55 0 101 -22.5t72.5 -62.5t26.5 -92v-106zM187 383.5q-34 -29.5 -34 -75.5v-39l230 1v38
q0 47 -34 76t-83 29q-45 0 -79 -29.5z" />
    <glyph glyph-name="f" unicode="f" horiz-adv-x="331" 
d="M204 576.5q-16 -21.5 -16 -66.5v-90h115v-67h-115v-353h-89v353h-71v67h71v97q0 77 37 111t128 32h39v-61h-39q-44 -1 -60 -22.5z" />
    <glyph glyph-name="g" unicode="g" horiz-adv-x="523" 
d="M449 482v-463q0 -113 -66 -163t-173 -50q-28 0 -57 3l3 79q36 -4 51 -4q71 0 112 33t41 100v28q-20 -26 -51.5 -39.5t-70.5 -13.5q-79 0 -121.5 40t-42.5 111v192q0 70 43 110.5t120 40.5q39 0 71 -13.5t52 -39.5v49h89zM332 79.5q28 23.5 28 63.5v192q0 42 -27.5 64.5
t-73.5 22.5q-44 0 -72 -23t-28 -64v-192q0 -40 28 -63.5t73 -23.5q44 0 72 23.5z" />
    <glyph glyph-name="h" unicode="h" horiz-adv-x="524" 
d="M408 446q43 -40 43 -110v-336h-86v336q0 40 -28 63t-73 23t-72.5 -23t-27.5 -63v-336h-89v660h89v-227q20 26 51.5 39.5t70.5 13.5q79 0 122 -40z" />
    <glyph glyph-name="i" unicode="i" horiz-adv-x="289" 
d="M103 571q-18 18 -18 44q0 25 17.5 42t43.5 17q25 0 42.5 -17t17.5 -42q0 -26 -17.5 -44t-42.5 -18t-43 18zM189 482v-482h-90v482h90z" />
    <glyph glyph-name="j" unicode="j" horiz-adv-x="290" 
d="M112 571q-18 18 -18 44q0 25 17.5 42t43.5 17q25 0 42.5 -17t17.5 -42q0 -26 -17.5 -44t-42.5 -18t-43 18zM83.5 -106q26.5 22 26.5 70l-1 518h89v-516q0 -64 -19 -100.5t-62 -52.5t-118 -15v75q58 -1 84.5 21z" />
    <glyph glyph-name="k" unicode="k" horiz-adv-x="493" 
d="M164 660v-381l185 199h102l-131 -152l150 -324h-95l-117 268l-94 -106v-162h-89v658h89z" />
    <glyph glyph-name="l" unicode="l" horiz-adv-x="263" 
d="M241 77v-77h-166v660h89v-583h77z" />
    <glyph glyph-name="m" unicode="m" horiz-adv-x="810" 
d="M693 446.5q43 -39.5 43 -110.5v-336h-85v336q0 40 -28 63t-73 23t-73 -23t-28 -63v-336h-85v336q0 40 -28 63t-73 23t-72.5 -23t-27.5 -63v-336h-89v482h89v-49q20 26 51.5 39.5t70.5 13.5q55 0 93 -20t56 -57q18 36 54.5 56.5t82.5 20.5q79 0 122 -39.5z" />
    <glyph glyph-name="n" unicode="n" horiz-adv-x="523" 
d="M406.5 446q42.5 -40 42.5 -110v-336h-85v336q0 40 -28 63t-73 23t-72.5 -23t-27.5 -63v-336h-89v482h89v-49q20 26 51.5 39.5t70.5 13.5q79 0 121.5 -40z" />
    <glyph glyph-name="o" unicode="o" horiz-adv-x="539" 
d="M168.5 13.5q-44.5 21.5 -69.5 58.5t-25 83v170q0 45 26 82t71 58t99 21t99 -21t70.5 -58t25.5 -82v-170q0 -47 -25 -84t-69 -58t-101 -21t-101.5 21.5zM351 90q29 27 29 70v160q0 39 -31 67t-79 28t-79.5 -28t-31.5 -67v-160q0 -42 29.5 -69.5t81.5 -27.5t81 27z" />
    <glyph glyph-name="p" unicode="p" horiz-adv-x="524" 
d="M407.5 446q42.5 -40 42.5 -110v-192q0 -71 -43 -111.5t-120 -40.5q-39 0 -71 13.5t-52 39.5v-247h-89v689h89v-54q20 26 51.5 39.5t70.5 13.5q79 0 121.5 -40zM365 336q0 40 -28 63t-73 23t-72.5 -23t-27.5 -63v-192q0 -42 27.5 -64.5t73.5 -22.5q44 0 72 23t28 64v192z
" />
    <glyph glyph-name="q" unicode="q" horiz-adv-x="525" 
d="M450 487v-689h-89v248q-20 -26 -52 -40t-71 -14q-79 0 -121.5 40t-42.5 111v192q0 70 43 110.5t120 40.5q40 0 72 -14t52 -40v55h89zM360 335q0 42 -27.5 64.5t-73.5 22.5q-44 0 -72 -23t-28 -64v-192q0 -40 28 -63.5t73 -23.5q44 0 72 23.5t28 63.5v192z" />
    <glyph glyph-name="r" unicode="r" horiz-adv-x="368" 
d="M353 465l-16 -84q-9 6 -25 8.5t-36 0.5q-41 -2 -71.5 -33.5t-31.5 -79.5v-277h-89v482h89v-99q19 43 50 70t71 27q37 0 59 -15z" />
    <glyph glyph-name="s" unicode="s" horiz-adv-x="508" 
d="M157.5 14q-42.5 18 -66 50t-23.5 73v12h82v-14q0 -31 29.5 -51.5t74.5 -20.5q43 0 70 19.5t27 50.5q0 27 -23 40t-74 27q-55 17 -69 23q-56 21 -86.5 48t-30.5 75q0 63 50 101t132 38t133 -39t51 -102v-9h-83v9q0 31 -28 51t-72 20q-43 0 -70 -18.5t-27 -48.5
q0 -27 25 -41t80 -29q21 -5 49 -14q64 -20 98.5 -48.5t34.5 -80.5q0 -64 -51 -101.5t-135 -37.5q-55 0 -97.5 18z" />
    <glyph glyph-name="t" unicode="t" horiz-adv-x="335" 
d="M187 405v-254q0 -39 17.5 -57.5t56.5 -18.5h36v-75q-38 -2 -53 -2q-74 0 -108 26.5t-34 93.5v287h-71v67h71v130h85v-130h115v-67h-115z" />
    <glyph glyph-name="u" unicode="u" horiz-adv-x="523" 
d="M449 482v-482h-89v49q-20 -26 -51.5 -39.5t-70.5 -13.5q-79 0 -121.5 40t-42.5 111v335h85v-335q0 -40 28 -63.5t73 -23.5q44 0 72 23.5t28 63.5v335h89z" />
    <glyph glyph-name="v" unicode="v" horiz-adv-x="466" 
d="M123 482l110 -381l110 381h96l-158 -482h-96l-159 482h97z" />
    <glyph glyph-name="w" unicode="w" horiz-adv-x="766" 
d="M740 482l-158 -482h-86l-113 355l-113 -355h-86l-158 482h96l111 -381l110 381h81l110 -381l110 381h96z" />
    <glyph glyph-name="x" unicode="x" horiz-adv-x="479" 
d="M26 482h96l115 -173l115 173h101l-161 -241l161 -241h-96l-115 173l-114 -173h-102l162 241z" />
    <glyph glyph-name="y" unicode="y" horiz-adv-x="467" 
d="M63 -126q39 1 61 9.5t36.5 32t27.5 71.5l-162 481h95l113 -372l112 372h94l-174 -513q-23 -65 -45 -97t-57.5 -45.5t-99.5 -13.5h-11v75h10z" />
    <glyph glyph-name="z" unicode="z" horiz-adv-x="474" 
d="M312 402h-252v80h356v-83l-262 -318h263v-81h-362v83z" />
    <glyph glyph-name="braceleft" unicode="{" horiz-adv-x="321" 
d="M89 -19v201q0 43 -14 64.5t-45 23.5v72q31 2 45 22.5t14 63.5v196q0 109 102 109h75v-77h-36q-24 0 -37.5 -17.5t-13.5 -50.5v-170q0 -48 -13.5 -75t-42.5 -37q29 -10 42.5 -37.5t13.5 -75.5v-175q0 -33 13.5 -51t37.5 -18h36v-76h-75q-102 0 -102 108z" />
    <glyph glyph-name="bar" unicode="|" horiz-adv-x="281" 
d="M181 700v-806h-81v806h81z" />
    <glyph glyph-name="braceright" unicode="}" horiz-adv-x="322" 
d="M55 -51h37q24 0 37.5 18t13.5 51v175q0 48 13.5 75.5t41.5 37.5q-29 10 -42 37t-13 75v170q0 33 -13.5 50.5t-37.5 17.5h-37v77h76q101 0 101 -109v-196q0 -42 14.5 -63t44.5 -23v-72q-30 -2 -44.5 -23.5t-14.5 -64.5v-201q0 -108 -101 -108h-76v76z" />
    <glyph glyph-name="uni00A0" unicode="&#xa0;" horiz-adv-x="256" 
 />
    <glyph glyph-name="guillemotleft" unicode="&#xab;" horiz-adv-x="459" 
d="M166 362.5q-16 -38.5 -16 -80.5q0 -41 15 -77.5t43 -66.5l-48 -46q-37 38 -57 87.5t-20 102.5q0 55 22 106.5t62 90.5l46 -50q-31 -28 -47 -66.5zM324 362.5q-16 -38.5 -16 -80.5q0 -83 59 -144l-49 -46q-37 38 -57 87.5t-20 102.5q0 55 22 106.5t63 90.5l45 -50
q-31 -28 -47 -66.5z" />
    <glyph glyph-name="guillemotright" unicode="&#xbb;" horiz-adv-x="462" 
d="M356.5 388.5q22.5 -51.5 22.5 -106.5q0 -53 -20 -102.5t-57 -87.5l-49 46q59 61 59 144q0 42 -16.5 80t-46.5 67l45 50q40 -39 62.5 -90.5zM195.5 388.5q22.5 -51.5 22.5 -106.5q0 -53 -20 -102.5t-57 -87.5l-49 46q59 61 59 144q0 42 -16.5 80t-46.5 67l45 50
q40 -39 62.5 -90.5z" />
    <glyph glyph-name="multiply" unicode="&#xd7;" horiz-adv-x="420" 
d="M257 302l103 -102l-47 -48l-103 103l-103 -103l-47 48l103 102l-103 103l47 47l103 -103l103 103l47 -47z" />
    <glyph glyph-name="divide" unicode="&#xf7;" horiz-adv-x="406" 
d="M159 409q-17 17 -17 42q0 24 17 40.5t42 16.5q23 0 40 -16.5t17 -40.5q0 -25 -17 -42t-40 -17q-25 0 -42 17zM28 270v75h349v-75h-349zM159 110q-17 17 -17 42q0 24 17 40.5t42 16.5q23 0 40 -17t17 -40q0 -25 -17 -42t-40 -17q-25 0 -42 17z" />
    <glyph glyph-name="uni060C" unicode="&#x60c;" horiz-adv-x="296" 
d="M198.5 102q14.5 -18 14.5 -41q0 -28 -19 -47t-46 -19q-28 0 -47 19t-19 47q0 15 6 27l75 178l44 -19l-45 -122q22 -5 36.5 -23z" />
    <glyph glyph-name="uni061B" unicode="&#x61b;" horiz-adv-x="296" 
d="M102 290q-19 19 -19 47q0 14 7 30l74 175l43 -19l-45 -122q22 -5 37 -23t15 -41q0 -27 -19 -46.5t-46 -19.5q-28 0 -47 19zM195 104.5q19 -18.5 19 -45.5q0 -28 -19.5 -47.5t-45.5 -19.5q-28 0 -47 19.5t-19 47.5q0 27 19 45.5t47 18.5q27 0 46 -18.5z" />
    <glyph glyph-name="uni061F" unicode="&#x61f;" horiz-adv-x="523" 
d="M226 217q0 23 -6.5 38.5t-17.5 26.5t-37 33q-34 28 -52.5 48t-29.5 46.5t-11 64.5q0 53 25.5 97t68.5 69.5t95 25.5t95 -26t68.5 -70.5t25.5 -97.5v-40h-76v40q0 45 -33 77t-80 32t-80 -31.5t-33 -75.5q0 -26 10 -45.5t23.5 -32.5t39.5 -34q35 -27 50 -42t23 -38.5
t8 -64.5v-51h-76v51zM217 -11q-19 19 -19 47q0 27 19 45.5t47 18.5q27 0 46 -18.5t19 -45.5t-19 -46.5t-46 -19.5q-28 0 -47 19z" />
    <glyph glyph-name="uni0640" unicode="&#x640;" horiz-adv-x="300" 
d="M305 84v-84h-310v84h310z" />
    <glyph glyph-name="uni064B" unicode="&#x64b;" 
d="M229 513l10 -44l-230 -55l-9 44zM229 625l10 -44l-230 -55l-9 44z" />
    <glyph glyph-name="uni064C" unicode="&#x64c;" 
d="M331 656q0 -38 -26 -65.5t-72 -39.5l-200 -49l-9 40l8 2q20 7 32 22t12 33q0 28 -20 46t-49 14l-7 36q6 1 18 1q40 0 66.5 -27.5t26.5 -63.5q0 -21 -10 -43l57 16l-17 68q-3 14 -3 26q0 29 17.5 50.5t49.5 28.5q13 3 26 3q37 0 64.5 -22t33.5 -56q2 -14 2 -20z
M273.5 619.5q18.5 16.5 18.5 38.5q0 23 -16.5 38t-41.5 15q-27 0 -41.5 -11t-14.5 -30q0 -10 2 -15l17 -67l26 7q32 8 50.5 24.5z" />
    <glyph glyph-name="uni064D" unicode="&#x64d;" 
d="M229 -361l10 -44l-230 -55l-9 44zM229 -249l10 -44l-230 -55l-9 44z" />
    <glyph glyph-name="uni064E" unicode="&#x64e;" 
d="M229 601l10 -44l-230 -55l-9 44z" />
    <glyph glyph-name="uni064F" unicode="&#x64f;" 
d="M263 582.5q-27 -28.5 -73 -39.5l-181 -43l-9 44l108 25l-18 63q-3 12 -3 24q0 38 28 63.5t70 25.5q43 0 74 -27.5t31 -69.5q0 -37 -27 -65.5zM228.5 610.5q17.5 16.5 17.5 37.5q0 24 -16.5 39.5t-41.5 15.5q-26 0 -42.5 -13.5t-16.5 -33.5q0 -7 3 -15l17 -62l31 7
q31 8 48.5 24.5z" />
    <glyph glyph-name="uni0650" unicode="&#x650;" 
d="M229 -256l10 -44l-230 -55l-9 44z" />
    <glyph glyph-name="uni0651" unicode="&#x651;" 
d="M50 634l-10 -45q-2 -8 -2 -12q0 -31 38 -31q18 0 27 8t9 20l1 60h34l2 -60q0 -12 9 -20t27 -8q19 0 29 8t10 22q0 3 -2 11l-17 66l36 10l19 -68q3 -12 3 -23q0 -31 -21.5 -51.5t-56.5 -20.5q-37 0 -55 25q-18 -25 -54 -25q-34 0 -55 20.5t-21 51.5q0 11 3 23l12 49z" />
    <glyph glyph-name="uni0652" unicode="&#x652;" 
d="M33 533q-33 33 -33 80q0 46 33 79t79 33q45 0 77.5 -33t32.5 -79q0 -47 -32 -80t-78 -33t-79 33zM161.5 564q20.5 21 20.5 49t-21 48.5t-49 20.5q-29 0 -50 -20.5t-21 -48.5q0 -29 20.5 -49.5t50.5 -20.5q29 0 49.5 21z" />
    <glyph glyph-name="uni0653" unicode="&#x653;" 
d="M22 661.5q22 22.5 58 22.5q7 0 21 -2l101 -19q5 -1 14 -1q19 0 29 10t10 27v6l41 3v-17q0 -37 -22 -59.5t-58 -22.5q-7 0 -21 2l-101 19q-5 1 -14 1q-19 0 -29 -10t-10 -27v-6l-41 -3v17q0 37 22 59.5z" />
    <glyph glyph-name="uni0654" unicode="&#x654;" 
d="M171 536h-2l-160 -38l-9 43l83 20q-21 21 -27 50q-3 12 -3 24q0 40 28.5 68t70.5 28q27 0 75 -10l-8 -43q-46 9 -71 9q-24 0 -39.5 -16t-15.5 -38q0 -24 16.5 -39.5t39.5 -15.5q5 0 13 2l101 24l10 -44z" />
    <glyph glyph-name="uni0655" unicode="&#x655;" 
d="M170 -354h-2l-160 -38l-9 43l83 20q-21 21 -27 50q-3 12 -3 24q0 40 28.5 68t70.5 28q27 0 75 -10l-8 -43q-46 9 -71 9q-24 0 -39.5 -16t-15.5 -38q0 -24 16.5 -39.5t39.5 -15.5q5 0 13 2l101 24l10 -44z" />
    <glyph glyph-name="uni0656" unicode="&#x656;" 
d="M40 -237v-163h-39v163h39z" />
    <glyph glyph-name="uni0660" unicode="&#x660;" horiz-adv-x="516" 
d="M413.5 145q-22.5 -40 -61 -63.5t-84.5 -23.5t-84.5 23.5t-61 63.5t-22.5 86q0 47 22.5 86.5t61 63t84.5 23.5t84.5 -23.5t61 -63t22.5 -86.5q0 -46 -22.5 -86zM336.5 297.5q-28.5 27.5 -68.5 27.5q-39 0 -68 -27.5t-29 -66.5t29 -66t68 -27q40 0 68.5 27t28.5 66
t-28.5 66.5z" />
    <glyph glyph-name="uni0661" unicode="&#x661;" horiz-adv-x="310" 
d="M176 659l64 -655l-76 -8l-64 655z" />
    <glyph glyph-name="uni0662" unicode="&#x662;" horiz-adv-x="559" 
d="M479 480q0 -40 -21.5 -75t-58 -56t-79.5 -21h-34q-40 0 -79 21l33 -343l-76 -8l-64 656l76 8l17 -179q7 -35 28 -53t54 -18h45q37 0 61 22t21 53l-17 166l76 9l17 -168z" />
    <glyph glyph-name="uni0663" unicode="&#x663;" horiz-adv-x="790" 
d="M691.5 408.5q-21.5 -37.5 -59 -60t-81.5 -22.5h-10q-35 0 -65.5 15t-52.5 42q-22 -27 -54 -42t-68 -15h-23q-39 0 -71 18l33 -340l-76 -8l-64 655l76 8l17 -171q5 -35 27 -56.5t55 -21.5h26q35 0 60 22.5t22 54.5l-14 141l76 8l14 -145q3 -37 25.5 -59t56.5 -22h10
q35 0 60 22.5t22 54.5l-16 164l76 8l16 -169q4 -44 -17.5 -81.5z" />
    <glyph glyph-name="uni0664" unicode="&#x664;" horiz-adv-x="707" 
d="M625 326h-351q-35 0 -67 16l32 -338l-76 -8l-46 479l-1 9l-16 168l76 8l17 -175q5 -37 26 -56t55 -19h26q-28 46 -28 99q0 51 24.5 93t66 66t91.5 24q47 0 101.5 -25t55.5 -25l-33 -76q-6 2 -52.5 21t-71.5 21q-44 4 -75 -26t-31 -73q0 -42 27.5 -70.5t67.5 -28.5h182
v-84z" />
    <glyph glyph-name="uni0665" unicode="&#x665;" horiz-adv-x="744" 
d="M570.5 425.5q59.5 -74.5 76.5 -125.5t17 -142q0 -43 -20.5 -79.5t-55.5 -57.5t-78 -21h-11q-35 0 -64.5 14.5t-51.5 40.5q-22 -26 -52.5 -40.5t-65.5 -14.5h-11q-43 0 -78 21t-55.5 57.5t-20.5 79.5q0 85 12 131.5t57 107t159 187.5l-43 48l56 56q170 -188 229.5 -262.5z
M565.5 105.5q22.5 21.5 22.5 52.5q0 68 -11 105.5t-50.5 90.5t-144.5 171q-107 -119 -146.5 -170t-49.5 -88t-10 -109q0 -31 22 -52.5t56 -21.5h11q33 0 56 22t23 52v61h76v-57q3 -35 24.5 -56.5t54.5 -21.5h11q33 0 55.5 21.5z" />
    <glyph glyph-name="uni0666" unicode="&#x666;" horiz-adv-x="609" 
d="M428 365l-263 -389l-62 48l180 266q-52 2 -97 32q-40 25 -61 65.5t-21 85.5q0 58 32 105q13 19 49.5 47t80.5 56l38 -72q-37 -22 -67 -43.5t-39 -35.5q-19 -28 -19 -57q0 -23 11.5 -43.5t33.5 -35.5q26 -19 61 -19q24 0 45.5 10.5t36.5 29.5l100 148l62 -48l-97 -144z
" />
    <glyph glyph-name="uni0667" unicode="&#x667;" horiz-adv-x="685" 
d="M378 -4h-72l-226 634l71 29l191 -537l192 537l71 -29z" />
    <glyph glyph-name="uni0668" unicode="&#x668;" horiz-adv-x="685" 
d="M307 658h72l226 -636l-71 -29l-191 538l-192 -538l-71 29z" />
    <glyph glyph-name="uni0669" unicode="&#x669;" horiz-adv-x="594" 
d="M438 -4l-31 303h-125q-50 0 -92 24.5t-66 66.5t-24 92t24 92.5t66 67t92 24.5q47 0 86.5 -23t65 -64t30.5 -92l50 -483zM398 381l-10 97q-5 46 -34.5 75.5t-71.5 29.5q-45 0 -75.5 -29.5t-30.5 -71.5t30.5 -71.5t75.5 -29.5h116z" />
    <glyph glyph-name="uni066A" unicode="&#x66a;" horiz-adv-x="435" 
d="M357 659l-190 -657h-89l190 657h89zM36.5 546.5q-18.5 19.5 -18.5 47.5q0 27 18.5 45.5t46.5 18.5q27 0 46 -18.5t19 -45.5q0 -28 -19 -47.5t-46 -19.5q-28 0 -46.5 19.5zM305.5 20.5q-18.5 19.5 -18.5 47.5q0 27 18.5 45.5t46.5 18.5q27 0 46 -18.5t19 -45.5
q0 -28 -19 -47.5t-46 -19.5q-28 0 -46.5 19.5z" />
    <glyph glyph-name="uni066B" unicode="&#x66b;" horiz-adv-x="370" 
d="M256 463l54 -23l-216 -536l-54 23z" />
    <glyph glyph-name="uni066C" unicode="&#x66c;" horiz-adv-x="280" 
d="M154 132l56 -20l-84 -238l-56 20z" />
    <glyph glyph-name="uni066D" unicode="&#x66d;" horiz-adv-x="502" 
d="M313 394l86 -119l-62 -44l-86 118l-86 -118l-62 44l86 119l-139 45l24 72l139 -45v147h76v-147l139 45l24 -72z" />
    <glyph glyph-name="uni066E" unicode="&#x66e;" horiz-adv-x="918" 
d="M628.5 86.5q56.5 2.5 77.5 6t39 11.5q24 11 36 27t12 40t-8 51l-38 139l74 21l38 -139q10 -36 10 -70q0 -51 -24 -89t-70 -57q-25 -12 -53 -17t-86 -7.5t-176 -2.5v84q112 0 168.5 2.5zM283.5 2.5q-58.5 2.5 -86.5 7.5t-54 17q-46 20 -69.5 58t-23.5 89q0 31 9 65l37 141
l73 -22l-37 -144q-6 -24 -6 -42q0 -24 11.5 -40.5t35.5 -27.5q18 -7 40 -11t79 -6.5t167 -2.5v-84q-117 0 -175.5 2.5z" />
    <glyph glyph-name="uni066F" unicode="&#x66f;" horiz-adv-x="689" 
d="M293 -247q-113 0 -177.5 74t-64.5 199q0 94 37 202l72 -29q-34 -98 -34 -176q0 -88 43 -136.5t123 -48.5q32 0 71 9q75 16 117.5 32t63 41t17.5 65l-4 34q-63 -12 -128 -12q-48 0 -86 22.5t-59.5 63t-21.5 91.5q0 50 22 94.5t61.5 72t90.5 27.5q74 0 123.5 -56.5
t59.5 -148.5l17 -161q2 -14 2 -39q0 -62 -27 -101t-81.5 -63t-149.5 -45q-49 -11 -87 -11zM551 104l-6 58q-7 62 -36.5 97t-73.5 35q-45 0 -71 -34t-26 -79q0 -41 24.5 -65.5t66.5 -24.5q60 0 122 13z" />
    <glyph glyph-name="uni0670" unicode="&#x670;" 
d="M40 663v-163h-39v163h39z" />
    <glyph glyph-name="uni06A1" unicode="&#x6a1;" horiz-adv-x="922" 
d="M871 141q0 -52 -19 -82t-65.5 -44.5t-130.5 -14.5h-202q-115 0 -172.5 2.5t-85 7.5t-53.5 17q-46 20 -69.5 58t-23.5 89q0 31 9 65l37 141l73 -22l-37 -144q-6 -24 -6 -42q0 -24 11.5 -40.5t35.5 -27.5q18 -7 40 -11t79 -6.5t167 -2.5h199q59 0 88.5 5t40.5 18t11 39
q0 14 -1 22q-58 -9 -126 -9q-74 0 -117 43.5t-43 118.5q0 51 19.5 95.5t57.5 71.5t92 27q72 0 121 -54t56 -144l12 -137q2 -28 2 -39zM604.5 261.5q24.5 -24.5 66.5 -24.5q59 0 119 10l-6 63q-7 61 -35.5 94.5t-71.5 33.5q-45 0 -71 -33t-26 -78q0 -41 24.5 -65.5z" />
    <glyph glyph-name="uni06BA" unicode="&#x6ba;" horiz-adv-x="672" 
d="M293 -247q-113 0 -177.5 74t-64.5 199q0 94 37 202l72 -29q-34 -98 -34 -176q0 -88 43 -136.5t123 -48.5q32 0 71 9q72 17 105.5 28.5t55.5 36t22 68.5q0 19 -2 30l-40 274l75 13l40 -275q3 -24 3 -45q0 -66 -31 -107.5t-82 -64t-129 -41.5q-49 -11 -87 -11z" />
    <glyph glyph-name="uni06F0" unicode="&#x6f0;" horiz-adv-x="516" 
d="M413.5 145q-22.5 -40 -61 -63.5t-84.5 -23.5t-84.5 23.5t-61 63.5t-22.5 86q0 47 22.5 86.5t61 63t84.5 23.5t84.5 -23.5t61 -63t22.5 -86.5q0 -46 -22.5 -86zM336.5 297.5q-28.5 27.5 -68.5 27.5q-39 0 -68 -27.5t-29 -66.5t29 -66t68 -27q40 0 68.5 27t28.5 66
t-28.5 66.5z" />
    <glyph glyph-name="uni06F1" unicode="&#x6f1;" horiz-adv-x="310" 
d="M176 659l64 -655l-76 -8l-64 655z" />
    <glyph glyph-name="uni06F2" unicode="&#x6f2;" horiz-adv-x="559" 
d="M479 480q0 -40 -21.5 -75t-58 -56t-79.5 -21h-34q-40 0 -79 21l33 -343l-76 -8l-64 656l76 8l17 -179q7 -35 28 -53t54 -18h45q37 0 61 22t21 53l-17 166l76 9l17 -168z" />
    <glyph glyph-name="uni06F3" unicode="&#x6f3;" horiz-adv-x="790" 
d="M691.5 408.5q-21.5 -37.5 -59 -60t-81.5 -22.5h-10q-35 0 -65.5 15t-52.5 42q-22 -27 -54 -42t-68 -15h-23q-39 0 -71 18l33 -340l-76 -8l-64 655l76 8l17 -171q5 -35 27 -56.5t55 -21.5h26q35 0 60 22.5t22 54.5l-14 141l76 8l14 -145q3 -37 25.5 -59t56.5 -22h10
q35 0 60 22.5t22 54.5l-16 164l76 8l16 -169q4 -44 -17.5 -81.5z" />
    <glyph glyph-name="uni06F4" unicode="&#x6f4;" horiz-adv-x="707" 
d="M625 326h-351q-35 0 -67 16l32 -338l-76 -8l-46 479l-1 9l-16 168l76 8l17 -175q5 -37 26 -56t55 -19h26q-28 46 -28 99q0 51 24.5 93t66 66t91.5 24q47 0 101.5 -25t55.5 -25l-33 -76q-6 2 -52.5 21t-71.5 21q-44 4 -75 -26t-31 -73q0 -42 27.5 -70.5t67.5 -28.5h182
v-84z" />
    <glyph glyph-name="uni06F5" unicode="&#x6f5;" horiz-adv-x="744" 
d="M570.5 425.5q59.5 -74.5 76.5 -125.5t17 -142q0 -43 -20.5 -79.5t-55.5 -57.5t-78 -21h-11q-35 0 -64.5 14.5t-51.5 40.5q-22 -26 -52.5 -40.5t-65.5 -14.5h-11q-43 0 -78 21t-55.5 57.5t-20.5 79.5q0 85 12 131.5t57 107t159 187.5l-43 48l56 56q170 -188 229.5 -262.5z
M565.5 105.5q22.5 21.5 22.5 52.5q0 68 -11 105.5t-50.5 90.5t-144.5 171q-107 -119 -146.5 -170t-49.5 -88t-10 -109q0 -31 22 -52.5t56 -21.5h11q33 0 56 22t23 52v61h76v-57q3 -35 24.5 -56.5t54.5 -21.5h11q33 0 55.5 21.5z" />
    <glyph glyph-name="uni06F6" unicode="&#x6f6;" horiz-adv-x="609" 
d="M428 365l-263 -389l-62 48l180 266q-52 2 -97 32q-40 25 -61 65.5t-21 85.5q0 58 32 105q13 19 49.5 47t80.5 56l38 -72q-37 -22 -67 -43.5t-39 -35.5q-19 -28 -19 -57q0 -23 11.5 -43.5t33.5 -35.5q26 -19 61 -19q24 0 45.5 10.5t36.5 29.5l100 148l62 -48l-97 -144z
" />
    <glyph glyph-name="uni06F7" unicode="&#x6f7;" horiz-adv-x="685" 
d="M378 -4h-72l-226 634l71 29l191 -537l192 537l71 -29z" />
    <glyph glyph-name="uni06F8" unicode="&#x6f8;" horiz-adv-x="685" 
d="M307 658h72l226 -636l-71 -29l-191 538l-192 -538l-71 29z" />
    <glyph glyph-name="uni06F9" unicode="&#x6f9;" horiz-adv-x="594" 
d="M438 -4l-31 303h-125q-50 0 -92 24.5t-66 66.5t-24 92t24 92.5t66 67t92 24.5q47 0 86.5 -23t65 -64t30.5 -92l50 -483zM398 381l-10 97q-5 46 -34.5 75.5t-71.5 29.5q-45 0 -75.5 -29.5t-30.5 -71.5t30.5 -71.5t75.5 -29.5h116z" />
    <glyph glyph-name="uni2009" unicode="&#x2009;" horiz-adv-x="150" 
 />
    <glyph glyph-name="uni200A" unicode="&#x200a;" horiz-adv-x="75" 
 />
    <glyph glyph-name="uni200B" unicode="&#x200b;" 
 />
    <glyph glyph-name="uni200C" unicode="&#x200c;" 
 />
    <glyph glyph-name="uni200D" unicode="&#x200d;" 
 />
    <glyph glyph-name="uni200E" unicode="&#x200e;" horiz-adv-x="433" 
 />
    <glyph glyph-name="uni200F" unicode="&#x200f;" horiz-adv-x="433" 
 />
    <glyph glyph-name="quoteleft" unicode="&#x2018;" horiz-adv-x="182" 
d="M85 783h59l-27 -224h-80z" />
    <glyph glyph-name="quoteright" unicode="&#x2019;" horiz-adv-x="181" 
d="M144 784l-48 -224h-59l28 224h79z" />
    <glyph glyph-name="quotedblleft" unicode="&#x201c;" horiz-adv-x="363" 
d="M85 783h59l-27 -224h-80zM266 783h59l-27 -224h-80z" />
    <glyph glyph-name="quotedblright" unicode="&#x201d;" horiz-adv-x="363" 
d="M144 784l-48 -224h-59l28 224h79zM325 784l-48 -224h-59l28 224h79z" />
    <glyph glyph-name="quotedblbase" unicode="&#x201e;" horiz-adv-x="363" 
d="M144 141l-48 -224h-59l28 224h79zM325 141l-48 -224h-59l28 224h79z" />
    <glyph glyph-name="guilsinglleft" unicode="&#x2039;" horiz-adv-x="314" 
d="M174.5 362q-16.5 -38 -16.5 -80q0 -83 59 -144l-49 -46q-37 38 -57 87.5t-20 102.5q0 55 22.5 106.5t62.5 90.5l45 -50q-30 -29 -46.5 -67z" />
    <glyph glyph-name="guilsinglright" unicode="&#x203a;" horiz-adv-x="314" 
d="M200.5 388.5q22.5 -51.5 22.5 -106.5q0 -53 -20 -102.5t-57 -87.5l-49 46q59 61 59 144q0 42 -16.5 80t-46.5 67l45 50q40 -39 62.5 -90.5z" />
    <glyph glyph-name="minus" unicode="&#x2212;" horiz-adv-x="406" 
d="M377 270h-349v75h349v-75z" />
    <glyph glyph-name="notequal" unicode="&#x2260;" horiz-adv-x="406" 
d="M272 353l-38 -92h143v-76h-175l-34 -81h-79l34 81h-95v76h127l39 92h-166v76h198l31 73h78l-31 -73h73v-76h-105z" />
    <glyph glyph-name="dotabove-ar" unicode="&#xfbb2;" 
d="M1 410l69 70l70 -70l-70 -69z" />
    <glyph glyph-name="dotbelow-ar" unicode="&#xfbb3;" 
d="M1 -122l69 70l70 -70l-70 -69z" />
    <glyph glyph-name="twodotshorizontalabove-ar" unicode="&#xfbb4;" 
d="M1 502l62 62l62 -62l-62 -62zM175 502l62 62l62 -62l-62 -62z" />
    <glyph glyph-name="twodotshorizontalbelow-ar" unicode="&#xfbb5;" 
d="M1 -71l62 62l62 -62l-62 -62zM175 -71l62 62l62 -62l-62 -62z" />
    <glyph glyph-name="threedotsupabove-ar" unicode="&#xfbb6;" 
d="M96 624l54 53l53 -53l-53 -54zM1 502l62 62l62 -62l-62 -62zM174 502l62 62l62 -62l-62 -62z" />
    <glyph glyph-name="threedotsdownbelow-ar" unicode="&#xfbb9;" 
d="M96 -255l54 53l53 -53l-53 -54zM1 -134l62 62l62 -62l-62 -62zM174 -134l62 62l62 -62l-62 -62z" />
    <glyph glyph-name="uniFD3E" unicode="&#xfd3e;" horiz-adv-x="346" 
d="M99 -6.5q-49 120.5 -49 250.5q0 132 50 253.5t142 213.5l54 -60q-83 -82 -126.5 -186.5t-43.5 -220.5q0 -114 42.5 -217.5t122.5 -184.5l-54 -60q-89 91 -138 211.5z" />
    <glyph glyph-name="uniFD3F" unicode="&#xfd3f;" horiz-adv-x="346" 
d="M177.5 26.5q42.5 103.5 42.5 217.5q0 116 -43.5 220.5t-126.5 186.5l54 60q92 -92 142 -213.5t50 -253.5q0 -130 -49 -250.5t-138 -211.5l-54 60q80 81 122.5 184.5z" />
    <glyph glyph-name="uniFEFF" unicode="&#xfeff;" 
 />
    <glyph glyph-name="b.bowl" horiz-adv-x="319" 
d="M43 33q-43 41 -43 111v192q0 68 43 109t111 41q79 0 122 -40t43 -110v-192q0 -71 -43 -111.5t-121 -40.5q-69 0 -112 41zM205 80q28 23 28 64v192q0 40 -28 63t-73 23t-72.5 -23t-27.5 -63v-192q0 -42 27.5 -64.5t73.5 -22.5q44 0 72 23z" />
    <glyph glyph-name="d.bowl" horiz-adv-x="319" 
d="M276 445q43 -41 43 -110v-192q0 -69 -43 -110t-111 -41q-79 0 -122 40t-43 111v192q0 70 43 110.5t121 40.5q69 0 112 -41zM114 399q-28 -23 -28 -64v-192q0 -40 28 -63.5t72 -23.5q45 0 73 23t28 64v192q0 42 -27.5 64.5t-73.5 22.5q-44 0 -72 -23z" />
    <glyph glyph-name="n.curve" horiz-adv-x="319" 
d="M205 399q-28 23 -73 23t-72.5 -23t-27.5 -63v-57h-32v57q0 68 43 109t111 41q79 0 122 -40t43 -110v-336h-86v336q0 40 -28 63z" />
    <glyph glyph-name="uni0627.001" horiz-adv-x="157" 
d="M104 662l20 -524l-74 -41l-22 561z" />
    <glyph glyph-name="uni0627.002" horiz-adv-x="295" 
d="M184 560l21 -559l-76 -4l-21 559z" />
    <glyph glyph-name="uniFE8E.001" horiz-adv-x="280" 
d="M173 19q-37 19 -54 61.5t-20 117.5l-14 358l76 4l14 -362q2 -51 9.5 -74t27.5 -31.5t63 -8.5h10v-84h-10q-65 0 -102 19z" />
    <glyph glyph-name="uniFE8E.002" horiz-adv-x="318" 
d="M124 625l79 -470l-75 -15l-78 470zM323 84v-84h-229v84h229z" />
    <glyph glyph-name="uni066E.001" horiz-adv-x="458" 
d="M168.5 86.5q56.5 2.5 77.5 6t39 11.5q24 11 36 27t12 40t-8 51l-38 139l74 21l38 -139q10 -36 10 -70q0 -51 -24 -89t-70 -57q-25 -12 -53 -17t-86 -7.5t-176 -2.5v84q112 0 168.5 2.5z" />
    <glyph glyph-name="uni066E.fina.001" horiz-adv-x="459" 
d="M283.5 2.5q-58.5 2.5 -86.5 7.5t-54 17q-46 20 -69.5 58t-23.5 89q0 31 9 65l37 141l73 -22l-37 -144q-6 -24 -6 -42q0 -24 11.5 -40.5t35.5 -27.5q18 -7 40 -11t79 -6.5t167 -2.5v-84q-117 0 -175.5 2.5z" />
    <glyph glyph-name="uni066E.fina.001.003" horiz-adv-x="460" 
d="M89.5 47.5q-45.5 45.5 -38.5 121.5l11 123l76 -7l-11 -123q-4 -39 18 -58t72 -20h243v-84h-243q-82 2 -127.5 47.5z" />
    <glyph glyph-name="uni066E.fina.002" horiz-adv-x="492" 
d="M431 103q20 -19 66 -19v-84q-84 0 -126 49q-22 -24 -55.5 -36.5t-74.5 -12.5h-241v84h241q96 0 90 75v3l-11 123l76 7l11 -123v-2q4 -45 24 -64z" />
    <glyph glyph-name="uni066E.medi.001" horiz-adv-x="399" 
d="M338.5 101.5q19.5 -17.5 65.5 -17.5v-84q-83 0 -126 49q-22 -24 -55.5 -36.5t-74.5 -12.5h-153v84h153q96 0 90 75v3l-11 123l76 7l11 -123v-6q5 -44 24.5 -61.5z" />
    <glyph glyph-name="uni066E.init.001" horiz-adv-x="376" 
d="M141 84q108 0 108 81q0 22 -7 47l-39 149l73 21l41 -153q9 -36 9 -65q0 -78 -53.5 -121t-131.5 -43h-146v84h146z" />
    <glyph glyph-name="uni066E.init.002" horiz-adv-x="309" 
d="M250 233q9 -37 9 -68q0 -79 -53 -122t-132 -43h-79v84h79q109 0 109 82q0 22 -7 46l-40 149l74 21z" />
    <glyph glyph-name="uniFE92.alt" horiz-adv-x="309" 
d="M248 103q20 -19 66 -19v-84q-84 0 -126 49q-46 -49 -130 -49h-63v84h63q96 0 90 75v3l-11 123l76 7l11 -123v-2q4 -45 24 -64zM-1 -141l69 70l70 -70l-70 -69z" />
    <glyph glyph-name="uniFE91.alt" horiz-adv-x="331" 
d="M281 164q0 -78 -53 -121t-132 -43h-101v84h101q109 0 109 82q0 22 -7 46l-40 149l73 21l40 -149q10 -36 10 -69zM116 -72l70 -70l-70 -69l-69 70z" />
    <glyph glyph-name="uniFB59.alt" horiz-adv-x="399" 
d="M338.5 101.5q19.5 -17.5 65.5 -17.5v-84q-83 0 -126 49q-22 -24 -55.5 -36.5t-74.5 -12.5h-153v84h153q96 0 90 75v3l-11 123l76 7l11 -123v-6q5 -44 24.5 -61.5zM43 -261l54 53l53 -53l-53 -54zM-52 -140l62 62l62 -62l-62 -62zM121 -140l62 62l62 -62l-62 -62z" />
    <glyph glyph-name="uniFB58.alt" horiz-adv-x="398" 
d="M348 164q0 -78 -53.5 -121t-131.5 -43h-168v84h168q108 0 108 81q0 22 -7 47l-39 149l73 21l41 -153q9 -36 9 -65zM127 -141l-62 -62l-62 62l62 62zM238 -79l62 -62l-62 -62l-62 62zM152 -209l53 -53l-53 -54l-54 54z" />
    <glyph glyph-name="uniFEA2.001" horiz-adv-x="704" 
d="M624 -193l19 -82l-257 -71q-38 -9 -73 -9q-90 0 -160 52t-94 140q-9 33 -9 69q0 87 56.5 161t176.5 106l273 72l-221 117q-29 16 -60 16q-32 0 -60 -17t-46 -47l-18 -31l-66 41l19 34q30 51 74 78t95 27q49 0 99 -27l277 -154l-11 -98l-336 -93q-95 -25 -135.5 -75.5
t-40.5 -109.5q0 -17 6 -45q16 -59 66 -95t115 -36q29 0 56 7z" />
    <glyph glyph-name="uniFEA2.002" horiz-adv-x="232" 
d="M95.5 27.5q-44.5 27.5 -70 74.5t-25.5 103h76q0 -51 33.5 -86t85.5 -35h37v-84h-37q-55 0 -99.5 27.5z" />
    <glyph glyph-name="uniFEAE.001" horiz-adv-x="159" 
d="M75 22.5q-29 22.5 -44.5 74t-29.5 151.5l71 12q11 -83 19 -117t22 -46.5t44 -12.5h7v-84h-7q-53 0 -82 22.5z" />
    <glyph glyph-name="uniFEBC.001" horiz-adv-x="21" 
d="M-63.5 15.5q-35.5 15.5 -59.5 38.5l51 62q14 -13 36 -22.5t48 -9.5h14v-84h-14q-40 0 -75.5 15.5z" />
    <glyph glyph-name="uniFEBC.002" horiz-adv-x="233" 
d="M192 103.5q14 -19.5 41 -19.5v-84q-31 0 -56.5 13t-42.5 36q-47 -47 -134 -49h-5v84h5q48 1 74.5 20.5t30.5 63.5l11 124l76 -7l-11 -123v-3q-3 -36 11 -55.5z" />
    <glyph glyph-name="uniFEBC.003" horiz-adv-x="539" 
d="M400.5 345.5q41.5 -25.5 65 -69.5t23.5 -98q0 -47 -25 -88t-66.5 -65.5t-89.5 -24.5h-308v61l-9 8l9 12v3h2l73 99q49 70 80.5 107t68.5 59t84 22q51 0 92.5 -25.5zM359 97.5q24 13.5 39 35.5t15 45q0 47 -29.5 78t-75.5 31q-31 0 -56 -16t-49 -45.5t-66 -89.5l-38 -52
h209q27 0 51 13.5z" />
    <glyph glyph-name="uniFEDC.001" horiz-adv-x="241" 
d="M112 46q-53 46 -112 145l58 36q53 -82 90.5 -112.5t83.5 -30.5h14v-84h-14q-67 0 -120 46z" />
    <glyph glyph-name="uniFEDB.001" horiz-adv-x="465" 
d="M315 236q31 -49 31 -98q0 -59 -40 -96q-39 -42 -105 -42h-206v84h207q24 0 39 12q13 9 20.5 23t7.5 29q0 18 -11 37l-223 315l17 64l362 133l26 -79l-310 -114z" />
    <glyph glyph-name="uniFEDE.001" horiz-adv-x="179" 
d="M85.5 19q-36.5 19 -60 57.5t-25.5 92.5l74 5q3 -49 28 -69.5t62 -20.5h20v-84h-20q-42 0 -78.5 19z" />
    <glyph glyph-name="uniFEE0.001" horiz-adv-x="288" 
d="M293 84v-84h-20q-36 0 -68 14t-56 41q-21 -25 -54 -40t-77 -15h-23v84h23q54 0 73 24t17 56l-19 494l76 4l19 -494v-7q6 -42 30.5 -59.5t58.5 -17.5h20z" />
    <glyph glyph-name="uniFEDF.001" horiz-adv-x="234" 
d="M18 84q54 0 73 24t17 56l-19 494l76 4l19 -494q2 -42 -15 -80.5t-55 -63t-96 -24.5h-23v84h23z" />
    <glyph glyph-name="uniFEE4.001" horiz-adv-x="159" 
d="M43.5 50.5q-43.5 50.5 -43.5 133.5h65q0 -47 26 -73.5t73 -26.5v-84q-77 0 -120.5 50.5z" />
    <glyph glyph-name="uniFB9F.001" horiz-adv-x="199" 
d="M62 69.5q-41 69.5 -62 214.5l75 12q13 -90 23 -132.5t27.5 -61t49.5 -18.5h29v-84h-27q-74 0 -115 69.5z" />
    <glyph glyph-name="uniFEF4.alt" horiz-adv-x="399" 
d="M338.5 101.5q19.5 -17.5 65.5 -17.5v-84q-83 0 -126 49q-22 -24 -55.5 -36.5t-74.5 -12.5h-153v84h153q96 0 90 75v3l-11 123l76 7l11 -123v-6q5 -44 24.5 -61.5zM-53 -145l62 62l62 -62l-62 -62zM121 -145l62 62l62 -62l-62 -62z" />
    <glyph glyph-name="uniFEF3.alt" horiz-adv-x="398" 
d="M348 164q0 -78 -53.5 -121t-131.5 -43h-168v84h168q108 0 108 81q0 22 -7 47l-39 149l73 21l41 -153q9 -36 9 -65zM63 -82l62 -62l-62 -62l-62 62zM236 -82l62 -62l-62 -62l-61 62z" />
    <glyph glyph-name="uniFBFF.alt" horiz-adv-x="399" 
d="M338.5 101.5q19.5 -17.5 65.5 -17.5v-84q-83 0 -126 49q-22 -24 -55.5 -36.5t-74.5 -12.5h-153v84h153q96 0 90 75v3l-11 123l76 7l11 -123v-6q5 -44 24.5 -61.5zM-53 -145l62 62l62 -62l-62 -62zM121 -145l62 62l62 -62l-62 -62z" />
    <glyph glyph-name="uniFBFE.alt" horiz-adv-x="398" 
d="M348 164q0 -78 -53.5 -121t-131.5 -43h-168v84h168q108 0 108 81q0 22 -7 47l-39 149l73 21l41 -153q9 -36 9 -65zM63 -82l62 -62l-62 -62l-62 62zM236 -82l62 -62l-62 -62l-61 62z" />
    <glyph glyph-name="uni0640.001" horiz-adv-x="160" 
d="M160 84v-84h-160v84h160z" />
    <glyph glyph-name="uni0640.002" horiz-adv-x="65" 
d="M70 84v-84h-70v84h70z" />
    <glyph glyph-name="uni0640.003" 
d="M2 84v-84h-4v84h4z" />
    <glyph glyph-name="uni0640.004" horiz-adv-x="22" 
d="M27 84v-84h-32v84h32z" />
    <glyph glyph-name="period.001" horiz-adv-x="313" 
d="M113.5 15q-17.5 18 -17.5 44q0 25 17.5 42t42.5 17t42.5 -17t17.5 -42q0 -26 -17.5 -44t-42.5 -18t-42.5 18z" />
    <glyph glyph-name="sareyaar" 
d="M47 539q58 5 87 10t29 16q0 10 -10.5 14.5t-30 9t-28.5 6.5q-45 9 -64.5 21.5t-19.5 36.5q0 16 11 46q16 38 42.5 58t60.5 20q21 0 42 -7l36 -11l-11 -43l-38 11q-17 5 -29 5q-45 0 -66 -50q-6 -12 -6 -19q0 -9 10.5 -14t40.5 -12q40 -9 59 -15t29.5 -19t10.5 -37
q0 -30 -20 -44.5t-56.5 -20t-117.5 -10.5l-3 45z" />
    <glyph glyph-name="dotcenterar" 
d="M1 -76l69 70l70 -70l-70 -69z" />
    <glyph glyph-name="threedotsdownbelowar.002" 
d="M79 -227l54 53l53 -53l-53 -54zM1 -134l54 53l53 -53l-53 -54zM158 -134l54 53l53 -53l-53 -54z" />
    <glyph glyph-name="threedotsupabovear.001" 
d="M1 502l62 62l62 -62l-62 -62z" />
    <glyph glyph-name="threedotsupabovear.002" 
d="M1 624l54 53l53 -53l-53 -54z" />
    <glyph glyph-name="waslaar" 
d="M289 681.5q25 -27.5 25 -67.5q0 -34 -26.5 -60.5t-61.5 -26.5h-140q-16 0 -25.5 -7t-26.5 -30l-34 26q21 29 37 41.5t37 14.5l35 47q33 46 57.5 68t59.5 22q38 0 63 -27.5zM260 585q15 13 15 31q0 21 -14 35t-35 14t-38 -14.5t-42 -49.5l-22 -29h102q19 0 34 13z" />
    <glyph glyph-name="miniKehehar" 
d="M71 36q5 0 8 2.5t3 6.5q0 5 -6 11l-58 59l7 30l98 33l12 -34l-71 -24l50 -52q12 -11 12 -29q0 -15 -10.5 -27t-26.5 -12h-89v36h71z" />
    <glyph glyph-name="gafsarkashabovear" 
d="M240 648l19 -54l-243 -88l-20 54z" />
    <glyph glyph-name="uni0654064F" 
d="M181 536h-2l-160 -38l-9 43l83 20q-21 21 -27 50q-3 12 -3 24q0 40 28.5 68t70.5 28q27 0 75 -10l-8 -43q-46 9 -71 9q-24 0 -39.5 -16t-15.5 -38q0 -24 16.5 -39.5t39.5 -15.5q5 0 13 2l101 24l10 -44zM263 834.5q-27 -28.5 -73 -39.5l-181 -43l-9 44l108 25l-18 63
q-3 12 -3 24q0 38 28 63.5t70 25.5q43 0 74 -27.5t31 -69.5q0 -37 -27 -65.5zM228.5 862.5q17.5 16.5 17.5 37.5q0 24 -16.5 39.5t-41.5 15.5q-26 0 -42.5 -13.5t-16.5 -33.5q0 -7 3 -15l17 -62l31 7q31 8 48.5 24.5z" />
    <glyph glyph-name="uni0654064C" 
d="M214 536h-2l-160 -38l-9 43l83 20q-21 21 -27 50q-3 12 -3 24q0 40 28.5 68t70.5 28q27 0 75 -10l-8 -43q-46 9 -71 9q-24 0 -39.5 -16t-15.5 -38q0 -24 16.5 -39.5t39.5 -15.5q5 0 13 2l101 24l10 -44zM353 909q0 -38 -26 -65.5t-72 -39.5l-200 -49l-9 40l8 2
q20 7 32 22t12 33q0 28 -20 46t-49 14l-7 36q6 1 18 1q40 0 66.5 -27.5t26.5 -63.5q0 -21 -10 -43l57 16l-17 68q-3 14 -3 26q0 29 17.5 50.5t49.5 28.5q13 3 26 3q37 0 64.5 -22t33.5 -56q2 -14 2 -20zM295.5 872.5q18.5 16.5 18.5 38.5q0 23 -16.5 38t-41.5 15
q-27 0 -41.5 -11t-14.5 -30q0 -10 2 -15l17 -67l26 7q32 8 50.5 24.5z" />
    <glyph glyph-name="uni0654064E" 
d="M171 536h-2l-160 -38l-9 43l83 20q-21 21 -27 50q-3 12 -3 24q0 40 28.5 68t70.5 28q27 0 75 -10l-8 -43q-46 9 -71 9q-24 0 -39.5 -16t-15.5 -38q0 -24 16.5 -39.5t39.5 -15.5q5 0 13 2l101 24l10 -44zM242 856l10 -44l-230 -55l-9 44z" />
    <glyph glyph-name="uni0654064B" 
d="M171 536h-2l-160 -38l-9 43l83 20q-21 21 -27 50q-3 12 -3 24q0 40 28.5 68t70.5 28q27 0 75 -10l-8 -43q-46 9 -71 9q-24 0 -39.5 -16t-15.5 -38q0 -24 16.5 -39.5t39.5 -15.5q5 0 13 2l101 24l10 -44zM246 850l10 -44l-230 -55l-9 44zM246 962l10 -44l-230 -55l-9 44z
" />
    <glyph glyph-name="uni06540652" 
d="M171 536h-2l-160 -38l-9 43l83 20q-21 21 -27 50q-3 12 -3 24q0 40 28.5 68t70.5 28q27 0 75 -10l-8 -43q-46 9 -71 9q-24 0 -39.5 -16t-15.5 -38q0 -24 16.5 -39.5t39.5 -15.5q5 0 13 2l101 24l10 -44zM58 802q-33 33 -33 80q0 46 33 79t79 33q45 0 77.5 -33t32.5 -79
q0 -47 -32 -80t-78 -33t-79 33zM186.5 833q20.5 21 20.5 49t-21 48.5t-49 20.5q-29 0 -50 -20.5t-21 -48.5q0 -29 20.5 -49.5t50.5 -20.5q29 0 49.5 21z" />
    <glyph glyph-name="uni06550650" 
d="M170 -354h-2l-160 -38l-9 43l83 20q-21 21 -27 50q-3 12 -3 24q0 40 28.5 68t70.5 28q27 0 75 -10l-8 -43q-46 9 -71 9q-24 0 -39.5 -16t-15.5 -38q0 -24 16.5 -39.5t39.5 -15.5q5 0 13 2l101 24l10 -44zM251 -404l10 -44l-230 -55l-9 44z" />
    <glyph glyph-name="uni0655064D" 
d="M170 -354h-2l-160 -38l-9 43l83 20q-21 21 -27 50q-3 12 -3 24q0 40 28.5 68t70.5 28q27 0 75 -10l-8 -43q-46 9 -71 9q-24 0 -39.5 -16t-15.5 -38q0 -24 16.5 -39.5t39.5 -15.5q5 0 13 2l101 24l10 -44zM251 -494l10 -44l-230 -55l-9 44zM251 -382l10 -44l-230 -55
l-9 44z" />
    <glyph glyph-name="uni0653.001" 
d="M22 661.5q22 22.5 58 22.5q7 0 21 -2l101 -19q5 -1 14 -1q19 0 29 10t10 27v6l41 3v-17q0 -37 -22 -59.5t-58 -22.5q-7 0 -21 2l-101 19q-5 1 -14 1q-19 0 -29 -10t-10 -27v-6l-41 -3v17q0 37 22 59.5z" />
    <glyph glyph-name="uni06510670" 
d="M50 634l-10 -45q-2 -8 -2 -12q0 -31 38 -31q18 0 27 8t9 20l1 60h34l2 -60q0 -12 9 -20t27 -8q19 0 29 8t10 22q0 3 -2 11l-17 66l36 10l19 -68q3 -12 3 -23q0 -31 -21.5 -51.5t-56.5 -20.5q-37 0 -55 25q-18 -25 -54 -25q-34 0 -55 20.5t-21 51.5q0 11 3 23l12 49z
M150 840v-163h-39v163h39z" />
    <glyph glyph-name="uni0651064F" 
d="M55 634l-10 -45q-2 -8 -2 -12q0 -31 38 -31q18 0 27 8t9 20l1 60h34l2 -60q0 -12 9 -20t27 -8q19 0 29 8t10 22q0 3 -2 11l-17 66l36 10l19 -68q3 -12 3 -23q0 -31 -21.5 -51.5t-56.5 -20.5q-37 0 -55 25q-18 -25 -54 -25q-34 0 -55 20.5t-21 51.5q0 11 3 23l12 49z
M252 767.5q-27 -28.5 -73 -39.5l-181 -43l-9 44l108 25l-18 63q-3 12 -3 24q0 38 28 63.5t70 25.5q43 0 74 -27.5t31 -69.5q0 -37 -27 -65.5zM217.5 795.5q17.5 16.5 17.5 37.5q0 24 -16.5 39.5t-41.5 15.5q-26 0 -42.5 -13.5t-16.5 -33.5q0 -7 3 -15l17 -62l31 7
q31 8 48.5 24.5z" />
    <glyph glyph-name="uni0651064C" 
d="M78 634l-10 -45q-2 -8 -2 -12q0 -31 38 -31q18 0 27 8t9 20l1 60h34l2 -60q0 -12 9 -20t27 -8q19 0 29 8t10 22q0 3 -2 11l-17 66l36 10l19 -68q3 -12 3 -23q0 -31 -21.5 -51.5t-56.5 -20.5q-37 0 -55 25q-18 -25 -54 -25q-34 0 -55 20.5t-21 51.5q0 11 3 23l12 49z
M320 835q0 -38 -26 -65.5t-72 -39.5l-200 -49l-9 40l8 2q20 7 32 22t12 33q0 28 -20 46t-49 14l-7 36q6 1 18 1q40 0 66.5 -27.5t26.5 -63.5q0 -21 -10 -43l57 16l-17 68q-3 14 -3 26q0 29 17.5 50.5t49.5 28.5q13 3 26 3q37 0 64.5 -22t33.5 -56q2 -14 2 -20zM262.5 798.5
q18.5 16.5 18.5 38.5q0 23 -16.5 38t-41.5 15q-27 0 -41.5 -11t-14.5 -30q0 -10 2 -15l17 -67l26 7q32 8 50.5 24.5z" />
    <glyph glyph-name="uni0651064E" 
d="M50 634l-10 -45q-2 -8 -2 -12q0 -31 38 -31q18 0 27 8t9 20l1 60h34l2 -60q0 -12 9 -20t27 -8q19 0 29 8t10 22q0 3 -2 11l-17 66l36 10l19 -68q3 -12 3 -23q0 -31 -21.5 -51.5t-56.5 -20.5q-37 0 -55 25q-18 -25 -54 -25q-34 0 -55 20.5t-21 51.5q0 11 3 23l12 49z
M236 790l10 -44l-230 -55l-9 44z" />
    <glyph glyph-name="uni0651064B.1" 
d="M50 634l-10 -45q-2 -8 -2 -12q0 -31 38 -31q18 0 27 8t9 20l1 60h34l2 -60q0 -12 9 -20t27 -8q19 0 29 8t10 22q0 3 -2 11l-17 66l36 10l19 -68q3 -12 3 -23q0 -31 -21.5 -51.5t-56.5 -20.5q-37 0 -55 25q-18 -25 -54 -25q-34 0 -55 20.5t-21 51.5q0 11 3 23l12 49z
M240 784l10 -44l-230 -55l-9 44zM240 896l10 -44l-230 -55l-9 44z" />
    <glyph glyph-name="uni06510650" 
d="M251 601l10 -44l-230 -55l-9 44zM61 760l-10 -45q-2 -8 -2 -12q0 -31 38 -31q18 0 27 8t9 20l1 60h34l2 -60q0 -12 9 -20t27 -8q19 0 29 8t10 22q0 3 -2 11l-17 66l36 10l19 -68q3 -12 3 -23q0 -31 -21.5 -51.5t-56.5 -20.5q-37 0 -55 25q-18 -25 -54 -25q-34 0 -55 20.5
t-21 51.5q0 11 3 23l12 49z" />
    <glyph glyph-name="uni0651064D" 
d="M55 864l-10 -45q-2 -8 -2 -12q0 -31 38 -31q18 0 27 8t9 20l1 60h34l2 -60q0 -12 9 -20t27 -8q19 0 29 8t10 22q0 3 -2 11l-17 66l36 10l19 -68q3 -12 3 -23q0 -31 -21.5 -51.5t-56.5 -20.5q-37 0 -55 25q-18 -25 -54 -25q-34 0 -55 20.5t-21 51.5q0 11 3 23l12 49z
M246 595l10 -44l-230 -55l-9 44zM246 707l10 -44l-230 -55l-9 44z" />
    </font>
</defs>
</svg>
